<svg xmlns="http://www.w3.org/2000/svg" width="250" height="58" viewBox="0 0 250 58">
  <g fill="#FFF" fill-rule="evenodd">
    <path d="M30.3647653,18.1288997 C30.3647653,21.2720895 28.0452959,23.4469228 23.1770558,23.4469228 L13.4229372,23.4469228 L13.4229372,12.7288574 L23.4151763,12.7288574 C27.4896815,12.7288574 30.3647653,14.1796282 30.3647653,18.1288997 Z M28.6097295,39.400992 C28.6097295,42.4639264 26.5283805,44.5593862 23.4151763,44.5593862 L13.4229372,44.5593862 L13.4229372,34.4057544 L23.1770558,34.4057544 C26.6871275,34.4057544 28.6097295,36.9836286 28.6097295,39.400992 Z M44.9077505,16.5987554 C44.9077505,7.41083432 36.4412461,1.36698488 27.8865489,1.36698488 L5.93848348e-08,1.36698488 L5.93848348e-08,55.9230226 L25.5670795,55.9230226 C35.4005716,55.9230226 42.5089075,51.0106862 42.5089075,40.9337821 C42.5089075,32.3102946 35.0037042,29.7324204 35.0037042,29.7324204 C35.0037042,29.6512831 44.9077505,27.3944305 44.9077505,16.5987554 Z" transform="matrix(1 0 0 -1 0 57.29)"/>
    <path d="M86.649381,28.6061989 C86.649381,37.1485491 82.7336227,44.0787357 74.9902989,44.0787357 C67.2381558,44.0787357 63.401771,37.1485491 63.401771,28.6061989 C63.401771,19.9844753 67.2381558,13.0551706 74.9902989,13.0551706 C82.7336227,13.0551706 86.649381,19.9844753 86.649381,28.6061989 Z M100.072318,28.6061989 C100.072318,12.5709924 90.8826332,-2.80621042e-06 74.9902989,-2.80621042e-06 C59.1685188,-2.80621042e-06 49.8994603,12.5709924 49.8994603,28.6061989 C49.8994603,44.562032 59.1685188,57.2124007 74.9814796,57.2124007 C90.8826332,57.2124007 100.072318,44.562032 100.072318,28.6061989 Z" transform="matrix(1 0 0 -1 0 57.212)"/>
    <path d="M146.929128,17.809642 C146.929128,5.80219849 136.063781,-2.80621038e-06 125.842241,-2.80621038e-06 C114.015593,-2.80621038e-06 107.939112,4.51282042 103.150245,10.2338844 L111.85487,18.7771165 C115.532508,14.1020186 120.330194,11.7649106 125.683494,11.7649106 C130.075493,11.7649106 133.02995,13.9406258 133.02995,17.1649529 C133.02995,20.6291643 130.419445,21.7086436 123.275832,23.2088024 L121.362049,23.6109613 C112.763255,25.4171489 105.699016,30.2986179 105.699016,40.0492088 C105.699016,50.7655103 114.41246,57.2124007 125.921614,57.2124007 C135.666914,57.2124007 141.981515,53.0232448 145.8179,48.6753421 L137.342576,40.2908569 C134.705613,43.1121431 130.710481,45.3681138 126.159735,45.3681138 C123.046531,45.3681138 119.52764,43.917343 119.52764,40.2908569 C119.52764,36.9871563 123.187639,35.7886168 127.835397,34.8114411 L129.757999,34.4075183 C137.5366,32.7750704 146.929128,30.3788733 146.929128,17.809642" transform="matrix(1 0 0 -1 0 57.212)"/>
    <path d="M198.821745,11.9254214 C193.230324,3.86724946 188.035771,0.0793706725 177.249797,0.0793706725 C161.913077,0.0793706725 152.000212,12.8117586 152.000212,29.0083579 C152.000212,44.3997573 160.951776,57.2124007 177.408544,57.2124007 C186.439482,57.2124007 192.91283,53.6670519 198.424878,45.3663499 L187.400783,38.0331224 C185.160687,41.9021385 182.285604,44.1581092 177.487918,44.1581092 C171.420256,44.1581092 165.581896,38.7298452 165.581896,29.0083579 C165.581896,18.1147889 171.896497,13.1345441 177.893604,13.1345441 C183.079338,13.1345441 185.478181,15.7133002 187.718277,19.4200417 L198.821745,11.9254214" transform="matrix(1 0 0 -1 0 57.292)"/>
    <polyline points="250 1.367 235.616 1.367 235.616 22.882 219.071 22.882 219.071 1.367 204.775 1.367 204.775 55.923 219.071 55.923 219.071 35.857 235.616 35.857 235.616 55.923 250 55.923 250 1.367" transform="matrix(1 0 0 -1 0 57.29)"/>
  </g>
</svg>
