<svg xmlns="http://www.w3.org/2000/svg" width="1001" height="210" viewBox="0 0 1001 210">
  <g fill="#FFF" transform="translate(0 -1)">
    <path d="M163.281609 189.792674C116.785977 189.792674 79.104452 152.091148 79.104452 105.586766 79.104452 59.0798832 116.785977 21.4146086 163.281609 21.4146086 179.669773 21.4146086 194.970392 26.0885478 207.895915 34.1901258L163.281609 105.586766 247.272509 57.0898027C238.14714 42.5504642 225.05911 30.0224571 209.233469 20.5158222 189.095154 8.4590842 161.08152.99753217 130.105266.99753217 85.9184778.99753217 47.1531587 17.0544321 25.5347836 41.1004055 9.52913572 58.876125 0 81.2482806 0 105.585516 0 129.940252 9.52913572 152.328658 25.5347836 170.116878 47.209411 194.192852 85.3972067 210.155999 128.855216 210.155999 172.306975 210.155999 210.48352 194.180352 232.171898 170.116878 233.359446 168.791824 234.509493 167.45427 235.597037 166.066714L232.321904 153.791217C217.083787 175.542097 191.845266 189.792674 163.281609 189.792674M441.742881 205.093294L406.491454 73.5879705C400.828725 52.3371103 381.477942 36.7177281 358.439509 36.7177281 352.464267 36.7177281 346.739035 37.7852713 341.42632 39.7178495L265.535748 67.3139666 343.588908 67.3139666 356.926948 117.125983C343.988924 105.990532 327.138242 99.2152579 308.687495 99.2152579 272.048512 99.2152579 242.384811 123.767502 242.384811 154.053728 242.384811 184.342454 272.048512 208.930949 308.687495 208.930949 335.063563 208.930949 358.389507 196.017926 372.777589 176.179623L380.515403 205.093294 441.742881 205.093294zM334.213528 184.667467C317.312844 184.667467 303.61229 170.979413 303.61229 154.053728 303.61229 137.153044 317.312844 123.452489 334.213528 123.452489 351.114213 123.452489 364.827268 137.153044 364.827268 154.053728 364.827268 170.979413 351.114213 184.667467 334.213528 184.667467zM585.473699 36.740229C580.848512 36.740229 576.473335 37.7627704 572.573177 39.5940945L523.846204 62.3025137C521.433607 47.7969265 508.833097 36.740229 493.632481 36.740229 489.032295 36.740229 484.644618 37.7627704 480.694458 39.5940945L421.20455 67.3139666 463.031243 67.3139666 463.031243 205.094544 524.258721 205.094544 524.258721 82.642087C524.258721 74.192995 531.096498 67.3152166 539.571841 67.3152166 547.997182 67.3152166 554.884961 74.192995 554.884961 82.642087L554.884961 205.094544 616.087438 205.094544 616.087438 67.3139666C616.087438 50.4170326 602.374383 36.741479 585.473699 36.741479M969.439241 36.740229C964.801554 36.740229 960.401375 37.7627704 956.438715 39.5940945L907.761745 62.3025137C905.361648 47.7969265 892.761138 36.740229 877.560522 36.740229 872.960336 36.740229 868.572658 37.7627704 864.609998 39.5940945L805.145091 67.3139666 846.959284 67.3139666 846.959284 205.094544 908.174261 205.094544 908.174261 82.642087C908.174261 74.192995 915.024539 67.3152166 923.499882 67.3152166 931.950224 67.3152166 938.788001 74.192995 938.788001 82.642087L938.788001 205.094544 1000.04048 205.094544 1000.04048 67.3139666C1000.04048 50.4170326 986.314924 36.741479 969.439241 36.741479"/>
    <path d="M815.045492,123.451239 C815.045492,171.341927 776.231421,210.155999 728.354483,210.155999 C680.440043,210.155999 641.600971,171.341927 641.600971,123.451239 C641.600971,75.5730509 680.440043,36.740229 728.354483,36.740229 C776.231421,36.740229 815.045492,75.5743009 815.045492,123.451239 Z M731.942128,63.0562942 C729.217018,52.8533812 718.729093,46.7968861 708.52868,49.5394971 C698.340768,52.2708576 692.253021,62.7650324 694.990632,72.9666954 L724.729336,183.842433 C727.479447,194.055347 737.942371,200.105592 748.142784,197.405482 C758.343196,194.642871 764.405942,184.154946 761.668331,173.954533 L731.942128,63.0562942 Z"/>
  </g>
</svg>
