<svg xmlns="http://www.w3.org/2000/svg" width="400" height="74" viewBox="0 0 400 74">
  <path fill="#FFF" d="M40.602,27.084 C40.602,36.213 36.187,42.396 25.006,42.396 L21.473,42.396 L21.473,13.322 C22.729,13.251 23.902,13.251 25.006,13.251 C35.593,13.25 40.602,18.254 40.602,27.084 Z M29.125,55.055 C49.131,55.055 61.78,44.748 61.78,26.793 C61.779,7.064 48.247,0 26.183,0 C17.65,0 7.353,0.587 0,1.47 L0,71.84 L21.474,71.84 L21.474,55.055 L29.125,55.055 Z M316.843,27.084 C316.843,36.213 312.434,42.396 301.25,42.396 L297.729,42.396 L297.729,13.322 C298.974,13.251 300.149,13.251 301.25,13.251 C311.838,13.25 316.843,18.254 316.843,27.084 Z M305.379,55.055 C325.369,55.055 338.025,44.748 338.025,26.793 C338.025,7.064 324.495,0 302.429,0 C293.898,0 283.595,0.587 276.241,1.47 L276.241,71.84 L297.726,71.84 L297.726,55.055 L305.379,55.055 Z M365.969,19.429 C365.969,15.603 369.798,13.834 375.97,13.834 C382.739,13.834 390.099,15.307 395.096,17.376 L393.333,2.061 C387.74,0.883 382.739,0 373.622,0 C356.263,0 344.499,6.848 344.499,21.201 C344.499,45.926 378.042,40.925 378.042,52.407 C378.042,56.819 374.801,59.173 366.854,59.173 C359.804,59.173 348.911,56.819 342.44,53.582 L344.8,69.78 C351.266,72.135 360.092,73.309 367.155,73.309 C385.095,73.309 399.808,67.419 399.808,49.751 C399.808,26.206 365.969,30.618 365.969,19.429 Z M260.067,1.47 L238.593,1.47 L238.593,71.84 L260.067,71.84 L260.067,1.47 Z M172.984,1.47 L151.508,1.47 L151.508,71.84 L172.984,71.84 L172.984,1.47 Z M210.346,57.703 L210.346,1.47 L188.87,1.47 L188.87,71.84 L227.707,71.84 L230.94,57.703 L210.346,57.703 Z M135.623,1.47 L114.147,1.47 L114.147,29.44 L91.788,29.44 L91.788,1.47 L70.308,1.47 L70.308,71.84 L91.787,71.84 L91.787,44.161 L114.146,44.161 L114.146,71.84 L135.622,71.84 L135.623,1.47 Z"/>
</svg>
