<svg xmlns="http://www.w3.org/2000/svg" xmlns:xlink="http://www.w3.org/1999/xlink" width="152" height="31" viewBox="0 0 152 31">
  <defs>
    <polygon id="header-a" points="30.582 30.784 0 30.784 0 .202 30.582 .202 30.582 30.784"/>
  </defs>
  <g fill="none" fill-rule="evenodd">
    <path fill="#333" d="M52.4171513,26.2511438 C52.4171513,26.2511438 52.3765164,25.1446426 52.3275082,23.8019663 C52.2785,22.45929 52.175312,19.3316325 52.175312,19.3316325 C52.1144827,17.4030746 51.7187232,15.9643521 49.7997699,15.4437326 L49.7997699,15.3516267 C51.4140845,14.7091025 52.54078,12.9026955 52.54078,10.453518 C52.54078,6.59541703 50.7134399,4.8200404 47.1804183,4.8200404 L41.7592273,4.8200404 L41.7592273,26.2511438 L45.2311734,26.2511438 L45.2311734,17.4336123 L46.9063173,17.4336123 C48.2768223,17.4336123 48.7641951,18.2605945 48.7944866,19.699317 C48.7944866,19.699317 48.8888089,23.1037845 48.9166376,24.1080827 C48.9442201,25.112381 48.9452052,26.2511438 48.9452052,26.2511438 L52.4171513,26.2511438 Z M48.9777131,12.1678191 C48.9471754,13.4230688 48.5206318,14.7396402 46.8757795,14.7396402 L45.2311734,14.7396402 L45.2311734,7.94277249 L46.9063173,7.94277249 C48.4598026,7.94277249 49.0382961,9.3206657 49.0080046,10.4840558 L48.9777131,12.1678191 Z M151.347668,26.2511438 L151.347668,23.0668437 L145.774034,23.0668437 L145.774034,16.6989822 L150.311847,16.6989822 L150.311847,13.5146821 L145.774034,13.5146821 L145.774034,8.003848 L151.347668,8.003848 L151.347668,4.8200404 L142.301842,4.8200404 L142.301842,26.2511438 L151.347668,26.2511438 Z M140.283887,26.2511438 L140.283887,23.0668437 L134.710008,23.0668437 L134.710008,4.8200404 L131.238061,4.8200404 L131.238061,26.2511438 L140.283887,26.2511438 Z M124.402283,26.2511438 C126.930514,26.2511438 129.123322,24.4141991 129.123322,20.1586147 C129.123322,17.6478692 127.874721,15.902784 126.199331,15.3213353 L126.199331,15.198938 C127.935551,14.4640616 129.001663,12.6881924 129.001663,10.3308745 C129.001663,6.35062241 127.052172,4.8200404 124.098136,4.8200404 L118.219618,4.8200404 L118.219618,26.2511438 L124.402283,26.2511438 L124.402283,26.2511438 Z M125.377028,11.6777374 C125.34649,13.2088119 124.341453,13.912658 123.427537,13.912658 L121.661273,13.912658 L121.661273,7.94277249 L123.366954,7.94277249 C124.829072,7.94277249 125.437857,8.64711111 125.407566,10.3614122 L125.377028,11.6777374 Z M125.560008,20.5563444 C125.560008,22.2708918 124.859364,23.1587032 123.33617,23.1587032 L121.661273,23.1587032 L121.661273,16.72952 L123.245049,16.72952 C124.707168,16.72952 125.560008,17.7705127 125.560008,19.1784512 L125.560008,20.5563444 Z M111.371772,26.2511438 C113.899756,26.2511438 116.092565,24.4141991 116.092565,20.1586147 C116.092565,17.6478692 114.843718,15.902784 113.168574,15.3213353 L113.168574,15.198938 C114.904793,14.4640616 115.97066,12.6881924 115.97066,10.3308745 C115.97066,6.35062241 114.021415,4.8200404 111.067133,4.8200404 L105.188861,4.8200404 L105.188861,26.2511438 L111.371772,26.2511438 L111.371772,26.2511438 Z M112.346517,11.6777374 C112.31598,13.2088119 111.310696,13.912658 110.397026,13.912658 L108.630515,13.912658 L108.630515,7.94277249 L110.335951,7.94277249 C111.798315,7.94277249 112.4071,8.64711111 112.376809,10.3614122 L112.346517,11.6777374 Z M112.529005,20.5563444 C112.529005,22.2708918 111.828607,23.1587032 110.305659,23.1587032 L108.630515,23.1587032 L108.630515,16.72952 L110.214292,16.72952 C111.676164,16.72952 112.529005,17.7705127 112.529005,19.1784512 L112.529005,20.5563444 Z M97.4527107,26.6488735 C101.137929,26.6488735 102.721459,24.2302338 102.721459,20.8932448 L102.721459,4.82028668 L99.432247,4.82028668 L99.432247,20.801139 C99.432247,22.1487407 99.0970705,23.4956037 97.5438315,23.4956037 C95.8989791,23.4956037 95.5948329,21.9344839 95.5948329,20.8627071 L95.5948329,4.82028668 L92.1223942,4.82028668 L92.1223942,21.1380394 C92.1223942,24.8427128 94.0716391,26.6488735 97.4527107,26.6488735 L97.4527107,26.6488735 Z M85.513186,26.2511438 C88.0411706,26.2511438 90.2339786,24.4141991 90.2339786,20.1586147 C90.2339786,17.6478692 88.9851321,15.902784 87.3099883,15.3213353 L87.3099883,15.198938 C89.0462076,14.4640616 90.1120739,12.6881924 90.1120739,10.3308745 C90.1120739,6.35062241 88.1628291,4.8200404 85.2085472,4.8200404 L79.3302749,4.8200404 L79.3302749,26.2511438 L85.513186,26.2511438 L85.513186,26.2511438 Z M86.4879315,11.6777374 C86.4573937,13.2088119 85.4521104,13.912658 84.5384404,13.912658 L82.7719296,13.912658 L82.7719296,7.94277249 L84.4773649,7.94277249 C85.9394832,7.94277249 86.5485145,8.64711111 86.518223,10.3614122 L86.4879315,11.6777374 Z M86.6704192,20.5563444 C86.6704192,22.2708918 85.970021,23.1587032 84.4470734,23.1587032 L82.7719296,23.1587032 L82.7719296,16.72952 L84.3557064,16.72952 C85.8175785,16.72952 86.6704192,17.7705127 86.6704192,19.1784512 L86.6704192,20.5563444 Z M71.8677333,26.2511438 C75.035287,26.2511438 76.8017978,24.5979182 76.8017978,21.1075017 L76.8017978,9.84079269 C76.8017978,6.44248196 75.0047492,4.8200404 71.7763663,4.8200404 L66.0810744,4.8200404 L66.0810744,26.2511438 L71.8677333,26.2511438 L71.8677333,26.2511438 Z M73.2990676,20.9548129 C73.2990676,22.3019221 72.8730166,23.0973814 71.1673351,23.0973814 L69.5530205,23.0973814 L69.5530205,7.97331025 L71.1976266,7.97331025 C72.9033081,7.97331025 73.3296054,8.98376527 73.3296054,10.1163713 L73.2990676,20.9548129 Z M54.8114101,26.2511438 L54.8114101,4.8200404 L63.857236,4.8200404 L63.857236,8.003848 L58.2833562,8.003848 L58.2833562,13.5146821 L62.8214149,13.5146821 L62.8214149,16.6989822 L58.2833562,16.6989822 L58.2833562,23.0668437 L63.857236,23.0668437 L63.857236,26.2511438 L54.8114101,26.2511438 Z"/>
    <g transform="translate(0 .044)">
      <mask id="header-b" fill="#fff">
        <use xlink:href="#header-a"/>
      </mask>
      <path fill="#E41421" d="M21.1943373,21.0028852 L17.1175465,21.0028852 C16.8929462,21.0028852 16.7099659,20.8196587 16.7099659,20.593827 L16.7099659,10.3639242 C16.7099659,10.1371075 16.8929462,9.95412718 17.1175465,9.95412718 L20.8968404,9.95412718 C23.7326653,9.95412718 24.3281516,11.6231142 24.3281516,13.0234182 C24.3281516,13.8334076 24.1126634,14.4771633 23.6861199,14.9490209 C24.7253887,15.3780271 25.2863969,16.3446457 25.2863969,17.7442109 C25.2863969,19.7853152 23.7565537,21.0028852 21.1943373,21.0028852 M15.2759227,21.0028852 L15.274445,21.0028852 L6.81080673,21.0028852 C6.5857139,21.0028852 6.40371871,20.8196587 6.40371871,20.593827 L6.40371871,10.3639242 C6.40371871,10.1371075 6.5857139,9.95412718 6.81080673,9.95412718 L10.7656927,9.95412718 C13.2355571,9.95412718 14.7097428,11.2842436 14.7097428,13.5115298 C14.7097428,14.9940887 13.9645229,16.1579713 12.7644383,16.6305678 L15.5808077,20.322435 C15.6443459,20.3948391 15.683257,20.4896539 15.683257,20.593827 C15.683257,20.8196587 15.5007692,21.0028852 15.2759227,21.0028852 M-9.85088991e-05,15.4925437 C-9.85088991e-05,23.9379579 6.84577739,30.78408 15.2911915,30.78408 C23.7356206,30.78408 30.5817428,23.9379579 30.5817428,15.4925437 C30.5817428,7.04811467 23.7356206,0.202238769 15.2911915,0.202238769 C6.84577739,0.202238769 -9.85088991e-05,7.04811467 -9.85088991e-05,15.4925437 Z" mask="url(#header-b)"/>
    </g>
  </g>
</svg>
