<svg xmlns="http://www.w3.org/2000/svg" xmlns:xlink="http://www.w3.org/1999/xlink" width="1000" height="248" viewBox="0 0 1000 248">
  <defs>
    <polygon id="brand.news-a" points=".5 247.761 999.5 247.761 999.5 .499 .5 .499"/>
    <polygon id="brand.news-b" points=".402 -.268 999.538 -.268 999.538 247.761 .402 247.761"/>
  </defs>
  <g fill="none" fill-rule="evenodd">
    <mask id="brand.news-c" fill="#fff">
      <use xlink:href="#brand.news-b"/>
    </mask>
    <path fill="#FFF" fill-rule="nonzero" d="M655.226811,104.598272 C652.381496,104.598272 651.251326,107.876467 654.492084,111.606263 C664.855487,118.972259 668.931588,121.244299 669.490823,121.522747 C676.171229,121.522747 663.376672,104.598272 655.226811,104.598272 Z M995.464214,141.603743 C994.86988,142.104481 994.273207,142.497583 993.681213,142.836868 C993.545499,142.939824 993.423824,143.042779 993.260031,143.145735 C988.06078,146.491788 982.37483,145.003613 982.37483,145.003613 C982.37483,145.003613 983.444163,143.059159 978.155996,138.742049 C977.828411,138.4753 977.587401,138.241311 977.39085,138.0237 C977.238757,137.899686 977.089003,137.775671 976.93691,137.651657 C957.691257,121.983706 932.029607,109.556513 905.275224,104.315144 C913.930503,109.3974 934.428001,128.760048 920.185048,139.203008 C911.880754,145.29376 897.160462,142.619258 883.268493,135.646365 C884.878342,138.241311 888.699394,143.770487 887.159742,150.413455 C885.62009,157.056422 872.89573,158.982158 865.833921,156.473788 C865.597591,149.60619 864.500179,145.951271 863.302152,144.442038 C832.151103,117.053543 791.390097,102.504064 788.053404,105.833737 C785.339124,108.543338 794.457702,119.217948 797.485529,123.478901 C800.010278,127.035544 800.078135,131.359674 798.285774,134.61915 C795.487257,139.710766 790.252908,140.010273 780.591473,137.899686 C767.233001,135.625306 757.754078,140.401036 749.772689,152.552121 C745.855702,158.511838 736.334661,157.316151 731.437257,154.054335 C732.656343,150.205204 732.326417,146.311615 731.170508,142.371229 C722.971509,123.385305 698.227098,123.25427 688.86751,129.698347 C687.533769,133.671492 684.021584,141.014089 676.957435,142.090441 C655.114496,145.424795 647.608107,132.040584 644.028064,127.962143 C636.268966,119.114993 583.745298,96.1535834 571.467858,106.119205 C562.431176,113.450102 570.028822,140.127268 587.273862,166.844212 C612.841917,207.177016 624.426747,206.704357 628.514547,202.623577 C631.039296,200.101168 633.514907,194.508814 628.374153,184.622749 C628.00211,183.90908 627.637086,183.24455 627.272062,182.591718 C618.438951,168.112436 614.999302,168.849503 614.999302,168.849503 C612.114209,160.152106 615.804227,155.409135 618.534886,153.228351 C621.487836,150.322199 625.73007,151.314315 627.026373,151.758896 C631.357522,153.24473 634.039044,157.035363 636.521675,160.882154 C648.881011,180.029531 656.588631,210.466911 636.339163,221.473787 C621.843501,229.35222 597.440715,218.712708 570.438304,175.015132 C546.454359,136.200921 539.670998,105.634846 556.965177,91.1485437 C578.01723,73.5174198 622.262342,96.7806758 636.816502,103.512559 C636.411699,100.571309 637.553569,85.8276179 652.175586,86.6559415 C670.887742,87.7533532 682.465552,103.861204 687.440173,112.081262 C694.731292,107.862428 726.677906,101.813794 746.059273,130.887014 C748.144121,129.122732 759.815527,120.647625 775.373502,120.647625 C769.870065,110.588408 762.791876,98.5215591 773.255896,90.2453435 C787.92939,78.646474 838.206757,106.577825 852.852172,115.186306 C844.531498,100.063551 830.054555,65.8636167 815.444239,35.5362117 C809.430703,23.0505213 801.046852,6.26644013 809.872944,1.80425655 C816.731182,-1.66113091 827.024389,1.9165716 828.57808,10.9017761 C830.606771,22.6550787 841.971651,55.4370357 850.034936,73.1804746 C865.358921,107.214277 879.138575,124.84306 902.406511,124.84306 C900.962794,122.067943 900.527573,119.887159 892.794214,112.172518 C884.363565,103.755909 874.945479,104.237928 875.425158,95.1591272 C875.705946,89.8101226 881.195344,88.3055688 882.723297,87.8914071 C894.860343,84.622571 928.461264,94.5881923 941.808036,99.4621977 C957.157761,105.066251 978.031982,115.31266 993.475302,125.144907 C1000.76408,129.787263 1001.45435,136.547225 995.464214,141.603743 Z M470.927164,175.791978 C458.006253,174.8373 442.371061,170.552948 436.575136,157.594599 C431.776007,146.877871 435.557281,135.583188 445.625858,122.898606 C452.083973,115.027193 457.992213,108.321048 459.672259,106.495928 C455.027564,105.517851 444.909849,105.871176 434.752356,107.726714 C434.714918,107.733734 434.66812,107.740753 434.626002,107.750113 C432.307164,108.178314 429.993006,108.690752 427.737345,109.275726 C422.002258,111.084466 420.427507,113.391605 420.427507,113.391605 L419.589824,112.778552 C419.589824,112.801951 419.589824,112.81599 419.589824,112.81599 L420.427507,113.391605 C416.545618,112.858108 413.3189,110.162547 411.030481,107.188538 C408.742061,104.214529 406.388125,98.4607218 408.384057,95.6973035 C410.085162,93.3433671 413.461634,92.0517439 419.889331,91.8341335 C429.824533,91.3661541 456.592955,87.8305698 466.486039,86.7261384 C474.123463,85.872076 479.259537,91.4035925 480.759411,95.0468121 C482.783422,99.8997585 480.698574,105.251103 478.134047,108.208733 C465.433086,122.863508 447.642849,138.870743 454.098625,152.252614 C457.056255,158.385484 471.346005,157.150018 476.063238,155.75076 C486.129475,152.758032 491.125155,156.398911 493.413574,163.135475 C494.887709,167.466624 492.255325,177.366728 470.927164,175.791978 Z M209.153527,158.92366 C210.959927,157.1196 207.103777,153.055199 203.708587,150.851016 C194.393457,144.811741 185.01281,141.311256 178.320704,138.837984 C185.583744,153.693991 206.612399,162.454565 209.153527,158.92366 Z M424.994986,126.495028 C430.072562,129.333323 432.103593,135.208804 428.041532,140.07345 C423.979471,144.935756 415.946604,144.530954 412.361882,142.366549 C409.364474,140.560149 405.885047,137.441066 395.545042,136.907569 C385.811071,136.406831 381.898763,140.578868 375.749514,140.578868 C368.872556,140.578868 366.097438,135.75868 357.584893,125.165966 C353.246724,119.772504 343.496373,107.36871 339.03653,107.36871 C335.255256,107.36871 333.81388,118.237531 333.81388,132.372849 C333.81388,138.795866 330.980264,144.004477 323.661066,143.517778 C317.567975,143.112976 316.552459,135.208804 313.36786,131.497728 C303.828099,120.399596 296.160257,109.551834 292.264328,109.551834 C287.46286,109.551834 285.612001,120.034572 285.612001,128.116576 C285.612001,128.116576 287.107196,140.883054 275.531725,143.112976 C270.498607,144.079354 265.266597,141.292536 265.266597,141.292536 C265.743936,140.326159 265.88667,139.329363 265.793074,138.332567 C264.325958,132.978882 254.264401,125.336779 254.264401,125.336779 L254.266741,125.336779 C243.503215,117.456006 222.011261,103.603815 202.629894,102.576601 C179.989051,101.376233 176.025265,113.25823 175.23438,118.448122 C194.746781,125.601187 207.756608,133.760408 216.170878,140.274681 C225.102265,147.186737 230.998805,154.84522 230.479348,162.34225 C229.772699,172.490383 220.551165,176.159342 213.238987,176.159342 C197.50084,176.159342 171.37823,169.383 158.815323,134.923337 C156.112742,134.052895 149.701424,134.010777 146.282834,134.897598 C141.724715,136.083926 141.797252,138.03072 141.797252,138.03072 C137.52928,136.930968 135.687781,134.84612 134.187907,131.153763 C131.784833,125.245523 134.960073,120.156247 139.838758,117.448986 C143.369663,115.488152 148.954997,114.245667 156.84045,115.172266 C157.949561,104.726966 164.894375,85.6708448 201.963023,87.1098815 C231.403608,88.2517512 265.865611,112.434587 268.958954,114.325223 C270.266957,108.290629 274.422614,86.6465819 286.938723,86.6465819 C301.972561,86.6465819 317.390142,109.051096 317.390142,109.051096 C317.390142,109.051096 321.31181,86.4991684 336.420525,86.4991684 C349.02321,86.4991684 364.840914,106.093466 368.78598,110.75922 C372.068856,114.643449 378.442735,122.107721 381.926842,122.107721 C385.336072,122.685675 392.091354,118.172014 411.451662,122.030504 C411.886883,122.11708 420.635758,124.059195 424.994986,126.495028 Z M185.00111,235.26046 C186.35591,238.835823 185.181282,243.185691 182.96072,244.849358 C175.583025,250.373855 168.888579,247.289871 163.88354,241.816851 C158.012738,235.393834 150.387014,221.464427 147.160296,216.260496 C117.518481,168.437682 94.9220953,117.329651 94.9220953,117.329651 C94.9220953,117.329651 87.0764207,141.128744 85.9907085,160.037451 C84.9658336,177.865127 84.1515494,194.883197 83.3864031,203.217911 C83.138374,206.554604 81.7274161,211.774914 75.8846933,213.68661 C71.3803916,215.158405 64.8146406,215.73402 60.2120632,214.032914 C59.8423595,208.342285 59.5990102,205.590566 57.2240147,198.861022 C54.8536991,192.136158 39.5718318,162.452225 36.9745461,157.835608 C23.6839311,134.207328 6.15342282,104.820562 5.13322772,102.927585 C1.55318531,96.3103565 -3.40973622,87.2900535 5.09812927,84.1007739 C13.6036549,80.9114943 21.0609066,82.6125994 24.7345449,88.0458403 C25.4435337,89.0917742 26.4169308,91.0479281 26.4169308,91.0479281 C26.4169308,91.0479281 23.9483395,93.0766188 29.2411865,105.407876 C30.8135973,108.665013 32.6901947,112.462665 34.7890823,116.648741 C35.1962244,117.392828 35.6197457,118.157975 36.0596464,118.94418 C36.6937585,120.07435 37.1383389,121.064127 37.477624,121.976687 C46.2054398,139.184289 57.8300481,161.368853 68.2028115,180.825096 C68.123255,169.499995 69.075593,155.488692 70.6292847,145.31014 C72.9972604,125.458453 77.8712659,117.083962 79.6870259,101.249879 C79.3243419,90.55187 80.3843152,88.7056912 88.1948914,86.552986 C95.49771,84.5406746 99.7539826,86.5576658 102.496342,93.2942292 C113.044598,119.877799 143.367323,180.937411 169.122569,214.065673 C171.815791,217.53106 182.04582,227.477963 185.00111,235.26046 Z" mask="url(#brand.news-c)" transform="matrix(1 0 0 -1 0 248.261)"/>
  </g>
</svg>
