<?xml version="1.0" encoding="UTF-8"?>
<svg width="188px" height="93px" viewBox="0 0 188 93" version="1.1" xmlns="http://www.w3.org/2000/svg" xmlns:xlink="http://www.w3.org/1999/xlink">
    <!-- Generator: Sketch 63.1 (92452) - https://sketch.com -->
    <title>brand.taf</title>
    <desc>Created with Sketch.</desc>
    <g id="Logos" stroke="none" stroke-width="1" fill="none" fill-rule="evenodd">
        <g id="brand.taf" fill="#5F6C7A" fill-rule="nonzero">
            <path d="M95.809,11.447 L95.809,1.645 L90.878,1.645 L90.878,26.423 L95.809,26.423 L95.809,17.413 C96.905,14.003 101.836,14.125 102.567,17.109 L102.567,26.423 L107.499,26.423 L107.499,16.743 C107.863,11.386 102.324,7.368 95.809,11.447 Z M109.934,26.423 L114.865,26.423 L114.865,1.645 L109.934,1.645 L109.934,26.423 Z M84.059,19.604 L84.059,14.917 L87.53,14.917 L87.53,9.985 L84.059,9.985 L84.059,1.583 L79.067,1.583 L79.067,19.908 C79.067,23.013 79.737,25.874 83.937,26.422 L89.356,26.422 L89.356,20.943 L85.277,20.943 C84.424,20.822 84.12,20.335 84.059,19.604 Z M64.942,0.245 L61.593,0.245 L51.427,26.423 L58.063,26.423 L60.011,21.37 L69.752,21.37 L71.883,26.423 L78.762,26.423 L68.169,0.245 L64.942,0.245 Z M64.942,15.708 L62.324,15.708 L64.942,9.315 L67.499,15.708 L64.942,15.708 Z M168.502,3.106 C167.648,3.106 166.857,3.411 166.248,3.897 C165.457,4.567 164.91,5.542 164.91,6.698 C164.91,7.795 165.457,8.829 166.248,9.499 C166.857,9.986 167.648,10.291 168.502,10.291 C168.805,11.083 168.805,12.118 168.563,13.213 C170.084,11.691 172.094,8.951 172.094,6.698 C172.102626,5.74272407 171.726955,4.82406435 171.051445,4.14855473 C170.375936,3.4730451 169.457276,3.09737395 168.502,3.106 Z M184.635,17.839 C183.539,17.413 178.059,16.256 178.119,14.308 C178.119,13.942 178.365,13.334 178.668,13.09 C178.912,12.908 179.52,12.664 180.068,12.664 C180.677,12.664 181.285,12.908 181.711,13.151 C181.957,13.395 182.625,14.551 182.504,15.464 L187.315,15.464 C187.497,13.637 186.583,11.202 185.305,10.35 C184.088,9.558 182.2,9.01 179.948,9.01 C177.817,9.01 175.991,9.68 174.772,10.654 C173.676,11.628 172.581,13.272 172.581,15.098 C172.581,16.377 173.188,17.716 173.86,18.446 C174.528,19.238 176.172,20.151 178.12,20.76 C178.608,20.882 179.52,21.186 180.311,21.49 C183.235,22.525 181.286,25.265 178.485,24.169 C177.999,23.987 177.633,23.317 177.633,22.525 L172.336,22.525 C172.379196,24.3044377 173.203669,25.9745988 174.59,27.091 C175.928,28.065 177.877,28.612 180.19,28.612 C182.565,28.612 184.635,27.882 185.915,26.968 C187.069,26.176 187.802,24.715 187.923,23.254 L187.923,22.28 C187.74,20.335 186.705,18.509 184.635,17.839 Z M142.627,19.604 L142.627,14.917 L146.098,14.917 L146.098,9.985 L142.627,9.985 L142.627,1.583 L137.635,1.583 L137.635,19.908 C137.635,23.013 138.305,25.874 142.504,26.422 L147.924,26.422 L147.924,20.943 L143.844,20.943 C142.992,20.822 142.748,20.335 142.627,19.604 Z" id="Shape"></path>
            <path d="M157.785,8.768 L157.664,8.768 C152.246,8.829 147.924,13.09 147.924,18.448 C147.924,23.684 152.246,27.946 157.664,28.007 L157.785,28.007 C161.377,28.007 164.543,26.12 166.248,23.258 C166.676,22.528 167.039,21.737 167.283,20.884 L160.891,20.884 C160.1,21.797 159.004,22.345 157.725,22.345 L157.664,22.345 C155.715,22.283 154.133,21.005 153.646,19.301 L167.527,19.301 C167.588,18.997 167.588,18.692 167.588,18.448 C167.588,16.622 167.102,14.978 166.248,13.578 C164.46839,10.5987454 161.255295,8.77256259 157.785,8.768 Z M157.664,16.804 L153.768,16.804 C154.413671,15.2204396 155.953867,14.1854717 157.664,14.1859995 L157.725,14.1859995 C159.435216,14.1851981 160.975551,15.2202592 161.621,16.804 L157.664,16.804 Z M126.127,8.768 L126.006,8.768 C120.588,8.829 116.205,13.09 116.205,18.448 C116.205,23.684 120.588,27.946 126.006,28.007 L126.127,28.007 C130.633,28.007 134.469,25.024 135.625,20.884 L129.232,20.884 C128.441,21.797 127.345,22.345 126.005,22.345 C124.058,22.283 122.413,21.005 121.987,19.301 L135.869,19.301 C135.93,18.997 135.93,18.692 135.93,18.448 C135.93,13.09 131.547,8.768 126.127,8.768 Z M126.006,16.804 L122.11,16.804 C122.755671,15.2204396 124.295867,14.1854717 126.006,14.1859998 C127.832,14.1859998 129.356,15.282 129.902,16.804 L126.006,16.804 Z M19.525,27.824 L19.525,20.457 L0.834,20.457 L0.834,24.597 L5.766,24.597 L5.766,42.983 L9.906,42.983 L9.906,24.597 L15.324,24.597 L15.324,42.922 L19.525,42.922 L19.525,32.146 C19.586,29.467 24.395,28.128 25.126,31.78 L25.126,42.982 L28.656,42.982 L28.656,30.989 C28.718,25.693 22.569,24.962 19.525,27.824 Z M39.981,25.45 C34.746,25.45 30.484,29.59 30.484,34.764 C30.484,39.878 34.746,44.078 39.981,44.078 C44.121,44.078 47.591,41.461 48.87,37.869 L44.548,37.869 C43.574,39.39 41.869,40.365 40.043,40.365 L39.982,40.365 C37.243,40.365 34.99,38.235 34.625,35.494 L49.418,35.494 L49.418,34.154 C49.053,29.346 44.973,25.45 39.981,25.45 Z M39.981,33.181 L34.806,33.181 C35.415,30.807 37.546,29.102 39.981,29.102 L40.042,29.102 C42.478,29.102 44.547,30.807 45.217,33.181 L39.981,33.181 Z M114.621,34.582 L122.779,34.582 L122.779,29.589 L111.334,29.589 L111.334,29.65 L109.689,29.65 L109.689,55.221 L114.621,55.221 L114.621,44.992 L119.674,44.992 L119.674,40.061 L114.621,40.061 L114.621,34.582 Z M131.18,36.956 L131.059,36.956 C126.981,36.956 123.45,39.331 121.928,42.74 C121.365671,43.9615197 121.074337,45.2902607 121.074,46.635 C121.074,48.037 121.379,49.315 121.928,50.533 C123.449,53.941 126.981,56.316 131.059,56.316 L131.18,56.316 C136.6,56.193 140.983,51.931 140.983,46.634 C140.982,41.339 136.6,37.078 131.18,36.956 Z M131.18,50.959 C128.862686,50.9529505 126.985946,49.0753162 126.981,46.758 C126.98485,44.4402289 128.862231,42.561954 131.18,42.557 C133.498322,42.5614022 135.376598,44.4396777 135.381,46.758 C135.37605,49.0760947 133.498095,50.9540497 131.18,50.959 Z M179.459,49.863 L178.668,49.801 C175.99,50.045 174.59,51.811 174.832,54.489 C175.441,56.438 176.963,57.594 178.668,57.594 C179.582,57.594 180.557,57.229 181.408,56.438 C183.539,54.002 182.504,50.775 179.459,49.863 Z M178.668,56.863 C176.902,56.863 175.441,55.463 175.441,53.697 C175.441,51.931 176.902,50.533 178.668,50.533 C180.434,50.533 181.834,51.931 181.834,53.697 C181.834,55.463 180.434,56.863 178.668,56.863 Z" id="Shape"></path>
            <path d="M179.459,54.062 C179.582,54.246 179.764,54.428 179.884,54.612 L180.493,55.768 L179.884,55.768 L179.398,54.916 C179.217,54.672 179.156,54.428 179.033,54.367 C178.973,54.185 178.85,54.062 178.791,54.062 C178.729,54.001 178.729,54.001 178.668,54.001 C178.608,53.94 178.608,53.94 178.547,53.94 L177.756,53.94 L177.756,55.766 L177.268,55.766 L177.268,51.688 L178.912,51.688 C179.216,51.688 179.519,51.688 179.642,51.749 C179.824,51.81 179.947,51.931 180.068,52.175 C180.189,52.358 180.189,52.54 180.189,52.784 C180.189,53.026 180.129,53.331 179.947,53.454 C179.824,53.696 179.519,53.819 179.156,53.88 C179.277,53.941 179.398,54.001 179.459,54.062 Z M178.791,53.455 C178.973,53.455 179.156,53.393 179.338,53.393 C179.459,53.333 179.52,53.212 179.582,53.151 C179.642,53.028 179.703,52.907 179.703,52.725 C179.703,52.541 179.642,52.359 179.519,52.297 C179.398,52.176 179.156,52.055 178.912,52.055 L177.756,52.055 L177.756,53.455 L178.791,53.455 Z M167.588,48.584 L167.588,43.896 L171.119,43.896 L171.119,38.964 L167.588,38.964 L167.588,30.563 L162.656,30.563 L162.656,48.828 C162.595,51.932 163.326,54.855 167.527,55.402 L172.884,55.402 L172.884,49.863 L168.804,49.863 C168.014,49.74 167.709,49.254 167.588,48.584 Z M151.637,36.956 C157.055,37.017 161.439,41.339 161.44,46.635 C161.44,51.932 157.055,56.256 151.637,56.317 L151.516,56.317 C146.035,56.317 141.592,51.992 141.592,46.635 C141.592,41.278 146.036,36.956 151.516,36.956 L151.637,36.956 Z M151.637,50.959 C153.954867,50.9535022 155.832502,49.0758671 155.838,46.758 C155.838,44.444 153.949,42.557 151.637,42.557 C149.325,42.557 147.436,44.444 147.436,46.758 C147.441498,49.0758671 149.319133,50.9535022 151.637,50.959 Z M151.211,83.713 C151.758,84.564 152.062,85.479 152.122,86.391 L152.122,86.756 C152.001,89.192 150.054,91.383 146.034,91.506 C140.251,91.627 131.848,89.861 124.483,92.113 C118.09,94.183 93.86,87.486 82.84,88.521 C74.743,89.191 61.593,92.417 59.766,81.093 C59.28,78.111 60.741,74.458 60.741,71.597 C60.741,70.867 60.132,70.074 59.584,70.013 C55.383,69.709 52.096,69.222 49.478,68.492 C45.948,67.518 43.695,66.117 41.99,64.414 C34.624,64.535 25.431,62.647 20.134,55.342 C16.968,53.942 9.419,50.35 6.984,45.053 C21.413,49.801 35.416,49.254 49.479,47.975 C52.463,47.732 55.385,47.428 58.368,47.123 C57.029,41.218 55.689,35.312 54.35,29.346 C63.664,29.407 73.04,29.529 82.416,29.59 C88.078,42.314 93.435,52.725 101.897,58.692 C112.979,66.667 124.059,77.137 136.295,80.729 C140.436,81.947 147.315,77.686 151.211,83.713 Z M49.479,67.213 C61.837,71.17 76.632,63.379 88.749,68.31 C85.097,60.701 78.765,46.82 57.274,48.769 C54.595,49.011 51.978,49.255 49.481,49.437 C30.364,50.777 17.213,50.047 10.273,47.49 C14.108,53.578 25.189,54.248 33.408,55.16 C38.156,55.708 44.001,55.283 49.48,54.978 C56.238,54.612 62.387,54.489 65.37,56.499 C60.621,56.133 55.203,56.682 49.48,57.229 C40.531,58.022 30.973,58.813 22.145,56.073 C32.434,64.475 40.774,62.586 49.48,61.856 C50.515,61.735 51.489,61.674 52.524,61.674 C60.194,61.43 68.475,58.629 75.232,63.135 C67.683,61.855 58.429,63.561 49.479,64.291 C47.653,64.414 45.888,64.535 44.122,64.596 C45.7791622,65.709945 47.5817382,66.5905389 49.479,67.213 Z" id="Shape"></path>
        </g>
    </g>
</svg>