<?xml version="1.0" encoding="UTF-8"?>
<svg width="94px" height="93px" viewBox="0 0 94 93" version="1.1" xmlns="http://www.w3.org/2000/svg" xmlns:xlink="http://www.w3.org/1999/xlink">
    <!-- Generator: Sketch 63.1 (92452) - https://sketch.com -->
    <title>icon_send-mail</title>
    <desc>Created with Sketch.</desc>
    <defs>
        <path d="M0,46.4510864 C0,72.088716 20.8192125,92.872 46.5,92.872 L46.5,92.872 C72.1807875,92.872 93,72.088716 93,46.4510864 L93,46.4510864 C93,20.8146173 72.1807875,0.0324938272 46.5,0.0324938272 L46.5,0.0324938272 C20.8192125,0.0324938272 0,20.8146173 0,46.4510864" id="path-1"></path>
        <path d="M0,46.4510864 C0,72.088716 20.8192125,92.872 46.5,92.872 L46.5,92.872 C72.1807875,92.872 93,72.088716 93,46.4510864 L93,46.4510864 C93,20.8146173 72.1807875,0.0324938272 46.5,0.0324938272 L46.5,0.0324938272 C20.8192125,0.0324938272 0,20.8146173 0,46.4510864" id="path-3"></path>
    </defs>
    <g id="Logos" stroke="none" stroke-width="1" fill="none" fill-rule="evenodd">
        <g id="icon_send-mail">
            <path d="M93.5,46.4514346 C93.5,72.0879037 72.6807875,92.8711877 47,92.8711877 C21.3192125,92.8711877 0.5,72.0879037 0.5,46.4514346 C0.5,20.8138049 21.3192125,0.0316814815 47,0.0316814815 C72.6807875,0.0316814815 93.5,20.8138049 93.5,46.4514346" id="Fill-1" fill="#FDF4D7" fill-rule="nonzero"></path>
            <g id="Group-12" transform="translate(0.500000, 0.000000)">
                <g id="Group-8">
                    <g id="Stroke-6-Clipped">
                        <mask id="mask-2" fill="white">
                            <use xlink:href="#path-1"></use>
                        </mask>
                        <g id="path-3"></g>
                        <path d="M28.5292613,94.510037 C4.98049875,85.9954938 13.4167613,53.5608519 32.2725113,60.952037 C33.7988737,61.5508519 34.7404988,62.8970247 35.0927363,64.345321 C35.4449738,65.7936173 35.1008738,67.3405556 34.1394863,68.6310247 C32.2364738,71.1852716 28.5594863,71.9245062 25.5881363,70.6537654 C13.1993738,65.3572716 22.0831988,43.5063333 37.2445237,40.4170988" id="Stroke-6" stroke="#00AED9" stroke-linecap="round" stroke-linejoin="round" stroke-dasharray="1.973,2.96" mask="url(#mask-2)"></path>
                    </g>
                </g>
                <g id="Group-11">
                    <g id="Stroke-9-Clipped">
                        <mask id="mask-4" fill="white">
                            <use xlink:href="#path-3"></use>
                        </mask>
                        <g id="path-5"></g>
                        <path d="M38.9457262,40.1537827 C39.3293512,40.1131654 39.7164637,40.0841531 40.1059012,40.0690667" id="Stroke-9" stroke="#00AED9" stroke-linecap="round" stroke-linejoin="round" mask="url(#mask-4)"></path>
                    </g>
                </g>
            </g>
            <g id="Group-21" transform="translate(36.537500, 24.370370)">
                <path d="M0.3341025,2.71880494 C-0.022785,2.32191605 -0.101835,1.7474716 0.135315,1.26934815 C0.372465,0.791224691 0.8781525,0.50574321 1.4105775,0.547520988 L44.41029,3.95589136 C44.95899,3.99999012 45.421665,4.38179259 45.5669775,4.91213827 C45.7134525,5.44248395 45.510015,6.00648395 45.0601275,6.32213827 L9.7991775,31.1265333 C9.3620775,31.4340642 8.78199,31.4445086 8.3344275,31.1543852 C7.8857025,30.8631012 7.6601775,30.3292741 7.7648025,29.8058914 L10.704765,15.0478914 C10.7849775,14.6440395 10.6710525,14.2274222 10.3967025,13.9222123 L0.3341025,2.71880494 Z" id="Fill-13" fill="#FFFFFF" fill-rule="nonzero"></path>
                <path d="M0.3341025,2.71880494 C-0.022785,2.32191605 -0.101835,1.7474716 0.135315,1.26934815 C0.372465,0.791224691 0.8781525,0.50574321 1.4105775,0.547520988 L44.41029,3.95589136 C44.95899,3.99999012 45.421665,4.38179259 45.5669775,4.91213827 C45.7134525,5.44248395 45.510015,6.00648395 45.0601275,6.32213827 L9.7991775,31.1265333 C9.3620775,31.4340642 8.78199,31.4445086 8.3344275,31.1543852 C7.8857025,30.8631012 7.6601775,30.3292741 7.7648025,29.8058914 L10.704765,15.0478914 C10.7849775,14.6440395 10.6710525,14.2274222 10.3967025,13.9222123 L0.3341025,2.71880494 Z" id="Stroke-15" stroke="#1A1816" stroke-linecap="round" stroke-linejoin="round"></path>
                <path d="M10.7051138,15.0478914 L7.76398875,29.8058914 C7.66052625,30.3292741 7.88605125,30.8631012 8.33361375,31.1532247 C8.78233875,31.4445086 9.36242625,31.4340642 9.79952625,31.1265333 L45.0593138,6.32213827 C45.5092013,6.00648395 45.7126388,5.44248395 45.5673263,4.91213827 L10.6841888,14.447916 C10.7365013,14.640558 10.7446388,14.8459654 10.7051138,15.0478914" id="Fill-17" fill="#DAEDF7" fill-rule="nonzero"></path>
                <path d="M10.7051138,15.0478914 L7.76398875,29.8058914 C7.66052625,30.3292741 7.88605125,30.8631012 8.33361375,31.1532247 C8.78233875,31.4445086 9.36242625,31.4340642 9.79952625,31.1265333 L45.0593138,6.32213827 C45.5092013,6.00648395 45.7126388,5.44248395 45.5673263,4.91213827 L10.6841888,14.447916 C10.7365013,14.640558 10.7446388,14.8459654 10.7051138,15.0478914 Z" id="Stroke-19" stroke="#1A1816" stroke-linecap="round" stroke-linejoin="round"></path>
            </g>
        </g>
    </g>
</svg>