<?xml version="1.0" encoding="UTF-8"?>
<svg width="1440px" height="60px" viewBox="0 0 1440 60" version="1.1" xmlns="http://www.w3.org/2000/svg" xmlns:xlink="http://www.w3.org/1999/xlink">
    <!-- Generator: Sketch 63.1 (92452) - https://sketch.com -->
    <title>vector_worked</title>
    <desc>Created with Sketch.</desc>
    <g id="Logos" stroke="none" stroke-width="1" fill="none" fill-rule="evenodd">
        <g id="vector_worked" fill="#E3FDED" fill-rule="nonzero">
            <path d="M0,0 L60,7.5 C120,15 240,30 360,27.515625 C480,24.84375 600,5.15625 720,5.015625 C840,5.15625 960,24.84375 1080,32.484375 C1200,39.84375 1320,35.15625 1380,32.484375 L1440,30 L1440,60 L1380,60 C1320,60 1200,60 1080,60 C960,60 840,60 720,60 C600,60 480,60 360,60 C240,60 120,60 60,60 L0,60 L0,0 Z" id="Path"></path>
        </g>
    </g>
</svg>