<?xml version="1.0" encoding="UTF-8"?>
<svg width="1440px" height="60px" viewBox="0 0 1440 60" version="1.1" xmlns="http://www.w3.org/2000/svg" xmlns:xlink="http://www.w3.org/1999/xlink">
    <!-- Generator: Sketch 63.1 (92452) - https://sketch.com -->
    <title>vector_recent</title>
    <desc>Created with Sketch.</desc>
    <g id="Logos" stroke="none" stroke-width="1" fill="none" fill-rule="evenodd">
        <g id="vector_recent" fill="#F8F9FA" fill-rule="nonzero">
            <path d="M0,34.2857143 L48,35.7053571 C96,37.2321429 192,39.9107143 288,35.7053571 C384,31.3392857 480,20.0892857 576,15.7232143 C672,11.5178571 768,14.1964286 864,12.8571429 C960,11.5178571 1056,5.625 1152,2.86607143 C1248,0 1344,0 1392,0 L1440,0 L1440,60 L1392,60 C1344,60 1248,60 1152,60 C1056,60 960,60 864,60 C768,60 672,60 576,60 C480,60 384,60 288,60 C192,60 96,60 48,60 L0,60 L0,34.2857143 Z" id="Path"></path>
        </g>
    </g>
</svg>