<?xml version="1.0" encoding="UTF-8"?>
<svg width="1000px" height="248px" viewBox="0 0 1000 248" version="1.1" xmlns="http://www.w3.org/2000/svg" xmlns:xlink="http://www.w3.org/1999/xlink">
    <!-- Generator: Sketch 63.1 (92452) - https://sketch.com -->
    <title>brand.news</title>
    <desc>Created with Sketch.</desc>
    <defs>
        <polygon id="path-1" points="0.402 0.732 999.538 0.732 999.538 248.761 0.402 248.761"></polygon>
    </defs>
    <g id="Page-1" stroke="none" stroke-width="1" fill="none" fill-rule="evenodd">
        <g id="brand.news" transform="translate(0.000000, -1.000000)">
            <mask id="mask-2" fill="white">
                <use xlink:href="#path-1"></use>
            </mask>
            <g id="brand.news-b"></g>
            <path d="M655.226811,105.598189 C652.381496,105.598189 651.251326,108.876384 654.492084,112.60618 C664.855487,119.972176 668.931588,122.244216 669.490823,122.522664 C676.171229,122.522664 663.376672,105.598189 655.226811,105.598189 Z M995.464214,142.60366 C994.86988,143.104398 994.273207,143.4975 993.681213,143.836785 C993.545499,143.939741 993.423824,144.042696 993.260031,144.145652 C988.06078,147.491705 982.37483,146.00353 982.37483,146.00353 C982.37483,146.00353 983.444163,144.059076 978.155996,139.741966 C977.828411,139.475217 977.587401,139.241228 977.39085,139.023617 C977.238757,138.899603 977.089003,138.775588 976.93691,138.651574 C957.691257,122.983623 932.029607,110.55643 905.275224,105.315061 C913.930503,110.397317 934.428001,129.759965 920.185048,140.202925 C911.880754,146.293677 897.160462,143.619175 883.268493,136.646282 C884.878342,139.241228 888.699394,144.770404 887.159742,151.413372 C885.62009,158.056339 872.89573,159.982075 865.833921,157.473705 C865.597591,150.606107 864.500179,146.951188 863.302152,145.441955 C832.151103,118.05346 791.390097,103.503981 788.053404,106.833654 C785.339124,109.543255 794.457702,120.217865 797.485529,124.478818 C800.010278,128.035461 800.078135,132.359591 798.285774,135.619067 C795.487257,140.710683 790.252908,141.01019 780.591473,138.899603 C767.233001,136.625223 757.754078,141.400953 749.772689,153.552038 C745.855702,159.511755 736.334661,158.316068 731.437257,155.054252 C732.656343,151.205121 732.326417,147.311532 731.170508,143.371146 C722.971509,124.385222 698.227098,124.254187 688.86751,130.698264 C687.533769,134.671409 684.021584,142.014006 676.957435,143.090358 C655.114496,146.424712 647.608107,133.040501 644.028064,128.96206 C636.268966,120.11491 583.745298,97.1535002 571.467858,107.119122 C562.431176,114.450019 570.028822,141.127185 587.273862,167.844129 C612.841917,208.176933 624.426747,207.704274 628.514547,203.623494 C631.039296,201.101085 633.514907,195.508731 628.374153,185.622666 C628.00211,184.908997 627.637086,184.244467 627.272062,183.591635 C618.438951,169.112353 614.999302,169.84942 614.999302,169.84942 C612.114209,161.152023 615.804227,156.409052 618.534886,154.228268 C621.487836,151.322116 625.73007,152.314232 627.026373,152.758813 C631.357522,154.244647 634.039044,158.03528 636.521675,161.882071 C648.881011,181.029448 656.588631,211.466828 636.339163,222.473704 C621.843501,230.352137 597.440715,219.712625 570.438304,176.015049 C546.454359,137.200838 539.670998,106.634763 556.965177,92.1484605 C578.01723,74.5173366 622.262342,97.7805926 636.816502,104.512476 C636.411699,101.571226 637.553569,86.8275347 652.175586,87.6558583 C670.887742,88.75327 682.465552,104.861121 687.440173,113.081179 C694.731292,108.862345 726.677906,102.813711 746.059273,131.886931 C748.144121,130.122649 759.815527,121.647542 775.373502,121.647542 C769.870065,111.588325 762.791876,99.5214759 773.255896,91.2452603 C787.92939,79.6463908 838.206757,107.577742 852.852172,116.186223 C844.531498,101.063468 830.054555,66.8635335 815.444239,36.5361285 C809.430703,24.0504381 801.046852,7.26635696 809.872944,2.80417338 C816.731182,-0.661214079 827.024389,2.91648843 828.57808,11.9016929 C830.606771,23.6549955 841.971651,56.4369525 850.034936,74.1803914 C865.358921,108.214194 879.138575,125.842977 902.406511,125.842977 C900.962794,123.06786 900.527573,120.887076 892.794214,113.172435 C884.363565,104.755826 874.945479,105.237845 875.425158,96.159044 C875.705946,90.8100394 881.195344,89.3054856 882.723297,88.8913239 C894.860343,85.6224878 928.461264,95.5881091 941.808036,100.462115 C957.157761,106.066168 978.031982,116.312577 993.475302,126.144824 C1000.76408,130.78718 1001.45435,137.547142 995.464214,142.60366 Z M470.927164,176.791895 C458.006253,175.837217 442.371061,171.552865 436.575136,158.594516 C431.776007,147.877788 435.557281,136.583105 445.625858,123.898523 C452.083973,116.02711 457.992213,109.320965 459.672259,107.495845 C455.027564,106.517768 444.909849,106.871093 434.752356,108.726631 C434.714918,108.733651 434.66812,108.74067 434.626002,108.75003 C432.307164,109.178231 429.993006,109.690669 427.737345,110.275643 C422.002258,112.084383 420.427507,114.391522 420.427507,114.391522 L419.589824,113.778469 C419.589824,113.801868 419.589824,113.815907 419.589824,113.815907 L420.427507,114.391522 C416.545618,113.858025 413.3189,111.162464 411.030481,108.188455 C408.742061,105.214446 406.388125,99.4606386 408.384057,96.6972203 C410.085162,94.3432839 413.461634,93.0516607 419.889331,92.8340503 C429.824533,92.3660709 456.592955,88.8304866 466.486039,87.7260552 C474.123463,86.8719928 479.259537,92.4035093 480.759411,96.0467289 C482.783422,100.899675 480.698574,106.25102 478.134047,109.20865 C465.433086,123.863425 447.642849,139.87066 454.098625,153.252531 C457.056255,159.385401 471.346005,158.149935 476.063238,156.750677 C486.129475,153.757949 491.125155,157.398828 493.413574,164.135392 C494.887709,168.466541 492.255325,178.366645 470.927164,176.791895 Z M209.153527,159.923577 C210.959927,158.119517 207.103777,154.055116 203.708587,151.850933 C194.393457,145.811658 185.01281,142.311173 178.320704,139.837901 C185.583744,154.693908 206.612399,163.454482 209.153527,159.923577 Z M424.994986,127.494945 C430.072562,130.33324 432.103593,136.208721 428.041532,141.073367 C423.979471,145.935673 415.946604,145.530871 412.361882,143.366466 C409.364474,141.560066 405.885047,138.440983 395.545042,137.907486 C385.811071,137.406748 381.898763,141.578785 375.749514,141.578785 C368.872556,141.578785 366.097438,136.758597 357.584893,126.165883 C353.246724,120.772421 343.496373,108.368627 339.03653,108.368627 C335.255256,108.368627 333.81388,119.237448 333.81388,133.372766 C333.81388,139.795783 330.980264,145.004394 323.661066,144.517695 C317.567975,144.112893 316.552459,136.208721 313.36786,132.497645 C303.828099,121.399513 296.160257,110.551751 292.264328,110.551751 C287.46286,110.551751 285.612001,121.034489 285.612001,129.116493 C285.612001,129.116493 287.107196,141.882971 275.531725,144.112893 C270.498607,145.079271 265.266597,142.292453 265.266597,142.292453 C265.743936,141.326076 265.88667,140.32928 265.793074,139.332484 C264.325958,133.978799 254.264401,126.336696 254.264401,126.336696 L254.266741,126.336696 C243.503215,118.455923 222.011261,104.603732 202.629894,103.576518 C179.989051,102.37615 176.025265,114.258147 175.23438,119.448039 C194.746781,126.601104 207.756608,134.760325 216.170878,141.274598 C225.102265,148.186654 230.998805,155.845137 230.479348,163.342167 C229.772699,173.4903 220.551165,177.159259 213.238987,177.159259 C197.50084,177.159259 171.37823,170.382917 158.815323,135.923254 C156.112742,135.052812 149.701424,135.010694 146.282834,135.897515 C141.724715,137.083843 141.797252,139.030637 141.797252,139.030637 C137.52928,137.930885 135.687781,135.846037 134.187907,132.15368 C131.784833,126.24544 134.960073,121.156164 139.838758,118.448903 C143.369663,116.488069 148.954997,115.245584 156.84045,116.172183 C157.949561,105.726883 164.894375,86.6707616 201.963023,88.1097983 C231.403608,89.251668 265.865611,113.434504 268.958954,115.32514 C270.266957,109.290546 274.422614,87.6464987 286.938723,87.6464987 C301.972561,87.6464987 317.390142,110.051013 317.390142,110.051013 C317.390142,110.051013 321.31181,87.4990852 336.420525,87.4990852 C349.02321,87.4990852 364.840914,107.093383 368.78598,111.759137 C372.068856,115.643366 378.442735,123.107638 381.926842,123.107638 C385.336072,123.685592 392.091354,119.171931 411.451662,123.030421 C411.886883,123.116997 420.635758,125.059112 424.994986,127.494945 Z M185.00111,236.260377 C186.35591,239.83574 185.181282,244.185608 182.96072,245.849275 C175.583025,251.373772 168.888579,248.289788 163.88354,242.816768 C158.012738,236.393751 150.387014,222.464344 147.160296,217.260413 C117.518481,169.437599 94.9220953,118.329568 94.9220953,118.329568 C94.9220953,118.329568 87.0764207,142.128661 85.9907085,161.037368 C84.9658336,178.865044 84.1515494,195.883114 83.3864031,204.217828 C83.138374,207.554521 81.7274161,212.774831 75.8846933,214.686527 C71.3803916,216.158322 64.8146406,216.733937 60.2120632,215.032831 C59.8423595,209.342202 59.5990102,206.590483 57.2240147,199.860939 C54.8536991,193.136075 39.5718318,163.452142 36.9745461,158.835525 C23.6839311,135.207245 6.15342282,105.820479 5.13322772,103.927502 C1.55318531,97.3102733 -3.40973622,88.2899703 5.09812927,85.1006907 C13.6036549,81.9114111 21.0609066,83.6125162 24.7345449,89.0457571 C25.4435337,90.091691 26.4169308,92.0478449 26.4169308,92.0478449 C26.4169308,92.0478449 23.9483395,94.0765356 29.2411865,106.407793 C30.8135973,109.66493 32.6901947,113.462582 34.7890823,117.648658 C35.1962244,118.392745 35.6197457,119.157892 36.0596464,119.944097 C36.6937585,121.074267 37.1383389,122.064044 37.477624,122.976604 C46.2054398,140.184206 57.8300481,162.36877 68.2028115,181.825013 C68.123255,170.499912 69.075593,156.488609 70.6292847,146.310057 C72.9972604,126.45837 77.8712659,118.083879 79.6870259,102.249796 C79.3243419,91.5517868 80.3843152,89.705608 88.1948914,87.5529028 C95.49771,85.5405914 99.7539826,87.5575826 102.496342,94.294146 C113.044598,120.877716 143.367323,181.937328 169.122569,215.06559 C171.815791,218.530977 182.04582,228.47788 185.00111,236.260377 Z" id="Shape" fill="#CFD6DE" fill-rule="nonzero" mask="url(#mask-2)" transform="translate(499.951444, 125.130458) scale(-1, 1) rotate(-180.000000) translate(-499.951444, -125.130458) "></path>
        </g>
    </g>
</svg>