<?xml version="1.0" encoding="UTF-8"?>
<svg width="250px" height="58px" viewBox="0 0 250 58" version="1.1" xmlns="http://www.w3.org/2000/svg" xmlns:xlink="http://www.w3.org/1999/xlink">
    <!-- Generator: Sketch 63.1 (92452) - https://sketch.com -->
    <title>brand.bosch</title>
    <desc>Created with Sketch.</desc>
    <g id="Logos" stroke="none" stroke-width="1" fill="none" fill-rule="evenodd">
        <g id="brand.bosch" fill="#5F6C7A">
            <path d="M30.3647653,18.1288922 C30.3647653,21.272082 28.0452959,23.4469153 23.1770558,23.4469153 L13.4229372,23.4469153 L13.4229372,12.7288499 L23.4151763,12.7288499 C27.4896815,12.7288499 30.3647653,14.1796207 30.3647653,18.1288922 Z M28.6097295,39.4009845 C28.6097295,42.4639189 26.5283805,44.5593787 23.4151763,44.5593787 L13.4229372,44.5593787 L13.4229372,34.4057469 L23.1770558,34.4057469 C26.6871275,34.4057469 28.6097295,36.9836211 28.6097295,39.4009845 Z M44.9077505,16.5987479 C44.9077505,7.41082684 36.4412461,1.3669774 27.8865489,1.3669774 L5.93848348e-08,1.3669774 L5.93848348e-08,55.9230151 L25.5670795,55.9230151 C35.4005716,55.9230151 42.5089075,51.0106787 42.5089075,40.9337746 C42.5089075,32.3102871 35.0037042,29.7324129 35.0037042,29.7324129 C35.0037042,29.6512756 44.9077505,27.394423 44.9077505,16.5987479 Z" id="Shape" transform="translate(22.453875, 28.644996) scale(-1, 1) rotate(-180.000000) translate(-22.453875, -28.644996) "></path>
            <path d="M86.649381,28.605801 C86.649381,37.1481512 82.7336227,44.0783378 74.9902989,44.0783378 C67.2381558,44.0783378 63.401771,37.1481512 63.401771,28.605801 C63.401771,19.9840774 67.2381558,13.0547727 74.9902989,13.0547727 C82.7336227,13.0547727 86.649381,19.9840774 86.649381,28.605801 Z M100.072318,28.605801 C100.072318,12.5705945 90.8826332,-0.0004007 74.9902989,-0.0004007 C59.1685188,-0.0004007 49.8994603,12.5705945 49.8994603,28.605801 C49.8994603,44.5616341 59.1685188,57.2120028 74.9814796,57.2120028 C90.8826332,57.2120028 100.072318,44.5616341 100.072318,28.605801 Z" id="Shape" transform="translate(74.985889, 28.605801) scale(-1, 1) rotate(-180.000000) translate(-74.985889, -28.605801) "></path>
            <path d="M146.929128,17.8092441 C146.929128,5.8018006 136.063781,-0.0004007 125.842241,-0.0004007 C114.015593,-0.0004007 107.939112,4.51242253 103.150245,10.2334865 L111.85487,18.7767186 C115.532508,14.1016207 120.330194,11.7645127 125.683494,11.7645127 C130.075493,11.7645127 133.02995,13.9402279 133.02995,17.164555 C133.02995,20.6287664 130.419445,21.7082457 123.275832,23.2084045 L121.362049,23.6105634 C112.763255,25.416751 105.699016,30.29822 105.699016,40.0488109 C105.699016,50.7651124 114.41246,57.2120028 125.921614,57.2120028 C135.666914,57.2120028 141.981515,53.0228469 145.8179,48.6749442 L137.342576,40.290459 C134.705613,43.1117452 130.710481,45.3677159 126.159735,45.3677159 C123.046531,45.3677159 119.52764,43.9169451 119.52764,40.290459 C119.52764,36.9867584 123.187639,35.7882189 127.835397,34.8110432 L129.757999,34.4071204 C137.5366,32.7746725 146.929128,30.3784754 146.929128,17.8092441" id="Path" transform="translate(125.039686, 28.605801) scale(-1, 1) rotate(-180.000000) translate(-125.039686, -28.605801) "></path>
            <path d="M198.821745,11.92565 C193.230324,3.86747809 188.035771,0.0795993 177.249797,0.0795993 C161.913077,0.0795993 152.000212,12.8119872 152.000212,29.0085865 C152.000212,44.3999859 160.951776,57.2126293 177.408544,57.2126293 C186.439482,57.2126293 192.91283,53.6672805 198.424878,45.3665785 L187.400783,38.033351 C185.160687,41.9023671 182.285604,44.1583378 177.487918,44.1583378 C171.420256,44.1583378 165.581896,38.7300738 165.581896,29.0085865 C165.581896,18.1150175 171.896497,13.1347727 177.893604,13.1347727 C183.079338,13.1347727 185.478181,15.7135288 187.718277,19.4202703 L198.821745,11.92565" id="Path" transform="translate(175.410978, 28.646114) scale(-1, 1) rotate(-180.000000) translate(-175.410978, -28.646114) "></path>
            <polyline id="Path" transform="translate(227.387500, 28.645000) scale(-1, 1) rotate(-180.000000) translate(-227.387500, -28.645000) " points="250 1.367 235.616 1.367 235.616 22.882 219.071 22.882 219.071 1.367 204.775 1.367 204.775 55.923 219.071 55.923 219.071 35.857 235.616 35.857 235.616 55.923 250 55.923 250 1.367"></polyline>
        </g>
    </g>
</svg>