<?xml version="1.0" encoding="UTF-8"?>
<svg width="346px" height="283px" viewBox="0 0 346 283" version="1.1" xmlns="http://www.w3.org/2000/svg" xmlns:xlink="http://www.w3.org/1999/xlink">
    <!-- Generator: Sketch 64 (93537) - https://sketch.com -->
    <title>brand.cogent</title>
    <desc>Created with Sketch.</desc>
    <g id="Logos" stroke="none" stroke-width="1" fill="none" fill-rule="evenodd">
        <g id="brand.cogent" fill="#5F6C7A" fill-rule="nonzero">
            <g id="Group" transform="translate(0.000000, 220.000000)">
                <path d="M31.8206186,19.5 C30.3814433,13.7222222 27.5030928,11.1944444 23.185567,11.1944444 C17.0690722,11.1944444 11.6721649,20.5833333 11.6721649,31.7777778 C11.6721649,43.3333333 16.3494845,51.6388889 22.8257732,51.6388889 C27.143299,51.6388889 30.0216495,49.1111111 31.4608247,44.0555556 L41.8948454,47.3055556 C40.4556701,52 39.0164948,54.1666667 36.857732,56.6944444 C33.2597938,60.3055556 27.8628866,62.8333333 22.8257732,62.8333333 C17.428866,62.8333333 12.0319588,60.3055556 8.43402062,56.6944444 C3.39690722,51.2777778 0.518556701,42.25 0.518556701,31.4166667 C0.518556701,21.3055556 2.67731959,13.7222222 7.71443299,7.94444444 C11.6721649,3.25 17.0690722,0.722222222 22.8257732,0.722222222 C27.8628866,0.722222222 32.5402062,2.52777778 36.1381443,6.13888889 C39.3762887,9.02777778 40.4556701,11.9166667 41.8948454,17.6944444 L31.8206186,19.5 Z" id="Path"></path>
                <path d="M97.6628866,7.94444444 C101.620619,13 103.419588,19.8611111 103.419588,30.3333333 C103.419588,42.9722222 100.901031,51.6388889 95.1443299,57.0555556 C91.5463918,60.6666667 86.8690722,62.4722222 81.4721649,62.4722222 C75.7154639,62.4722222 70.3185567,60.3055556 66.7206186,55.9722222 C62.043299,50.5555556 59.8845361,43.3333333 59.8845361,31.4166667 C59.8845361,24.1944444 61.3237113,15.5277778 63.4824742,11.5555556 C67.0804124,4.33333333 73.556701,0 81.1123711,0 C87.9484536,0.361111111 93.7051546,3.25 97.6628866,7.94444444 Z M71.3979381,32.5 C71.3979381,45.1388889 74.6360825,51.2777778 81.8319588,51.2777778 C88.6680412,51.2777778 92.6257732,44.0555556 92.6257732,31.0555556 C92.6257732,17.6944444 89.3876289,11.5555556 82.5515464,11.5555556 C74.6360825,11.5555556 71.3979381,18.4166667 71.3979381,32.5 Z" id="Shape"></path>
                <path d="M166.383505,28.5277778 L166.383505,29.9722222 C166.383505,37.9166667 166.023711,39 165.304124,42.25 C162.785567,54.8888889 155.229897,62.4722222 144.795876,62.4722222 C139.039175,62.4722222 134.721649,60.3055556 131.123711,55.9722222 C126.086598,49.8333333 123.208247,41.1666667 123.208247,31.4166667 C123.208247,21.6666667 126.086598,12.2777778 131.123711,6.5 C134.361856,2.52777778 139.398969,0.361111111 144.795876,0.361111111 C149.473196,0.361111111 153.790722,1.80555556 157.028866,5.05555556 C160.626804,7.94444444 162.065979,10.4722222 163.864948,16.25 L153.071134,19.1388889 C151.272165,13.7222222 148.753608,11.5555556 144.795876,11.5555556 C138.319588,11.5555556 134.002062,19.1388889 134.002062,30.3333333 C134.002062,43.6944444 138.319588,52 144.795876,52 C147.674227,52 150.552577,50.5555556 151.991753,48.0277778 C153.071134,46.2222222 153.790722,44.7777778 154.510309,40.4444444 L145.875258,40.4444444 L145.875258,28.8888889 L166.383505,28.8888889 L166.383505,28.5277778 Z" id="Path"></path>
                <polygon id="Path" points="225.389691 1.08333333 225.389691 12.6388889 200.563918 12.6388889 200.563918 24.9166667 218.553608 24.9166667 218.553608 36.8333333 200.563918 36.8333333 200.563918 49.8333333 226.109278 49.8333333 226.109278 61.3888889 188.690722 61.3888889 188.690722 1.08333333"></polygon>
                <polygon id="Path" points="263.168041 1.08333333 278.279381 33.2222222 278.279381 1.08333333 289.43299 1.08333333 289.43299 61.3888889 277.919588 61.3888889 259.929897 23.8333333 259.929897 61.3888889 248.416495 61.3888889 248.416495 1.08333333"></polygon>
                <polygon id="Path" points="345.560825 1.08333333 345.560825 12.6388889 332.968041 12.6388889 332.968041 61.3888889 320.735052 61.3888889 320.735052 12.6388889 307.782474 12.6388889 307.782474 1.08333333"></polygon>
            </g>
            <g id="Group" transform="translate(13.000000, 0.000000)">
                <ellipse id="Oval" cx="236.086813" cy="90" rx="89.8351648" ry="90"></ellipse>
                <path d="M146.610989,78.84 L146.610989,0 L90.1945055,0 C40.6054945,0 0.359340659,40.32 0.359340659,90 C0.359340659,139.68 40.6054945,180 90.1945055,180 C106.724176,180 135.471429,180 146.97033,180" id="Path"></path>
            </g>
        </g>
    </g>
</svg>