<?xml version="1.0" encoding="UTF-8"?>
<svg width="177px" height="41px" viewBox="0 0 177 41" version="1.1" xmlns="http://www.w3.org/2000/svg" xmlns:xlink="http://www.w3.org/1999/xlink">
    <!-- Generator: Sketch 63.1 (92452) - https://sketch.com -->
    <title>brand.pepsico</title>
    <desc>Created with Sketch.</desc>
    <g id="Page-1" stroke="none" stroke-width="1" fill="none" fill-rule="evenodd">
        <g id="brand.pepsico" fill="#CFD6DE" fill-rule="nonzero">
            <path d="M45.613,26.485 L49.68,26.485 C51.267,26.485 51.87,27.032 51.87,28.374 C51.87,29.665 51.266,30.212 49.68,30.212 L45.613,30.212 L45.613,26.485 Z M39.311,40.051 L45.613,40.051 L45.613,34.534 L52.362,34.534 C56.831,34.534 58.44,31.901 58.44,28.498 C58.44,24.547 56.786,22.311 52.316,22.311 L39.311,22.311 L39.311,40.051 Z M60.518,22.312 L77.479,22.312 L77.479,26.634 L66.82,26.634 L66.82,29.019 L76.72,29.019 L76.72,33.343 L66.82,33.343 L66.82,35.728 L77.479,35.728 L77.479,40.051 L60.518,40.051 L60.518,22.312 Z M86.417,26.485 L90.484,26.485 C92.072,26.485 92.675,27.032 92.675,28.374 C92.675,29.665 92.071,30.212 90.484,30.212 L86.417,30.212 L86.417,26.485 Z M80.116,40.051 L86.418,40.051 L86.418,34.534 L93.167,34.534 C97.638,34.534 99.245,31.901 99.245,28.498 C99.245,24.547 97.591,22.311 93.122,22.311 L80.116,22.311 L80.116,40.051 Z M105.346,32.522 C102.262,32.001 100.989,30.012 100.989,27.528 C100.989,22.932 105.034,21.69 110.218,21.69 C117.323,21.69 120.251,23.752 120.476,27.504 L113.146,27.504 C113.146,26.782 112.765,26.334 112.185,26.086 C111.626,25.815 110.912,25.714 110.218,25.714 C108.341,25.714 107.693,26.236 107.693,26.982 C107.693,27.478 107.894,27.802 108.519,27.901 L116.05,29.143 C119.224,29.664 121.191,31.305 121.191,34.311 C121.191,38.634 118.017,40.671 110.933,40.671 C106.085,40.671 100.788,39.926 100.765,34.709 L108.363,34.709 C108.386,35.304 108.588,35.701 109.035,35.975 C109.504,36.224 110.197,36.348 111.18,36.348 C113.147,36.348 113.684,35.752 113.684,34.907 C113.684,34.386 113.393,33.864 112.543,33.716 L105.346,32.522 Z M123.244,22.312 L129.547,22.312 L129.547,40.051 L123.244,40.051 L123.244,22.312 Z M152.898,33.144 C152.496,35.48 151.781,37.368 150.216,38.66 C148.675,39.953 146.261,40.673 142.417,40.673 C138.597,40.673 131.513,40.374 131.513,31.183 C131.513,21.991 138.597,21.692 142.417,21.692 C146.216,21.692 152.071,22.239 152.897,29.27 L145.792,29.27 C145.614,28.002 144.853,26.164 142.417,26.164 C139.847,26.164 138.216,27.581 138.216,31.184 C138.216,34.787 139.804,36.203 142.105,36.203 C144.095,36.203 145.279,35.283 145.793,33.146 L152.898,33.146 L152.898,33.144 Z M161.145,31.182 C161.145,27.579 162.778,26.162 165.346,26.162 C167.916,26.162 169.549,27.579 169.549,31.182 C169.549,34.785 167.916,36.201 165.346,36.201 C162.777,36.2 161.145,34.784 161.145,31.182 Z M154.441,31.182 C154.441,40.373 161.525,40.672 165.345,40.672 C169.167,40.672 176.251,40.373 176.251,31.182 C176.251,21.99 169.167,21.6909975 165.345,21.6909975 C161.525,21.69 154.441,21.989 154.441,31.182 Z M29.789,22.487 C30.196,13.976 22.856,4.392 12.851,3.207 L12.868,3.091 C22.732,3.091 30.294,12.223 30.294,19.426 C30.284,20.926 30.166,21.855 29.954,22.53 L29.789,22.487 Z M29.191,23.569 C28.4615419,24.4458906 27.6405569,25.2424036 26.742,25.945 C24.963,15.714 17.444,6.766 12.129,4.154 L12.015,4.234 C17.361,8.621 23.738,17.142 26.217,26.346 C24.9522621,27.2748822 23.5861866,28.0572221 22.145,28.678 C17.1,22.925 12.397,11.83 10.881,4.79 L10.727,4.836 C10.761,11.67 15.613,23.273 21.53,28.933 C20.1733988,29.4711192 18.7625048,29.8607244 17.322,30.095 C11.65,27.848 7.613,20.652 7.613,13.28 C7.613,8.467 9.08,5.49 9.364,4.881 L9.243,4.833 C8.9,5.353 6.75,8.328 6.75,13.523 C6.75,21.856 10.86,28.226 16.316,30.231 C14.3650043,30.4462386 12.3923106,30.3537791 10.47,29.957 L10.429,30.084 C11.012,30.299 12.993,31.131 16.013,31.131 C22.846,31.131 27.464,26.885 29.324,23.658 L29.191,23.569 Z" id="Shape"></path>
            <path d="M15.331,0.084 C10.151,0.084 4.078,3.822 4.078,7.239 C4.078,8.561 5.287,9.678 7.789,9.678 C13.598,9.678 18.996,5.687 18.996,2.583 C18.996,0.95 17.427,0.084 15.331,0.084 Z M17.398,2.486 C17.398,5.102 12.375,8.3 8.175,8.3 C6.32,8.3 5.317,7.57 5.317,6.364 C5.317,3.71 10.398,0.567 14.337,0.567 C16.905,0.568 17.398,1.875 17.398,2.486 Z" id="Shape"></path>
            <path d="M2.014,8.821 C1.868,9.073 1.285,10.215 1.285,11.384 C1.285,13.554 3.477,15.568 7.509,15.568 C15.265,15.568 24.226,9.859 24.226,4.559 C24.226,2.18 21.974,0.887 20.411,0.62 L20.381,0.712 C20.867,0.866 22.649,1.694 22.649,3.814 C22.649,8.036 14.737,13.79 6.856,13.79 C3.839,13.79 1.938,12.301 1.938,10.131 C1.938,9.444 2.081,8.993 2.119,8.861 L2.014,8.821 Z" id="Path"></path>
            <path d="M27.424,4.956 C27.637,5.118 28.914,6.182 28.914,8.196 C28.914,15.062 18.158,21.812 8.648,21.812 C2.977,21.812 0.392,19.012 0.506,16.526 L0.607,16.526 C0.83,17.817 2.671,20.128 7.634,20.128 C17.155,20.128 27.786,13.143 27.786,7.023 C27.786,5.973 27.501,5.318 27.34,5.028 L27.424,4.956 Z" id="Path"></path>
            <path d="M31.02,11.365 C31.064,11.511 31.296,12.168 31.296,13.198 C31.296,20.834 20.409,27.372 10.942,27.372 C6.069,27.372 3.525,25.005 2.988,24.044 L3.074,23.98 C4.422,25.16 7.077,26.055 10.177,26.055 C18.538,26.055 31.015,19.694 30.904,11.393 L31.02,11.365 Z" id="Path"></path>
        </g>
    </g>
</svg>