<?xml version="1.0" encoding="UTF-8"?>
<svg width="180px" height="17px" viewBox="0 0 180 17" version="1.1" xmlns="http://www.w3.org/2000/svg" xmlns:xlink="http://www.w3.org/1999/xlink">
    <!-- Generator: Sketch 63.1 (92452) - https://sketch.com -->
    <title>brand.rockport</title>
    <desc>Created with Sketch.</desc>
    <g id="Page-1" stroke="none" stroke-width="1" fill="none" fill-rule="evenodd">
        <g id="brand.rockport" fill="#CFD6DE" fill-rule="nonzero">
            <path d="M12.067,9.66 L12.3,9.66 L12.3,9.656 C12.328,9.656 12.355,9.66 12.383,9.66 C14.842324,9.66 16.836,7.66632399 16.836,5.207 C16.836,2.74767601 14.842324,0.754 12.383,0.754 C12.355,0.754 12.328,0.758 12.3,0.758 L12.3,0.754 L0.463,0.716 L0.463,16.3 L3.534,16.3 L3.534,9.66 L7.723,9.66 L14.363,16.299 L18.706,16.299 L12.067,9.66 Z M3.535,6.589 L3.535,3.825 L12.39,3.825 L12.39,3.826 C13.1379614,3.84613262 13.7338416,4.45826767 13.7338416,5.2065 C13.7338416,5.95473233 13.1379614,6.56686738 12.39,6.587 L12.39,6.588 L3.535,6.588 L3.535,6.589 Z M101.428,9.656 C101.455,9.656 101.483,9.66 101.51,9.66 C103.969324,9.66 105.963,7.66632399 105.963,5.207 C105.963,2.74767601 103.969324,0.754 101.51,0.754 L101.428,0.754 L89.592,0.715 L89.592,16.299 L92.662,16.299 L92.662,9.66 L96.851,9.66 L101.428,9.656 Z M92.662,6.589 L92.662,3.825 L101.517,3.825 L101.517,3.826 C102.264961,3.84613262 102.860842,4.45826767 102.860842,5.2065 C102.860842,5.95473233 102.264961,6.56686738 101.517,6.587 L101.517,6.588 L92.662,6.588 L92.662,6.589 Z M145.377,9.66 L145.609,9.66 L145.609,9.656 C145.638,9.656 145.666,9.66 145.693,9.66 C148.152324,9.66 150.146,7.66632399 150.146,5.207 C150.146,2.74767601 148.152324,0.754 145.693,0.754 C145.666,0.754 145.638,0.758 145.609,0.758 L145.609,0.754 L133.773,0.715 L133.773,16.299 L136.845,16.299 L136.845,9.66 L141.034,9.66 L147.673,16.299 L152.017,16.299 L145.377,9.66 Z M136.846,6.589 L136.846,3.825 L145.701,3.825 L145.701,3.826 C146.463429,3.826 147.0815,4.4440709 147.0815,5.2065 C147.0815,5.9689291 146.463429,6.587 145.701,6.587 L145.701,6.588 L136.846,6.588 L136.846,6.589 Z M31.176,0.716 C25.968,0.716 21.744,4.204 21.744,8.508 C21.744,12.813 25.967,16.301 31.176,16.301 C36.385,16.301 40.607,12.813 40.607,8.508 C40.607,4.205 36.385,0.716 31.176,0.716 Z M31.173,13.768 C27.657,13.768 24.807,11.414 24.807,8.508 C24.807,5.603 27.657,3.249 31.173,3.249 C34.689,3.249 37.5400003,5.603 37.5400003,8.508 C37.541,11.414 34.689,13.768 31.173,13.768 Z M118.93,0.716 C113.721,0.716 109.498,4.204 109.498,8.508 C109.498,12.813 113.721,16.301 118.93,16.301 C124.139,16.301 128.362,12.813 128.362,8.508 C128.361,4.205 124.139,0.716 118.93,0.716 Z M118.928,13.768 C115.412,13.768 112.561,11.414 112.561,8.508 C112.561,5.603 115.413,3.249 118.928,3.249 C122.443,3.249 125.295,5.603 125.295,8.508 C125.295,11.414 122.443,13.768 118.928,13.768 Z M60.444,10.488 L60.435,10.392 C59.513,12.357 57.207,13.753 54.502,13.753 C50.986,13.753 48.135,11.398 48.135,8.493 C48.135,5.587 50.986,3.232 54.502,3.232 C56.859,3.232 58.913,4.294 60.013,5.867 L60.005,5.778 L62.504,4.378 C60.838,2.173 57.883,0.701 54.505,0.701 C49.297,0.701 45.074,4.19 45.074,8.494 C45.074,12.797 49.297,16.285 54.505,16.285 C58.125,16.285 61.265,14.597 62.846,12.125 L60.444,10.488 Z M169.898,0.784 L154.316,0.784 L154.316,3.825 L160.596,3.825 L160.596,16.301 L163.639,16.301 L163.639,3.825 L169.898,3.825 L169.898,0.784 Z M79.847,16.348 L84.13,16.35 L76.291,8.437 L83.964,0.764 L79.663,0.763 L74.151,6.276 L74.136,6.262 L72.438,7.942 L71.974,7.942 L71.974,0.764 L68.933,0.764 L68.933,16.348 L71.974,16.348 L71.974,8.99 L72.56,8.99 L79.847,16.348 Z M179.086002,3.086 C179.087657,4.70750803 177.774508,6.02334315 176.153,6.02500157 C174.531492,6.02665685 173.215657,4.71350803 173.213998,3.092 C173.212343,1.47049197 174.525492,0.154656854 176.147,0.152998434 C177.768508,0.151343146 179.084343,1.46449197 179.086002,3.086 Z M173.700997,3.086 C173.700997,3.9609435 174.167777,4.76942468 174.9255,5.20689646 C175.683223,5.64436824 176.616777,5.64436824 177.3745,5.20689646 C178.132223,4.76942468 178.599,3.9609435 178.599,3.086 C178.598736,2.43614764 178.339988,1.81308976 177.879816,1.35423177 C177.419645,0.895373777 176.79585,0.63840652 176.146,0.639992633 C175.497128,0.639201988 174.874617,0.896680553 174.415889,1.35559648 C173.957161,1.8145124 173.699937,2.4371284 173.700997,3.086 Z M174.865,1.557 L175.955,1.557 C176.322,1.557 176.736,1.557 177,1.78 C177.189898,1.93387044 177.301042,2.16459535 177.303,2.409 C177.303,2.76 177.055,3.254 176.403,3.294 L176.403,3.31 C176.585,3.374 176.745,3.47 177.135,4.098 L177.518,4.712 L176.895,4.712 L176.618,4.219 C176.235,3.533 176.085,3.374 175.679,3.374 L175.376,3.374 L175.376,4.712 L174.866,4.712 L174.866,1.557 L174.865,1.557 Z M175.375,2.935 L175.996,2.935 C176.234,2.935 176.76,2.935 176.76,2.457 C176.76,1.987 176.266,1.987 175.955,1.987 L175.375,1.987 L175.375,2.935 Z" id="Shape"></path>
        </g>
    </g>
</svg>