<?xml version="1.0" encoding="UTF-8"?>
<svg width="1001px" height="210px" viewBox="0 0 1001 210" version="1.1" xmlns="http://www.w3.org/2000/svg" xmlns:xlink="http://www.w3.org/1999/xlink">
    <!-- Generator: Sketch 63.1 (92452) - https://sketch.com -->
    <title>brand.canon</title>
    <desc>Created with Sketch.</desc>
    <g id="Page-1" stroke="none" stroke-width="1" fill="none" fill-rule="evenodd">
        <g id="brand.canon" fill="#CFD6DE" fill-rule="nonzero">
            <path d="M163.281609,188.792674 C116.785977,188.792674 79.104452,151.091148 79.104452,104.586766 C79.104452,58.0798832 116.785977,20.4146086 163.281609,20.4146086 C179.669773,20.4146086 194.970392,25.0885478 207.895915,33.1901258 L163.281609,104.586766 L247.272509,56.0898027 C238.14714,41.5504642 225.05911,29.0224571 209.233469,19.5158222 C189.095154,7.4590842 161.08152,-0.00246783 130.105266,-0.00246783 C85.9184778,-0.00246783 47.1531587,16.0544321 25.5347836,40.1004055 C9.52913572,57.876125 0,80.2482806 0,104.585516 C0,128.940252 9.52913572,151.328658 25.5347836,169.116878 C47.209411,193.192852 85.3972067,209.155999 128.855216,209.155999 C172.306975,209.155999 210.48352,193.180352 232.171898,169.116878 C233.359446,167.791824 234.509493,166.45427 235.597037,165.066714 L232.321904,152.791217 C217.083787,174.542097 191.845266,188.792674 163.281609,188.792674 M441.742881,204.093294 L406.491454,72.5879705 C400.828725,51.3371103 381.477942,35.7177281 358.439509,35.7177281 C352.464267,35.7177281 346.739035,36.7852713 341.42632,38.7178495 L265.535748,66.3139666 L343.588908,66.3139666 L356.926948,116.125983 C343.988924,104.990532 327.138242,98.2152579 308.687495,98.2152579 C272.048512,98.2152579 242.384811,122.767502 242.384811,153.053728 C242.384811,183.342454 272.048512,207.930949 308.687495,207.930949 C335.063563,207.930949 358.389507,195.017926 372.777589,175.179623 L380.515403,204.093294 L441.742881,204.093294 Z M334.213528,183.667467 C317.312844,183.667467 303.61229,169.979413 303.61229,153.053728 C303.61229,136.153044 317.312844,122.452489 334.213528,122.452489 C351.114213,122.452489 364.827268,136.153044 364.827268,153.053728 C364.827268,169.979413 351.114213,183.667467 334.213528,183.667467 Z M585.473699,35.740229 C580.848512,35.740229 576.473335,36.7627704 572.573177,38.5940945 L523.846204,61.3025137 C521.433607,46.7969265 508.833097,35.740229 493.632481,35.740229 C489.032295,35.740229 484.644618,36.7627704 480.694458,38.5940945 L421.20455,66.3139666 L463.031243,66.3139666 L463.031243,204.094544 L524.258721,204.094544 L524.258721,81.642087 C524.258721,73.192995 531.096498,66.3152166 539.571841,66.3152166 C547.997182,66.3152166 554.884961,73.192995 554.884961,81.642087 L554.884961,204.094544 L616.087438,204.094544 L616.087438,66.3139666 C616.087438,49.4170326 602.374383,35.740229 585.473699,35.740229 M969.439241,35.740229 C964.801554,35.740229 960.401375,36.7627704 956.438715,38.5940945 L907.761745,61.3025137 C905.361648,46.7969265 892.761138,35.740229 877.560522,35.740229 C872.960336,35.740229 868.572658,36.7627704 864.609998,38.5940945 L805.145091,66.3139666 L846.959284,66.3139666 L846.959284,204.094544 L908.174261,204.094544 L908.174261,81.642087 C908.174261,73.192995 915.024539,66.3152166 923.499882,66.3152166 C931.950224,66.3152166 938.788001,73.192995 938.788001,81.642087 L938.788001,204.094544 L1000.04048,204.094544 L1000.04048,66.3139666 C1000.04048,49.4170326 986.314924,35.740229 969.439241,35.740229" id="Shape"></path>
            <path d="M815.045492,122.451239 C815.045492,170.341927 776.231421,209.155999 728.354483,209.155999 C680.440043,209.155999 641.600971,170.341927 641.600971,122.451239 C641.600971,74.5730509 680.440043,35.740229 728.354483,35.740229 C776.231421,35.740229 815.045492,74.5743009 815.045492,122.451239 Z M731.942128,62.0562942 C729.217018,51.8533812 718.729093,45.7968861 708.52868,48.5394971 C698.340768,51.2708576 692.253021,61.7650324 694.990632,71.9666954 L724.729336,182.842433 C727.479447,193.055347 737.942371,199.105592 748.142784,196.405482 C758.343196,193.642871 764.405942,183.154946 761.668331,172.954533 L731.942128,62.0562942 Z" id="Shape"></path>
        </g>
    </g>
</svg>