<?xml version="1.0" encoding="UTF-8"?>
<svg width="188px" height="125px" viewBox="0 0 188 125" version="1.1" xmlns="http://www.w3.org/2000/svg" xmlns:xlink="http://www.w3.org/1999/xlink">
    <!-- Generator: Sketch 63.1 (92452) - https://sketch.com -->
    <title>brand.adidas</title>
    <desc>Created with Sketch.</desc>
    <g id="Logos" stroke="none" stroke-width="1" fill="none" fill-rule="evenodd">
        <g id="brand.adidas" fill-rule="nonzero">
            <path d="M179.195,86.644 C179.982,87.094 180.771,87.291 181.615,87.291 L181.642,87.291 C182.488,87.291 183.277,87.094 184.064,86.644 C184.833585,86.2397354 185.462308,85.6113605 185.867,84.842 C186.291909,84.1060249 186.514767,83.2708259 186.51301,82.421 C186.51301,81.548 186.316,80.732 185.867,79.943 C185.443,79.155 184.824,78.564 184.037,78.141 C183.248,77.719 182.461,77.495 181.642,77.495 L181.615,77.495 C180.777795,77.5202591 179.958182,77.7415168 179.222,78.141 C178.435,78.564 177.843,79.155 177.392,79.943 C176.959781,80.6967107 176.736759,81.5522033 176.746,82.421 C176.746,83.237 176.943,84.054 177.392,84.842 C177.796126,85.611777 178.424999,86.2403012 179.195,86.644 Z M178.098,80.366 C178.453839,79.7278723 178.980107,79.2012582 179.618,78.845 C180.264,78.507 180.94,78.311 181.616,78.311 L181.643,78.311 C182.319,78.311 182.995,78.507 183.643,78.845 C184.280478,79.2018068 184.806613,79.7282871 185.163,80.366 C185.53,81.013 185.698047,81.689 185.698047,82.421 C185.701432,83.1316935 185.516859,83.8306553 185.163,84.447 C184.816703,85.0753717 184.299372,85.5927033 183.671,85.939 C183.05418,86.2925872 182.354972,86.477134 181.644,86.4740393 L181.617,86.4740393 C180.906088,86.4766622 180.207,86.2921471 179.59,85.939 C178.962631,85.5920502 178.446108,85.0748339 178.1,84.447 C177.733,83.8 177.535966,83.125 177.535966,82.421 C177.533,81.689 177.73,81.014 178.098,80.366 Z" id="Shape" fill="#CFD6DE"></path>
            <path d="M180.32,82.871 L180.826,82.871 C181.137,82.871 181.361,82.928 181.502,83.068 C181.559,83.096 181.588,83.125 181.615,83.152 C181.84,83.349 182.094,83.744 182.404,84.279 L182.883,85.123 L183.897,85.123 L183.278,84.082 C182.967,83.603 182.686,83.237 182.489,83.04 C182.358213,82.9181021 182.205061,82.8226795 182.038,82.759 C182.489,82.731 182.854,82.562 183.136,82.28 C183.418,81.998 183.56,81.661 183.56,81.266 C183.56,80.985 183.474,80.731 183.306,80.506 C183.148453,80.2616856 182.908655,80.0818371 182.63,79.999 C182.405,79.915 182.068,79.858 181.616,79.858 C181.532,79.858 181.419,79.83 181.307,79.83 L179.477,79.83 L179.477,85.122 L180.321,85.122 L180.321,82.871 L180.32,82.871 Z M180.32,80.562 L181.615,80.562 C181.869,80.591 182.037,80.619 182.15,80.647 C182.303145,80.6905032 182.433778,80.7910733 182.515,80.928 C182.599,81.04 182.628,81.182 182.628,81.351 C182.634411,81.5674554 182.540706,81.7747861 182.374,81.913 C182.233,82.054 181.979,82.11 181.614,82.139 L180.319,82.139 L180.319,80.562 L180.32,80.562 Z M53.898,81.154 L61.499,81.154 L53.898,68.486 L47.479,57.818 L20.202,74.201 L24.368,81.154 L53.898,81.154 Z M124.611,81.154 L161.742,81.154 L138.629,42.645 L113.07,0.138 L102.541,6.472 L85.82,16.521 L102.541,44.362 L124.611,81.154 Z M111.635,93.85 C109.016,92.162 105.947,91.176 102.625,91.176 L102.541,91.176 C93.365,91.232 85.905,98.72 85.905,107.897 C85.905,117.075 93.365,124.562 102.541,124.619 L102.625,124.619 C105.947,124.619 109.016,123.634 111.635,121.945 L111.635,123.69 L119.319,123.69 L119.319,81.155 L111.635,81.155 L111.635,93.85 Z M111.635,109.643 C110.819,113.866 107.074,117.102 102.625,117.102 L102.541,117.102 C97.502,117.046 93.421,112.936 93.421,107.897 C93.421,102.859 97.502,98.749 102.541,98.72 L102.625,98.72 C107.074,98.72 110.818,101.93 111.635,106.152 L111.635,109.643 Z M147.723,93.85 C145.044161,92.1018517 141.913779,91.1726063 138.715,91.1759907 L138.629,91.1759907 C129.453,91.232 121.994,98.72 121.994,107.897 C121.994,117.075 129.453,124.562 138.629,124.619 L138.715,124.619 C142.037,124.619 145.133,123.634 147.723,121.945 L147.723,123.69 L155.409,123.69 L155.409,92.02 L147.723,92.02 L147.723,93.85 Z M147.723,109.643 C146.907,113.866 143.162,117.102 138.715,117.102 L138.629,117.102 C133.592,117.046 129.51,112.936 129.51,107.897 C129.51,102.859 133.592,98.749 138.629,98.72 L138.715,98.72 C143.162,98.72 146.906,101.93 147.723,106.152 L147.723,109.643 Z M182.742,105.814 C182.461,105.672 182.066,105.532 181.615,105.363 C179.898,104.772 177.111,104.04 173.226,103.196 C169.82,102.435 168.103,101.451 168.103,100.212 C168.103,99.339 168.412,98.635 169.003,98.129 C169.792,97.453 171.198,97.115 173.226,97.115 C175.281,97.115 176.773,97.566 177.646,98.438 C178.181,98.973 178.574,99.929 178.828,101.281 L186.992,101.281 C186.992,97.284 185.359,94.413 182.15,92.668 C181.98096,92.5576148 181.801824,92.463526 181.615,92.387 C179.39,91.345 176.435,90.81 172.748,90.81 C168.271,90.81 164.894,91.993 162.643,94.385 C160.842,96.299 159.969,98.635 159.969,101.394 C159.969,104.83 161.657,107.306 165.092,108.911 C166.387,109.53 169.539,110.403 174.551,111.473 C177.901,112.205 179.588,113.247 179.588,114.57 C179.588,115.359 179.252,116.034 178.52,116.653 C177.59,117.441 176.182,117.836 174.297,117.836 C171.791,117.836 170.018,117.414 168.977,116.598 C167.934,115.81 167.399,114.656 167.399,113.192 L158.842,113.192 C158.842,117.077 160.475,119.976 163.768,121.889 C166.387,123.381 169.821,124.142 174.073,124.142 C176.915,124.142 179.448,123.663 181.616,122.735 C182.067,122.538 182.462,122.34 182.884,122.115 C186.234,120.258 187.923,117.302 187.923,113.249 C187.922,109.924 186.203,107.446 182.742,105.814 Z M26.564,93.85 C23.8731797,92.1053041 20.734942,91.1766135 17.528,91.176 L17.443,91.176 C8.295,91.232 0.835,98.72 0.835,107.897 C0.835,117.075 8.295,124.562 17.443,124.619 L17.528,124.619 C20.85,124.619 23.946,123.634 26.564,121.945 L26.564,123.69 L34.249,123.69 L34.249,92.02 L26.564,92.02 L26.564,93.85 Z M26.564,109.643 C25.748,113.866 22.003,117.102 17.528,117.102 L17.443,117.102 C12.433,117.046 8.351,112.936 8.351,107.897 C8.351,102.859 12.433,98.749 17.443,98.72 L17.528,98.72 C22.004,98.72 25.748,101.93 26.564,106.152 L26.564,109.643 Z M74.532,88.671 L82.893,88.671 L82.893,81.323 L74.532,81.323 L74.532,88.671 Z M74.532,123.689 L82.893,123.689 L82.893,91.176 L74.532,91.176 L74.532,123.689 Z M63.019,93.85 C60.32787,92.1051714 57.1892741,91.1764776 53.982,91.176 L53.898,91.176 C44.721,91.232 37.261,98.72 37.261,107.897 C37.261,117.075 44.72,124.562 53.898,124.619 L53.982,124.619 C57.1893237,124.619 60.3280148,123.690143 63.019,121.945 L63.019,123.69 L70.704,123.69 L70.704,81.155 L63.019,81.155 L63.019,93.85 Z M63.019,109.643 C62.203,113.866 58.458,117.102 53.982,117.102 L53.898,117.102 C48.859,117.046 44.777,112.936 44.777,107.897 C44.777,102.859 48.859,98.749 53.898,98.72 L53.982,98.72 C58.458,98.72 62.202,101.93 63.019,106.152 L63.019,109.643 Z M111.605,81.154 L102.541,66.01 L80.275,28.964 L53.898,44.841 L52.997,45.375 L53.898,46.867 L74.503,81.154 L111.605,81.154 Z" id="Shape" fill="#5F6C7A"></path>
        </g>
    </g>
</svg>