<?xml version="1.0" encoding="UTF-8"?>
<svg width="305px" height="141px" viewBox="0 0 305 141" version="1.1" xmlns="http://www.w3.org/2000/svg" xmlns:xlink="http://www.w3.org/1999/xlink">
    <!-- Generator: Sketch 63.1 (92452) - https://sketch.com -->
    <title>brand.parmalat</title>
    <desc>Created with Sketch.</desc>
    <g id="Logos" stroke="none" stroke-width="1" fill="none" fill-rule="evenodd">
        <g id="brand.parmalat" fill="#5F6C7A" fill-rule="nonzero">
            <path d="M122,141 C61.2074119,136.175103 17.1018915,117.374278 17.1018915,94.9385926 C17.1018915,77.1632994 45.5661181,59.967274 87.670724,51 C36.4260529,57.7202053 0,74.0972057 0,94.9385926 C0,119.420091 52.8969941,138.800183 122,141 M183,141 C243.790845,136.175196 287.894623,117.374737 287.894623,94.9394882 C287.894623,77.1645407 259.432139,59.9670996 217.324047,51 C268.572204,57.7218247 305,74.0985067 305,94.9394882 C305,119.42051 252.09952,138.800226 183,141 M165,61.0025548 C165,67.0743981 159.17393,72 152.000862,72 C144.820896,72 139,67.0743981 139,61.0025548 C139,54.9238987 144.820896,50 152.000862,50 C159.17393,50 165,54.9238987 165,61.0025548 M158.912392,7.64979208 C156.673199,3.43952269 155.040922,0 152.512968,0 C149.99366,0 148.344092,3.43952269 146.10317,7.64979208 C143.855331,11.8635569 142,16.8393298 142,19.9170735 L142.025937,19.9170735 C142.025937,24.9347918 146.720461,29 152.512968,29 C158.298559,29 162.994813,24.9347918 162.994813,19.9170735 L163,19.9170735 C163,16.8393298 161.151585,11.8635569 158.912392,7.64979208 M101.27189,30.3885837 C95.8977737,29.9673113 91.6033645,29.4809643 90.326554,31.3407277 C89.0549764,33.1936411 91.6958112,36.0928855 94.8128336,39.8055622 C97.9263674,43.5131015 102.013208,47.3216777 105.116276,48.8252433 L105.131974,48.8064059 C110.190377,51.263828 116.659899,49.8047872 119.581562,45.5492513 C122.501481,41.2954279 120.769414,35.8514245 115.707524,33.3991398 L115.712756,33.3940023 C112.6062,31.8835868 106.649495,30.8047185 101.27189,30.3885837 M209.176229,39.793864 C212.297872,36.0910963 214.948652,33.2052667 213.672092,31.3436069 C212.393788,29.4870851 208.091502,29.9649168 202.716696,30.3810928 C197.338403,30.7921309 191.375891,31.8659677 188.273432,33.3765326 L188.289127,33.3953718 C183.231718,35.8547494 181.5,41.2941529 184.415849,45.5535346 C187.338683,49.8077783 193.806936,51.2635381 198.866089,48.8041604 L198.866089,48.8092984 C201.972036,47.3055842 206.059818,43.5017697 209.176229,39.793864 M178.08029,45.5403271 C180.264995,42.3356391 181.830788,36.1875148 182.440883,30.6350445 C183.045688,25.0895409 183.752764,20.655228 181.054944,19.3385192 C178.369468,18.0218105 174.164043,20.752762 168.78251,23.9661584 C163.404503,27.1812965 157.881908,31.4013829 155.702493,34.606071 L155.727179,34.6217461 C152.170641,39.8415558 154.281289,46.520892 160.454535,49.5357371 C166.622491,52.5505822 174.516699,50.7601369 178.075,45.5403271 L178.08029,45.5403271 M149.273128,34.6207671 C147.088473,31.4165705 141.576584,27.1971311 136.200465,23.9772617 C130.82611,20.7591338 126.64723,18.0181525 123.945947,19.3398836 C121.258769,20.6511663 121.948196,25.0952477 122.551224,30.6451253 C123.150725,36.1967443 124.705903,42.3491501 126.895847,45.5533468 L126.922296,45.5376741 C130.487567,50.7619078 138.37454,52.5485957 144.545881,49.5376957 C150.715458,46.5233129 152.833109,39.8450008 149.269601,34.6259914 L149.267838,34.6207671 L149.273128,34.6207671 M123.163814,51 C118.81081,51 111.773365,52.9391671 105.816715,55.284736 C99.8653287,57.630305 95,59.3329883 95,61.986862 C95,64.6249701 99.8653287,66.3539295 105.820224,68.7047536 C111.773365,71.0503225 118.81081,73 123.163814,73 L123.163814,72.9684688 C130.25214,72.9684688 136,68.0531093 136,61.986862 C136,55.9206147 130.25214,51.0052552 123.163814,51.0052552 L123.163814,51 M181.840245,73 C186.188171,73 193.231181,71.0608329 199.184577,68.715264 C205.136218,66.369695 210,64.66526 210,62.013138 C210,59.3750299 205.136218,57.6460705 199.184577,55.2952464 C193.231181,52.9496775 186.188171,51 181.840245,51 L181.840245,51.0297794 C174.746352,51.0297794 169,55.9468907 169,62.013138 C169,68.0741301 174.746352,72.9947448 181.840245,72.9947448 L181.840245,73" id="Shape"></path>
            <path d="M66.6336673,94.1423798 C66.6336673,89.3128183 64.6859682,84.3043841 59.3236543,84.3043841 C53.8402672,84.3043841 52.0715458,89.1953235 52.0715458,94.1423798 C52.0715458,99.0911898 53.9595857,103.801503 59.3815588,103.801503 C64.8614366,103.801503 66.6336673,99.0911898 66.6336673,94.1423798 Z M44,118.639165 C44,117.273069 44,81.5353653 44,80.1780376 C44,78.8224635 45.3616347,78.8277244 45.3616347,78.8277244 L50.6011207,78.8277244 C50.599366,78.8277244 51.9574914,78.8277244 51.9574914,80.1780376 C51.9574914,81.354739 51.9574914,82.5928183 51.9574914,82.6541962 C51.9574914,82.7173277 52.0136413,82.7173277 52.0136413,82.7173277 C52.0610177,82.7173277 52.1013754,82.6699791 52.1171676,82.6454279 C54.1227713,79.4537787 57.4040301,78 61.1502802,78 C70.7010245,78 75,85.7178288 75,94.3791231 C75,102.507307 70.5220468,110.105887 61.6222901,110.105887 C57.9690383,110.105887 54.5281032,108.548643 52.5224996,105.542881 C52.5224996,105.542881 52.5084621,105.513069 52.4575763,105.513069 C52.4277466,105.513069 52.4277466,105.513069 52.4277466,105.513069 C52.425992,105.513069 52.3680874,105.507808 52.3680874,105.579708 C52.3680874,106.719582 52.3680874,117.360751 52.3680874,118.644426 C52.3680874,120 51.0082074,120 51.0082074,120 L45.3616347,120 C45.3616347,120 44,120.005261 44,118.639165 Z M95.0423439,94.3810356 C95.0423439,94.309373 95.0024466,94.361809 94.9798959,94.375792 C93.5592036,95.5590998 90.6952681,95.6202753 88.1661235,96.0869565 C85.6057548,96.6148132 83.2726275,97.4957396 83.2726275,100.54752 C83.2726275,103.660476 85.6647335,104.422548 88.3430595,104.422548 C94.8116332,104.422548 95.0423439,99.2558444 95.0423439,97.4328163 C95.0423439,97.4328163 95.0423439,94.4526983 95.0423439,94.3810356 Z M83.1147728,88.1603671 C81.3696977,88.1603671 78.1883182,88.1603671 77.2741486,88.1603671 C75.9419242,88.1603671 76.0095763,87.2374918 76.0859016,86.8075158 C77.2342513,80.079965 83.739253,78 90.091604,78 C96.0935522,78 103.320175,79.3528512 103.320175,86.6344767 L103.320175,102.42648 C103.320175,104.419052 103.469357,106.409875 103.840576,107.829146 C103.981084,108.376229 104.36271,109.175005 103.025282,109.175005 C101.08072,109.175005 97.6599566,109.175005 96.9643551,109.175005 C95.9721255,109.175005 95.7171295,108.283592 95.6165188,107.823902 C95.5089694,107.322263 95.432644,106.810138 95.3979507,106.298012 C95.3979507,106.235088 95.3563187,106.282281 95.3355027,106.303255 C92.7144207,109.015949 88.898153,110 85.255352,110 C79.5465625,110 75,107.121258 75,100.90059 C75,94.0279659 80.127676,92.3849683 85.255352,91.6823247 C90.325784,90.9202534 95.0423439,91.0950404 95.0423439,87.6884422 C95.0423439,84.1088049 92.5964633,83.5826961 89.6839572,83.5826961 C87.0108352,83.5826961 85.1373947,84.5090671 84.4556705,86.8075158 C84.3325091,87.2130216 84.1972051,88.1603671 83.1147728,88.1603671 Z M196.045524,94.3810356 C196.045524,94.309373 196.003889,94.361809 195.984807,94.375792 C194.560542,95.5590998 191.694665,95.6202753 189.168808,96.0869565 C186.601315,96.6148132 184.274959,97.4957396 184.274959,100.54752 C184.274959,103.660476 186.663768,104.422548 189.345757,104.422548 C195.811327,104.422548 196.045524,99.2558444 196.045524,97.4328163 C196.045524,97.4328163 196.045524,94.4526983 196.045524,94.3810356 Z M184.117093,88.1603671 C182.368422,88.1603671 179.186813,88.1603671 178.272578,88.1603671 C176.940257,88.1603671 177.011384,87.2374918 177.087715,86.8075158 C178.230943,80.079965 184.741618,78 191.089223,78 C197.091604,78 204.318749,79.3528512 204.318749,86.6344767 L204.318749,102.42648 C204.318749,104.419052 204.47141,106.409875 204.837451,107.829146 C204.979704,108.376229 205.366563,109.175005 204.025569,109.175005 C202.082601,109.175005 198.658121,109.175005 197.965939,109.175005 C196.970169,109.175005 196.716889,108.283592 196.619741,107.823902 C196.512183,107.322263 196.432383,106.810138 196.401157,106.298012 C196.401157,106.235088 196.356052,106.282281 196.340439,106.303255 C193.717433,109.015949 189.895686,110 186.256092,110 C180.543421,110 176,107.121258 176,100.90059 C176,94.0279659 181.122841,92.3849683 186.256092,91.6823247 C191.32342,90.9202534 196.045524,91.0950404 196.045524,87.6884422 C196.045524,84.1088049 193.595998,83.5826961 190.683282,83.5826961 C188.015171,83.5826961 186.134656,84.5090671 185.452883,86.8075158 C185.331447,87.2130216 185.199603,88.1603671 184.117093,88.1603671 Z M238.045613,94.3810356 C238.045613,94.309373 238.003978,94.361809 237.979691,94.375792 C236.560624,95.5590998 233.694735,95.6202753 231.163662,96.0869565 C228.601362,96.6148132 226.273261,97.4957396 226.273261,100.54752 C226.273261,103.660476 228.663815,104.422548 231.340611,104.422548 C237.811415,104.422548 238.045613,99.2558444 238.045613,97.4328163 C238.045613,97.4328163 238.045613,94.4526983 238.045613,94.3810356 Z M226.111924,88.1603671 C224.36845,88.1603671 221.181623,88.1603671 220.272588,88.1603671 C218.935057,88.1603671 219.006184,87.2374918 219.082515,86.8075158 C220.230953,80.079965 226.736452,78 233.08929,78 C239.091697,78 246.318874,79.3528512 246.318874,86.6344767 L246.318874,102.42648 C246.318874,104.419052 246.471536,106.409875 246.837579,107.829146 C246.979832,108.376229 247.366693,109.175005 246.023958,109.175005 C244.077512,109.175005 240.656487,109.175005 239.960832,109.175005 C238.970261,109.175005 238.715246,108.283592 238.614627,107.823902 C238.50707,107.322263 238.430739,106.810138 238.396043,106.298012 C238.396043,106.235088 238.354407,106.282281 238.335325,106.303255 C235.717511,109.015949 231.895747,110 228.256137,110 C222.543441,110 218,107.121258 218,100.90059 C218,94.0279659 223.122864,92.3849683 228.256137,91.6823247 C233.318283,90.9202534 238.045613,91.0950404 238.045613,87.6884422 C238.045613,84.1088049 235.594341,83.5826961 232.678142,83.5826961 C230.01002,83.5826961 228.134701,84.5090671 227.452925,86.8075158 C227.331489,87.2130216 227.199644,88.1603671 226.111924,88.1603671 Z M107,107.656481 C107,101.978246 107,81.3301189 107,80.163882 C107,78.8151491 108.306186,78.8203633 108.306186,78.8203633 L113.386555,78.8203633 C113.386555,78.8203633 114.702932,78.8151491 114.702932,80.163882 C114.702932,81.3909509 114.702932,84.2882933 114.702932,84.3647679 C114.702932,84.4169096 114.755587,84.427338 114.755587,84.427338 C114.798051,84.427338 114.833721,84.3804104 114.840515,84.3595537 C116.345432,80.5966584 120.316646,78 124.230109,78 C124.372787,78 124.52226,78.0104283 124.676828,78.0208567 C125.133739,78.0660462 126,78.2850415 126,79.3748038 C126,80.4593519 126,83.707782 126,84.6550235 C126,86.0054945 125.176202,85.8421171 124.681924,85.7969276 C124.153674,85.7395717 123.591454,85.7100247 123.090381,85.7100247 C117.15734,85.7100247 115.102092,90.0881924 115.102092,95.3996972 C115.102092,95.3996972 115.102092,106.311224 115.102092,107.656481 C115.102092,109 113.787413,109 113.787413,109 L108.314679,109 C108.314679,109 107,109 107,107.656481 Z M128,107.656479 C128,106.500671 128,81.5039244 128,80.1586677 C128,78.8151491 129.345496,78.8203632 129.345496,78.8203632 L134.462194,78.8203632 C134.462194,78.8203632 135.804222,78.8151491 135.804222,80.1638819 C135.804222,81.2849291 135.804222,82.7918252 135.804222,82.847443 C135.804222,82.908275 135.857972,82.908275 135.857972,82.908275 C135.92386,82.908275 135.951602,82.8578713 135.970675,82.8318005 C138.124161,79.7832472 141.250358,78 145.120392,78 C148.905466,78 152.283076,79.4060887 153.914663,83.0212488 C155.66242,80.3985197 158.802488,78 162.998492,78 C169.408669,78 174,80.9790309 174,88.8002907 C174,88.8002907 174,106.311222 174,107.656479 C174,109.005212 172.659706,109 172.659706,109 L167.076593,109 C167.076593,109 165.736299,109.010426 165.736299,107.656479 C165.736299,106.306008 165.736299,91.8957715 165.736299,91.8957715 C165.736299,87.8686918 165.386054,84.5437873 160.671617,84.5437873 C156.007463,84.5437873 155.133585,88.3935852 155.133585,92.1860272 C155.133585,92.1860272 155.133585,106.300794 155.133585,107.656479 C155.133585,109.010426 153.793291,109 153.793291,109 L148.206709,109 C148.206709,109 146.866415,109.010426 146.866415,107.656479 C146.866415,106.306008 146.866415,92.0695773 146.866415,92.0695773 C146.866415,88.5656529 147.10049,84.5437873 141.858952,84.5437873 C140.229099,84.5437873 136.270637,85.5918361 136.270637,91.489066 C136.270637,91.489066 136.270637,106.316436 136.270637,107.656479 C136.270637,108.994783 134.928609,109 134.928609,109 L129.340294,109 C129.340294,109 128,109.010426 128,107.656479 Z M208,107.665176 C208,106.328625 208,71.3365508 208,71.3365508 C208,71.3365508 208,70 209.296436,70 C210.12327,70 212.997904,70 214.701887,70 C215.994969,70 216,71.3365508 216,71.3365508 C216,71.3365508 216,106.328625 216,107.665176 C216,109 214.701887,109 214.701887,109 L209.296436,109 C209.296436,109 208,109.00518 208,107.665176 Z M260.049505,71.3623596 L260.049505,77.8037219 C260.049505,77.8037219 260.049505,79.1608146 261.366725,79.1608146 C261.995514,79.1608146 263.358742,79.1608146 264.681074,79.1608146 C266,79.1608146 266,80.5126404 266,80.5126404 C266,80.5126404 266,82.0400281 266,83.4041433 C266,84.7717697 264.681074,84.761236 264.681074,84.761236 L261.366725,84.761236 C261.366725,84.761236 260.049505,84.7665028 260.049505,86.1200843 C260.049505,87.477177 260.049505,99.8577949 260.049505,99.8577949 C260.049505,102.686096 260.737936,103.397121 263.483137,103.397121 C263.89381,103.397121 264.287442,103.38132 264.681074,103.349719 C265.89946,103.247893 266,103.18118 266,104.708567 C266,106.235955 266,107.326194 266,108.514747 C266,108.514747 266.010222,109.748947 264.681074,109.87184 C263.588787,109.980688 262.375514,110 261.247442,110 C256.269954,110 251.921255,108.82198 251.921255,102.749298 L251.921255,86.1200843 C251.921255,86.1200843 251.921255,84.761236 250.604035,84.761236 C249.276592,84.761236 248.31722,84.761236 248.31722,84.761236 C248.31722,84.761236 247,84.7717697 247,83.4041433 C247,82.0400281 247,80.5126404 247,80.5126404 C247,80.5126404 247,79.1608146 248.31722,79.1608146 C249.625919,79.1608146 250.014439,79.1608146 250.604035,79.1608146 C251.921255,79.1608146 251.921255,77.8037219 251.921255,77.8037219 L251.921255,71.3623596 C251.921255,71.3623596 251.921255,70 253.240179,70 C254.557398,70 257.403138,70 258.730582,70 C260.054617,70 260.049505,71.3623596 260.049505,71.3623596 Z" id="Shape"></path>
        </g>
    </g>
</svg>