<?xml version="1.0" encoding="UTF-8"?>
<svg width="23px" height="25px" viewBox="0 0 23 25" version="1.1" xmlns="http://www.w3.org/2000/svg" xmlns:xlink="http://www.w3.org/1999/xlink">
    <title>icon_instagram</title>
    <g id="Logos" stroke="none" stroke-width="1" fill="none" fill-rule="evenodd">
        <g id="icon_instagram" transform="translate(0.000000, 0.500000)" fill="#FFFFFF" fill-rule="nonzero">
            <path d="M11.5025655,5.80844763 C8.23920803,5.80844763 5.60697156,8.44127146 5.60697156,11.7053571 C5.60697156,14.9694428 8.23920803,17.6022667 11.5025655,17.6022667 C14.765923,17.6022667 17.3981595,14.9694428 17.3981595,11.7053571 C17.3981595,8.44127146 14.765923,5.80844763 11.5025655,5.80844763 Z M11.5025655,15.5391182 C9.39369771,15.5391182 7.66965979,13.8198277 7.66965979,11.7053571 C7.66965979,9.59088654 9.38856665,7.87159613 11.5025655,7.87159613 C13.6165644,7.87159613 15.3354713,9.59088654 15.3354713,11.7053571 C15.3354713,13.8198277 13.6114334,15.5391182 11.5025655,15.5391182 L11.5025655,15.5391182 Z M19.0144451,5.56723375 C19.0144451,6.33193307 18.3987172,6.94266608 17.6393196,6.94266608 C16.8747909,6.94266608 16.2641941,6.32680086 16.2641941,5.56723375 C16.2641941,4.80766664 16.8799219,4.19180141 17.6393196,4.19180141 C18.3987172,4.19180141 19.0144451,4.80766664 19.0144451,5.56723375 Z M22.9191857,6.96319492 C22.8319576,5.12073146 22.4112103,3.48868862 21.0617401,2.14404954 C19.717401,0.799410473 18.0857223,0.378569237 16.2436698,0.286189453 C14.3451757,0.178413039 8.65482432,0.178413039 6.75633017,0.286189453 C4.91940881,0.373437027 3.28773006,0.794278263 1.9382599,2.13891733 C0.588789738,3.48355641 0.173173452,5.11559925 0.0808142777,6.95806271 C-0.0269380926,8.85698048 -0.0269380926,14.5486016 0.0808142777,16.4475194 C0.168042387,18.2899828 0.588789738,19.9220257 1.9382599,21.2666647 C3.28773006,22.6113038 4.91427775,23.032145 6.75633017,23.1245248 C8.65482432,23.2323012 14.3451757,23.2323012 16.2436698,23.1245248 C18.0857223,23.0372773 19.717401,22.616436 21.0617401,21.2666647 C22.4060792,19.9220257 22.8268265,18.2899828 22.9191857,16.4475194 C23.0269381,14.5486016 23.0269381,8.86211269 22.9191857,6.96319492 Z M20.4665365,18.4850068 C20.0663134,19.49092 19.2915226,20.2658838 18.2807027,20.6713284 C16.7670385,21.271797 13.1752928,21.1332273 11.5025655,21.1332273 C9.82983826,21.1332273 6.23296152,21.2666647 4.72442833,20.6713284 C3.71873954,20.271016 2.94394869,19.4960522 2.53859453,18.4850068 C1.9382599,16.9710048 2.07679866,13.3784577 2.07679866,11.7053571 C2.07679866,10.0322566 1.94339096,6.43457727 2.53859453,4.92570747 C2.93881762,3.91979427 3.71360848,3.14483053 4.72442833,2.73938593 C6.23809258,2.13891733 9.82983826,2.27748701 11.5025655,2.27748701 C13.1752928,2.27748701 16.7721695,2.14404954 18.2807027,2.73938593 C19.2863915,3.13969832 20.0611824,3.91466206 20.4665365,4.92570747 C21.0668712,6.43970948 20.9283324,10.0322566 20.9283324,11.7053571 C20.9283324,13.3784577 21.0668712,16.976137 20.4665365,18.4850068 Z" id="Shape"></path>
        </g>
    </g>
</svg>