<?xml version="1.0" encoding="UTF-8"?>
<svg width="17px" height="23px" viewBox="0 0 17 23" version="1.1" xmlns="http://www.w3.org/2000/svg" xmlns:xlink="http://www.w3.org/1999/xlink">
    <title>icon_foursquare</title>
    <g id="Logos" stroke="none" stroke-width="1" fill="none" fill-rule="evenodd">
        <g id="icon_foursquare" fill="#FFFFFF" fill-rule="nonzero">
            <path d="M14.5262954,0 L2.24346067,0 C0.557493232,0 0,1.27141181 0,2.07109839 L0,21.5600894 C0,22.4720915 0.544005492,22.8045454 0.818256195,22.9123684 C1.09700281,23.0246839 1.84332439,23.1190289 2.29741162,22.5933922 C8.09264368,15.8814161 8.19155377,15.7691006 8.19155377,15.7691006 C8.33092708,15.6163514 8.34441482,15.6298293 8.49727587,15.6298293 L12.2468674,15.6298293 C13.824933,15.6298293 14.0722082,14.4976888 14.238557,13.8462587 L16.4235708,2.92918905 C16.8057234,1.02431764 16.3246607,0 14.5262954,0 Z M13.7934616,3.31555448 L13.2809275,5.99764936 C13.2269765,6.28966974 12.8538157,6.59067537 12.5211181,6.59067537 L7.73746655,6.59067537 C7.19795697,6.59067537 6.81130843,6.96356293 6.81130843,7.50267748 L6.81130843,8.08671824 C6.81130843,8.62583279 7.19795697,9.01219822 7.73746655,9.01219822 L11.801772,9.01219822 C12.1749328,9.01219822 12.5480936,9.42551937 12.4671672,9.82985529 C12.3862408,10.2296986 11.9950963,12.2468855 11.9546331,12.4715166 C11.9141699,12.691655 11.648911,13.0780204 11.1948238,13.0780204 L7.89032759,13.0780204 C7.28337932,13.0780204 7.11703053,13.1588876 6.69891061,13.6440907 C6.69891061,13.6440907 6.29877433,14.1562495 2.67506833,18.5095995 C2.63460511,18.5500331 2.59414189,18.5365553 2.59414189,18.4961217 L2.59414189,3.27512089 C2.59414189,2.92918905 2.89986399,2.52934576 3.34046348,2.52934576 L13.1865133,2.52934576 C13.5551782,2.52934576 13.8878757,2.8752776 13.7934616,3.31555448 L13.7934616,3.31555448 Z" id="Shape"></path>
        </g>
    </g>
</svg>