<?xml version="1.0" encoding="UTF-8"?>
<svg width="23px" height="23px" viewBox="0 0 23 23" version="1.1" xmlns="http://www.w3.org/2000/svg" xmlns:xlink="http://www.w3.org/1999/xlink">
    <title>icon_spotify</title>
    <g id="Logos" stroke="none" stroke-width="1" fill="none" fill-rule="evenodd">
        <g id="icon_spotify" fill="#FFFFFF" fill-rule="nonzero">
            <path d="M11.5,0 C5.15181452,0 0,5.15181452 0,11.5 C0,17.8481855 5.15181452,23 11.5,23 C17.8481855,23 23,17.8481855 23,11.5 C23,5.15181452 17.8481855,0 11.5,0 Z M16.1695565,16.9207661 C15.9747984,16.9207661 15.8542339,16.8604839 15.6733871,16.7538306 C12.7798387,15.0102823 9.41330645,14.9360887 6.08850806,15.6177419 C5.90766129,15.6641129 5.67116935,15.7383065 5.53669355,15.7383065 C5.08689516,15.7383065 4.80403226,15.38125 4.80403226,15.0056452 C4.80403226,14.5280242 5.08689516,14.3008065 5.43467742,14.2266129 C9.23245968,13.3872984 13.1137097,13.4614919 16.4245968,15.4415323 C16.7074597,15.622379 16.8743952,15.7846774 16.8743952,16.2066532 C16.8743952,16.628629 16.5451613,16.9207661 16.1695565,16.9207661 L16.1695565,16.9207661 Z M17.4169355,13.8788306 C17.1758065,13.8788306 17.0135081,13.7721774 16.8465726,13.6840726 C13.9483871,11.9683468 9.6266129,11.2774194 5.78245968,12.3207661 C5.55987903,12.3810484 5.43931452,12.4413306 5.23064516,12.4413306 C4.73447581,12.4413306 4.33104839,12.0379032 4.33104839,11.5417339 C4.33104839,11.0455645 4.57217742,10.7163306 5.04979839,10.5818548 C6.33891129,10.2201613 7.65584677,9.95120968 9.58487903,9.95120968 C12.5943548,9.95120968 15.5018145,10.6977823 17.7925403,12.0610887 C18.1681452,12.2836694 18.3165323,12.5711694 18.3165323,12.9745968 C18.3118952,13.4754032 17.922379,13.8788306 17.4169355,13.8788306 L17.4169355,13.8788306 Z M18.8544355,10.3453629 C18.6133065,10.3453629 18.4649194,10.2850806 18.25625,10.1645161 C14.9546371,8.19375 9.0516129,7.72076613 5.23064516,8.78729839 C5.06370968,8.83366935 4.85504032,8.9078629 4.63245968,8.9078629 C4.0203629,8.9078629 3.55201613,8.43024194 3.55201613,7.81350806 C3.55201613,7.1828629 3.94153226,6.82580645 4.35887097,6.70524194 C5.99112903,6.22762097 7.81814516,6.00040323 9.80745968,6.00040323 C13.1925403,6.00040323 16.7399194,6.70524194 19.3320565,8.21693548 C19.69375,8.42560484 19.9302419,8.71310484 19.9302419,9.26491935 C19.9302419,9.89556452 19.4201613,10.3453629 18.8544355,10.3453629 L18.8544355,10.3453629 Z" id="Shape"></path>
        </g>
    </g>
</svg>