<?xml version="1.0" encoding="UTF-8"?>
<svg width="24px" height="16px" viewBox="0 0 24 16" version="1.1" xmlns="http://www.w3.org/2000/svg" xmlns:xlink="http://www.w3.org/1999/xlink">
    <!-- Generator: Sketch 63.1 (92452) - https://sketch.com -->
    <title>icon_email</title>
    <desc>Created with Sketch.</desc>
    <defs>
        <path d="M22,4 C23.1045695,4 24,4.8954305 24,6 L24,18 C24,19.1045695 23.1045695,20 22,20 L2,20 C0.8954305,20 1.3527075e-16,19.1045695 0,18 L0,6 C-1.3527075e-16,4.8954305 0.8954305,4 2,4 L22,4 Z M2,7.403 L2,17 C2,17.5522847 2.44771525,18 3,18 L3,18 L21,18 C21.5522847,18 22,17.5522847 22,17 L22,17 L22,7.435 L12.2869565,13.5483501 L2,7.403 Z M21,6 L3.004,6 L12.2593946,11.5423336 L21.082,6.004 L21,6 Z" id="path-1"></path>
    </defs>
    <g id="Current" stroke="none" stroke-width="1" fill="none" fill-rule="evenodd">
        <g id="icon_email" transform="translate(0.000000, -4.000000)">
            <rect id="Rectangle" fill-opacity="0" fill="#000000" x="0" y="0" width="24" height="24"></rect>
            <mask id="mask-2" fill="white">
                <use xlink:href="#path-1"></use>
            </mask>
            <use id="Mask-Copy" fill="#FFFFFF" fill-rule="nonzero" xlink:href="#path-1"></use>
        </g>
    </g>
</svg>