<?xml version="1.0" encoding="UTF-8"?>
<svg width="23px" height="18px" viewBox="0 0 23 18" version="1.1" xmlns="http://www.w3.org/2000/svg" xmlns:xlink="http://www.w3.org/1999/xlink">
    <!-- Generator: Sketch 63.1 (92452) - https://sketch.com -->
    <title>icon_mail</title>
    <desc>Created with Sketch.</desc>
    <g id="Logos" stroke="none" stroke-width="1" fill="none" fill-rule="evenodd">
        <g id="icon_mail" fill="#FFFFFF" fill-rule="nonzero">
            <path d="M22.5527778,5.94166667 L22.5527778,15.7166667 C22.5527778,16.2277778 22.3611111,16.7388889 21.9777778,17.1222222 C21.5944444,17.5055556 21.0833333,17.6972222 20.5722222,17.6972222 L2.42777778,17.6972222 C1.91666667,17.6972222 1.40555556,17.5055556 1.02222222,17.1222222 C0.638888889,16.7388889 0.447222222,16.2277778 0.447222222,15.7166667 L0.447222222,5.94166667 C0.766666667,6.325 1.21388889,6.64444444 1.725,7.02777778 C4.72777778,9.00833333 6.77222222,10.4777778 7.85833333,11.3083333 C8.30555556,11.6277778 8.75277778,11.8833333 9.00833333,12.075 C9.26388889,12.2666667 9.64722222,12.4583333 10.2222222,12.65 C10.6694444,12.8416667 11.1805556,12.9694444 11.5638889,12.9694444 L11.5638889,12.9694444 C11.9472222,12.9694444 12.4583333,12.8416667 12.9055556,12.65 C13.3527778,12.4583333 13.8,12.2666667 14.1194444,12.075 C14.375,11.8833333 14.7583333,11.6277778 15.2694444,11.3083333 C16.675,10.2861111 18.7194444,8.88055556 21.4027778,7.02777778 C21.7861111,6.70833333 22.1694444,6.325 22.5527778,5.94166667 L22.5527778,5.94166667 Z M22.5527778,2.3 C22.5527778,2.93888889 22.3611111,3.57777778 21.9777778,4.15277778 C21.5944444,4.72777778 21.0194444,5.30277778 20.4444444,5.68611111 C17.3138889,7.79444444 15.3972222,9.13611111 14.6944444,9.64722222 C14.6305556,9.71111111 14.4388889,9.83888889 14.1833333,10.0305556 C13.9277778,10.2222222 13.7361111,10.35 13.5444444,10.4777778 C13.3527778,10.6055556 13.1611111,10.7333333 12.9055556,10.8611111 C12.65,10.9888889 12.4583333,11.1166667 12.2027778,11.1805556 C11.9472222,11.2444444 11.8194444,11.3083333 11.6277778,11.3083333 L11.6277778,11.3083333 C11.4361111,11.3083333 11.2444444,11.2444444 11.0527778,11.1805556 C10.8611111,11.1166667 10.6055556,10.9888889 10.35,10.8611111 C10.0944444,10.7333333 9.90277778,10.6055556 9.71111111,10.4777778 C9.51944444,10.35 9.32777778,10.2222222 9.07222222,10.0305556 C8.81666667,9.83888889 8.625,9.71111111 8.56111111,9.64722222 C7.85833333,9.13611111 6.77222222,8.36944444 5.30277778,7.41111111 C3.83333333,6.38888889 3.19444444,5.87777778 2.93888889,5.68611111 C2.42777778,5.36666667 1.91666667,4.91944444 1.46944444,4.28055556 C1.02222222,3.64166667 0.830555556,3.06666667 0.830555556,2.61944444 C0.830555556,1.98055556 1.02222222,1.40555556 1.34166667,1.02222222 C1.66111111,0.638888889 2.10833333,0.383333333 2.81111111,0.383333333 L20.9555556,0.383333333 C21.4666667,0.383333333 21.9777778,0.575 22.3611111,0.958333333 C22.425,1.34166667 22.5527778,1.78888889 22.5527778,2.3 L22.5527778,2.3 Z" id="Shape"></path>
        </g>
    </g>
</svg>