<?xml version="1.0" encoding="UTF-8"?>
<svg width="23px" height="23px" viewBox="0 0 23 23" version="1.1" xmlns="http://www.w3.org/2000/svg" xmlns:xlink="http://www.w3.org/1999/xlink">
    <!-- Generator: Sketch 41.2 (35397) - http://www.bohemiancoding.com/sketch -->
    <title>icon-linkedin</title>
    <desc>Created with Sketch.</desc>
    <defs></defs>
    <g id="Landing-2017" stroke="none" stroke-width="1" fill="none" fill-rule="evenodd">
        <g id="MBP-13inch" transform="translate(-1056.000000, -36.000000)" fill="#FFFFFF">
            <path d="M1075.42468,55.3071121 L1071.96832,55.3071121 L1071.96832,49.7421695 C1071.96832,48.3443247 1071.46771,47.3909483 1070.21701,47.3909483 C1069.26205,47.3909483 1068.6937,48.0336925 1068.44422,48.6549569 C1068.3517,48.8763649 1068.33022,49.1869971 1068.33022,49.4992816 L1068.33022,55.3071121 L1064.87221,55.3071121 C1064.87221,55.3071121 1064.91847,45.8823994 1064.87221,44.9058908 L1068.33022,44.9058908 L1068.33022,46.3797414 C1068.78787,45.6709052 1069.60901,44.6613506 1071.44458,44.6613506 C1073.71963,44.6613506 1075.42468,46.1484195 1075.42468,49.3423132 L1075.42468,55.3071121 Z M1061.23245,43.4849138 L1061.20932,43.4849138 C1060.04784,43.4849138 1059.29775,42.6868534 1059.29775,41.6888649 C1059.29775,40.6677443 1060.07097,39.8911638 1061.25393,39.8911638 C1062.43689,39.8911638 1063.16551,40.6677443 1063.18698,41.6888649 C1063.18698,42.6868534 1062.43689,43.4849138 1061.23245,43.4849138 L1061.23245,43.4849138 Z M1062.95898,55.3071121 L1059.50262,55.3071121 L1059.50262,44.9058908 L1062.95898,44.9058908 L1062.95898,55.3071121 Z M1075.52712,36 L1059.47288,36 C1057.5547,36 1056,37.5564655 1056,39.4731322 L1056,55.5268678 C1056,57.4451868 1057.5547,59 1059.47288,59 L1075.52712,59 C1077.4453,59 1079,57.4451868 1079,55.5268678 L1079,39.4747845 C1079,37.5564655 1077.4453,36 1075.52712,36 L1075.52712,36 Z" id="icon-linkedin"></path>
        </g>
    </g>
</svg>