<?xml version="1.0" encoding="UTF-8"?>
<svg width="23px" height="23px" viewBox="0 0 23 23" version="1.1" xmlns="http://www.w3.org/2000/svg" xmlns:xlink="http://www.w3.org/1999/xlink">
    <!-- Generator: Sketch 41.2 (35397) - http://www.bohemiancoding.com/sketch -->
    <title>icon-dribbble</title>
    <desc>Created with Sketch.</desc>
    <defs></defs>
    <g id="Landing-2017" stroke="none" stroke-width="1" fill="none" fill-rule="evenodd">
        <g id="MBP-13inch" transform="translate(-1015.000000, -36.000000)" fill="#FFFFFF">
            <path d="M1031.98733,55.6460718 C1031.88751,55.0524707 1031.36217,52.1694988 1030.07749,48.6307856 C1033.24747,48.1222183 1035.9936,48.9938144 1036.19653,49.059225 C1035.75957,51.7966584 1034.1934,54.1563455 1031.98733,55.6460718 M1026.5,57.3222183 C1024.12374,57.3222183 1021.94386,56.4767863 1020.24349,55.0704586 C1020.37278,55.1751155 1020.46442,55.2421614 1020.46442,55.2421614 C1020.46442,55.2421614 1022.34481,51.1360114 1028.17091,49.1066477 C1028.19382,49.1001066 1028.2151,49.0919303 1028.23637,49.0870245 C1029.61762,52.6780661 1030.19041,55.6836829 1030.33279,56.5438322 C1029.15611,57.0442232 1027.85997,57.3222183 1026.5,57.3222183 M1016.67746,47.4991824 C1016.67746,47.3945254 1016.68237,47.2915037 1016.68564,47.1901173 C1016.85911,47.1933878 1021.71311,47.3029506 1026.77003,45.7903306 C1027.05152,46.3397796 1027.31991,46.9006754 1027.56703,47.459936 C1027.43447,47.4959118 1027.30845,47.5351582 1027.17917,47.5776751 C1021.88003,49.2897974 1019.19119,54.0582296 1019.19119,54.0582296 C1019.19119,54.0582296 1019.19446,54.0615002 1019.19446,54.0631354 C1017.62993,52.3232137 1016.67746,50.022396 1016.67746,47.4991824 M1022.30881,38.618059 C1022.43973,38.7930323 1024.2563,41.2557412 1025.95503,44.2760754 C1021.24015,45.5303235 1017.14551,45.4796303 1016.88857,45.4763598 C1017.52683,42.4331319 1019.56923,39.9115535 1022.30881,38.618059 M1024.14665,37.9639531 C1024.14665,37.9655883 1024.14501,37.9672236 1024.14501,37.9672236 C1024.14501,37.9672236 1024.13356,37.9688589 1024.11392,37.9721294 C1024.12537,37.9704941 1024.13519,37.9688589 1024.14665,37.9639531 M1032.98726,40.130679 C1032.96272,40.1682901 1031.56347,42.2974049 1027.85506,43.6857448 C1026.1776,40.6016353 1024.33158,38.1503733 1024.18429,37.957412 C1024.92728,37.7775329 1025.703,37.679417 1026.5,37.679417 C1028.98591,37.679417 1031.2558,38.6066122 1032.98726,40.130679 M1036.31763,47.4027017 C1036.17525,47.3716317 1032.85143,46.6553857 1029.47687,47.0805546 C1029.40814,46.9121223 1029.33941,46.74369 1029.26576,46.5736225 C1029.06119,46.0928546 1028.84026,45.6169925 1028.61278,45.1476715 C1032.48975,43.5647352 1034.06411,41.2884465 1034.08211,41.2622823 C1035.46336,42.9351582 1036.29308,45.0724493 1036.31763,47.4027017 M1037.76434,45.1852826 C1037.61378,44.4461429 1037.3863,43.7184501 1037.09335,43.0234625 C1036.80532,42.3415571 1036.45019,41.6841806 1036.03615,41.0709563 C1035.62374,40.4610025 1035.15078,39.8902951 1034.63199,39.3702808 C1034.11157,38.8486314 1033.54042,38.3760398 1032.92998,37.9655883 C1032.31628,37.5485958 1031.65839,37.1937433 1030.97759,36.9043015 C1030.28369,36.6132243 1029.55379,36.3842872 1028.81571,36.2354781 C1028.05799,36.080128 1027.279,36 1026.5,36 C1025.721,36 1024.94201,36.080128 1024.18429,36.2354781 C1023.44457,36.3842872 1022.71631,36.6132243 1022.02241,36.9043015 C1021.34325,37.1937433 1020.68372,37.5485958 1020.06838,37.9655883 C1019.45795,38.3760398 1018.88843,38.8486314 1018.36801,39.3702808 C1017.84759,39.8902951 1017.37626,40.4610025 1016.96385,41.0709563 C1016.54817,41.6841806 1016.1914,42.3415571 1015.90337,43.0234625 C1015.61043,43.7184501 1015.38459,44.4461429 1015.23239,45.1852826 C1015.07855,45.940775 1015,46.7207963 1015,47.4991824 C1015,48.280839 1015.07855,49.059225 1015.23239,49.8163526 C1015.38459,50.5554924 1015.61043,51.2831852 1015.90337,51.9765375 C1016.1914,52.6584429 1016.54817,53.3174547 1016.96385,53.930679 C1017.37626,54.5406328 1017.84759,55.1113402 1018.36801,55.6329897 C1018.88843,56.1513686 1019.45795,56.6239602 1020.06838,57.0344117 C1020.68372,57.4497689 1021.34325,57.8078919 1022.02241,58.0956985 C1022.71631,58.3900462 1023.44457,58.6140775 1024.18429,58.7661571 C1024.94201,58.9215073 1025.721,59 1026.5,59 C1027.279,59 1028.05799,58.9215073 1028.81571,58.7661571 C1029.55379,58.6140775 1030.28369,58.3900462 1030.97759,58.0956985 C1031.65839,57.8078919 1032.31628,57.4497689 1032.92998,57.0344117 C1033.54042,56.6239602 1034.11157,56.1513686 1034.63199,55.6329897 C1035.15078,55.1113402 1035.62374,54.5406328 1036.03615,53.930679 C1036.45019,53.3174547 1036.80532,52.6584429 1037.09335,51.9765375 C1037.3863,51.2831852 1037.61378,50.5554924 1037.76434,49.8163526 C1037.92145,49.059225 1038,48.280839 1038,47.4991824 C1038,46.7207963 1037.92145,45.940775 1037.76434,45.1852826" id="icon-dribbble"></path>
        </g>
    </g>
</svg>