<?xml version="1.0" encoding="UTF-8"?>
<svg width="93px" height="95px" viewBox="0 0 93 95" version="1.1" xmlns="http://www.w3.org/2000/svg" xmlns:xlink="http://www.w3.org/1999/xlink">
    <title>20- team-leader-leadership-1</title>
    <defs>
        <linearGradient x1="50%" y1="0%" x2="50%" y2="100%" id="linearGradient-1">
            <stop stop-color="#DEF1FE" offset="0%"></stop>
            <stop stop-color="#F9D9FB" offset="100%"></stop>
        </linearGradient>
    </defs>
    <g id="Logos" stroke="none" stroke-width="1" fill="none" fill-rule="evenodd">
        <g id="20--team-leader-leadership-1" transform="translate(0.000000, 1.000000)">
            <path d="M93,47.5790864 C93,73.2155556 72.1807875,93.9988395 46.5,93.9988395 C20.8192125,93.9988395 0,73.2155556 0,47.5790864 C0,21.9426173 20.8192125,1.15933333 46.5,1.15933333 C72.1807875,1.15933333 93,21.9426173 93,47.5790864" id="Fill-1" fill="url(#linearGradient-1)"></path>
            <path d="M62.1210938,48.5254691 C62.1210938,57.4287778 54.8915063,64.6458889 45.9716438,64.6458889 C37.0541063,64.6458889 29.8233562,57.4287778 29.8233562,48.5254691 C29.8233562,39.6221605 37.0541063,32.4038889 45.9716438,32.4038889 C54.8915063,32.4038889 62.1210938,39.6221605 62.1210938,48.5254691" id="Fill-3" fill="#BBCFFF"></path>
            <path d="M62.1210938,48.5254691 C62.1210938,57.4287778 54.8915063,64.6458889 45.9716438,64.6458889 C37.0541063,64.6458889 29.8233562,57.4287778 29.8233562,48.5254691 C29.8233562,39.6221605 37.0541063,32.4038889 45.9716438,32.4038889 C54.8915063,32.4038889 62.1210938,39.6221605 62.1210938,48.5254691 Z" id="Stroke-5" stroke="#3B73FF"></path>
            <line x1="33.9605775" y1="76.1890889" x2="24.9860775" y2="67.2300765" id="Stroke-7" stroke="#3B73FF" stroke-linecap="round"></line>
            <line x1="73.7960813" y1="61.7475556" x2="64.7099813" y2="70.8191358" id="Stroke-9" stroke="#3B73FF" stroke-linecap="round"></line>
            <line x1="59.8346888" y1="20.021884" x2="68.9777513" y2="29.1491679" id="Stroke-11" stroke="#3B73FF" stroke-linecap="round"></line>
            <line x1="18.9331725" y1="34.5190049" x2="28.2773475" y2="25.192116" id="Stroke-13" stroke="#3B73FF" stroke-linecap="round"></line>
            <path d="M87.55764,46.8917259 C87.55764,52.233479 83.2203525,56.564442 77.8682025,56.564442 C72.517215,56.564442 68.178765,52.233479 68.178765,46.8917259 C68.178765,41.5430099 70.91529,37.3478247 73.69599,36.5494049 C74.167965,36.4147877 74.67714,36.547084 75.023565,36.8952321 C78.0332775,39.9183185 87.55764,36.1490346 87.55764,46.8917259" id="Fill-15" fill="#FFFFFF"></path>
            <path d="M87.55764,46.8917259 C87.55764,52.233479 83.2203525,56.564442 77.8682025,56.564442 C72.517215,56.564442 68.178765,52.233479 68.178765,46.8917259 C68.178765,41.5430099 70.91529,37.3478247 73.69599,36.5494049 C74.167965,36.4147877 74.67714,36.547084 75.023565,36.8952321 C78.0332775,39.9183185 87.55764,36.1490346 87.55764,46.8917259 Z" id="Stroke-17" stroke="#3B73FF" stroke-linecap="round" stroke-linejoin="round"></path>
            <path d="M85.9511813,49.3096148 L84.3248438,50.116158 L83.1507188,46.0161333 C82.9182188,45.2014667 82.0928438,44.6920099 81.2663063,44.8811704 C80.3897813,45.0807753 79.1877563,45.2792198 77.8648313,45.2792198 C76.5430688,45.2792198 75.3410438,45.0807753 74.4645188,44.8811704 C73.6379813,44.6920099 72.8126063,45.2014667 72.5789438,46.0161333 L71.4059813,50.116158 L69.8017313,49.3096148 C67.4976563,49.3096148 67.6534313,53.3400099 70.2062813,53.3400099 L70.2132563,53.3388494 C71.2467188,56.6009975 74.2668938,58.9823309 77.8764563,58.9823309 C81.4871813,58.9823309 84.5073563,56.6009975 85.5408188,53.3388494 L85.5454688,53.3400099 C88.1006438,53.3400099 88.2552563,49.3096148 85.9511813,49.3096148" id="Fill-19" fill="#FFFFFF"></path>
            <path d="M85.9511813,49.3096148 L84.3248438,50.116158 L83.1507188,46.0161333 C82.9182188,45.2014667 82.0928438,44.6920099 81.2663063,44.8811704 C80.3897813,45.0807753 79.1877563,45.2792198 77.8648313,45.2792198 C76.5430688,45.2792198 75.3410438,45.0807753 74.4645188,44.8811704 C73.6379813,44.6920099 72.8126063,45.2014667 72.5789438,46.0161333 L71.4059813,50.116158 L69.8017313,49.3096148 C67.4976563,49.3096148 67.6534313,53.3400099 70.2062813,53.3400099 L70.2132563,53.3388494 C71.2467188,56.6009975 74.2668938,58.9823309 77.8764563,58.9823309 C81.4871813,58.9823309 84.5073563,56.6009975 85.5408188,53.3388494 L85.5454688,53.3400099 C88.1006438,53.3400099 88.2552563,49.3096148 85.9511813,49.3096148 Z" id="Stroke-21" stroke="#3B73FF" stroke-linecap="round" stroke-linejoin="round"></path>
            <path d="M75.2604825,48.503884 C74.703645,48.503884 74.2514325,48.955316 74.2514325,49.5111926 C74.2514325,50.0682296 74.703645,50.5185012 75.2604825,50.5185012 C75.81732,50.5185012 76.2695325,50.0682296 76.2695325,49.5111926 C76.2695325,48.955316 75.81732,48.503884 75.2604825,48.503884" id="Fill-23" fill="#3B73FF"></path>
            <path d="M80.5088213,48.503884 C79.9519838,48.503884 79.4997713,48.955316 79.4997713,49.5111926 C79.4997713,50.0682296 79.9519838,50.5185012 80.5088213,50.5185012 C81.0656588,50.5185012 81.5190338,50.0682296 81.5190338,49.5111926 C81.5190338,48.955316 81.0656588,48.503884 80.5088213,48.503884" id="Fill-25" fill="#3B73FF"></path>
            <path d="M73.8476963,51.728084 C73.8476963,52.1725531 73.4861588,52.5334667 73.0397588,52.5334667 C72.5945213,52.5334667 72.2329838,52.1725531 72.2329838,51.728084 C72.2329838,51.2824543 72.5945213,50.9215407 73.0397588,50.9215407 C73.4861588,50.9215407 73.8476963,51.2824543 73.8476963,51.728084" id="Fill-27" fill="#D6DAFF"></path>
            <path d="M83.5371338,51.728084 C83.5371338,52.1725531 83.1755963,52.5334667 82.7291963,52.5334667 C82.2839588,52.5334667 81.9224213,52.1725531 81.9224213,51.728084 C81.9224213,51.2824543 82.2839588,50.9215407 82.7291963,50.9215407 C83.1755963,50.9215407 83.5371338,51.2824543 83.5371338,51.728084" id="Fill-29" fill="#D6DAFF"></path>
            <path d="M75.8690513,54.3420963 C77.0908388,55.1556025 78.6834638,55.1556025 79.9064137,54.3420963" id="Stroke-31" stroke="#3B73FF" stroke-linecap="round" stroke-linejoin="round"></path>
            <path d="M23.0944575,51.2118963 C23.0944575,50.4041926 22.5108825,49.761279 21.749445,49.6011309 L21.749445,48.5253531 C21.749445,44.0736988 18.13407,40.464563 13.67472,40.464563 C9.21537,40.464563 5.599995,44.0736988 5.599995,48.5253531 L5.599995,49.6011309 C4.837395,49.761279 4.25382,50.4041926 4.25382,51.2118963 C4.25382,52.0811062 4.92342,52.7704395 5.76972,52.8574765 C6.529995,56.5199951 9.780345,59.2726864 13.67472,59.2726864 C17.569095,59.2726864 20.8182825,56.5199951 21.57972,52.8574765 C22.42602,52.7704395 23.0944575,52.0811062 23.0944575,51.2118963" id="Fill-33" fill="#FFFFFF"></path>
            <path d="M23.0944575,51.2118963 C23.0944575,50.4041926 22.5108825,49.761279 21.749445,49.6011309 L21.749445,48.5253531 C21.749445,44.0736988 18.13407,40.464563 13.67472,40.464563 C9.21537,40.464563 5.599995,44.0736988 5.599995,48.5253531 L5.599995,49.6011309 C4.837395,49.761279 4.25382,50.4041926 4.25382,51.2118963 C4.25382,52.0811062 4.92342,52.7704395 5.76972,52.8574765 C6.529995,56.5199951 9.780345,59.2726864 13.67472,59.2726864 C17.569095,59.2726864 20.8182825,56.5199951 21.57972,52.8574765 C22.42602,52.7704395 23.0944575,52.0811062 23.0944575,51.2118963 Z" id="Stroke-35" stroke="#4550E6" stroke-linecap="round" stroke-linejoin="round"></path>
            <path d="M23.0944575,51.2118963 C23.0944575,50.4041926 22.5108825,49.761279 21.749445,49.6011309 L21.749445,48.5253531 C21.749445,44.0736988 18.13407,40.464563 13.67472,40.464563 C9.21537,40.464563 5.599995,44.0736988 5.599995,48.5253531 L5.599995,49.6011309 C4.837395,49.761279 4.25382,50.4041926 4.25382,51.2118963 C4.25382,52.0811062 4.92342,52.7704395 5.76972,52.8574765 C6.529995,56.5199951 9.780345,59.2726864 13.67472,59.2726864 C17.569095,59.2726864 20.8182825,56.5199951 21.57972,52.8574765 C22.42602,52.7704395 23.0944575,52.0811062 23.0944575,51.2118963 Z" id="Stroke-37" stroke="#3B73FF" stroke-linecap="round" stroke-linejoin="round"></path>
            <path d="M10.6464075,48.5254691 C10.08957,48.5254691 9.6373575,48.9769012 9.6373575,49.5327778 C9.6373575,50.0898148 10.08957,50.5400864 10.6464075,50.5400864 C11.203245,50.5400864 11.65662,50.0898148 11.65662,49.5327778 C11.65662,48.9769012 11.203245,48.5254691 10.6464075,48.5254691" id="Fill-39" fill="#3B73FF"></path>
            <path d="M16.7024513,48.5254691 C16.1456138,48.5254691 15.6934013,48.9769012 15.6934013,49.5327778 C15.6934013,50.0898148 16.1456138,50.5400864 16.7024513,50.5400864 C17.2592888,50.5400864 17.7115013,50.0898148 17.7115013,49.5327778 C17.7115013,48.9769012 17.2592888,48.5254691 16.7024513,48.5254691" id="Fill-41" fill="#3B73FF"></path>
            <path d="M10.3103288,52.2199012 C10.3103288,52.7757778 9.85811625,53.2272099 9.30127875,53.2272099 C8.74327875,53.2272099 8.29106625,52.7757778 8.29106625,52.2199012 C8.29106625,51.6640247 8.74327875,51.2114321 9.30127875,51.2114321 C9.85811625,51.2114321 10.3103288,51.6640247 10.3103288,52.2199012" id="Fill-43" fill="#D6DAFF"></path>
            <path d="M19.05756,52.2199012 C19.05756,52.7757778 18.6053475,53.2272099 18.04851,53.2272099 C17.49051,53.2272099 17.03946,52.7757778 17.03946,52.2199012 C17.03946,51.6640247 17.49051,51.2114321 18.04851,51.2114321 C18.6053475,51.2114321 19.05756,51.6640247 19.05756,52.2199012" id="Fill-45" fill="#D6DAFF"></path>
            <path d="M11.6562712,54.6322198 C12.8780587,55.4457259 14.4706837,55.4457259 15.6936337,54.6322198" id="Stroke-47" stroke="#3B73FF" stroke-linecap="round" stroke-linejoin="round"></path>
            <path d="M4.92702375,42.4798765 L4.92702375,48.5248889 C4.92702375,48.8962469 5.22811125,49.1968148 5.60011125,49.1968148 L6.27319875,49.1968148 L8.96438625,42.4798765 L4.92702375,42.4798765 Z" id="Fill-49" fill="#FFFFFF"></path>
            <path d="M4.92702375,42.4798765 L4.92702375,48.5248889 C4.92702375,48.8962469 5.22811125,49.1968148 5.60011125,49.1968148 L6.27319875,49.1968148 L8.96438625,42.4798765 L4.92702375,42.4798765 Z" id="Stroke-51" stroke="#3B73FF" stroke-linecap="round" stroke-linejoin="round"></path>
            <path d="M22.421835,43.1513383 C22.421835,40.1839556 20.0119725,37.7782519 17.03946,37.7782519 L10.982835,37.7782519 C10.44111,37.7782519 9.9749475,37.4579556 9.7610475,36.9984 C9.62271,36.7001531 9.2937225,36.4344 8.964735,36.4344 L7.820835,36.4344 C5.7015975,36.4344 3.793935,37.9755358 3.5997975,40.0818321 C3.39171,42.3285481 5.0319975,44.2375605 7.17681,44.4708198 C7.6685475,45.9028691 8.885685,47.1817333 10.31091,47.1817333 L11.6559225,47.1817333 C11.76636,47.1817333 11.8628475,47.1086222 11.8907475,47.0030173 C11.9209725,46.8974123 11.875635,46.7848444 11.7814725,46.7291407 C11.126985,46.3403753 10.7491725,45.7786963 10.5399225,45.0905235 C10.4980725,44.9512642 10.5236475,44.7992395 10.610835,44.6820296 C10.6980225,44.5648198 10.83636,44.4951901 10.982835,44.4951901 L16.48146,44.4951901 C16.8383475,44.4951901 17.181285,44.6367704 17.432385,44.8885975 L21.07566,48.5255852 L21.7487475,48.5255852 C22.1207475,48.5255852 22.421835,48.2250173 22.421835,47.8536593 L22.421835,43.1513383 Z" id="Fill-53" fill="#FFFFFF"></path>
            <path d="M22.421835,43.1513383 C22.421835,40.1839556 20.0119725,37.7782519 17.03946,37.7782519 L10.982835,37.7782519 C10.44111,37.7782519 9.9749475,37.4579556 9.7610475,36.9984 C9.62271,36.7001531 9.2937225,36.4344 8.964735,36.4344 L7.820835,36.4344 C5.7015975,36.4344 3.793935,37.9755358 3.5997975,40.0818321 C3.39171,42.3285481 5.0319975,44.2375605 7.17681,44.4708198 C7.6685475,45.9028691 8.885685,47.1817333 10.31091,47.1817333 L11.6559225,47.1817333 C11.76636,47.1817333 11.8628475,47.1086222 11.8907475,47.0030173 C11.9209725,46.8974123 11.875635,46.7848444 11.7814725,46.7291407 C11.126985,46.3403753 10.7491725,45.7786963 10.5399225,45.0905235 C10.4980725,44.9512642 10.5236475,44.7992395 10.610835,44.6820296 C10.6980225,44.5648198 10.83636,44.4951901 10.982835,44.4951901 L16.48146,44.4951901 C16.8383475,44.4951901 17.181285,44.6367704 17.432385,44.8885975 L21.07566,48.5255852 L21.7487475,48.5255852 C22.1207475,48.5255852 22.421835,48.2250173 22.421835,47.8536593 L22.421835,43.1513383 Z" id="Stroke-55" stroke="#3B73FF" stroke-linecap="round" stroke-linejoin="round"></path>
            <path d="M55.3924275,83.4541284 C55.3924275,82.6452642 54.8088525,82.0023506 54.0462525,81.8422025 L54.0462525,80.7675852 C54.0462525,76.3159309 50.4308775,72.7067951 45.9715275,72.7067951 C41.51334,72.7067951 37.897965,76.3159309 37.897965,80.7675852 L37.897965,81.8422025 C37.135365,82.0023506 36.55179,82.6452642 36.55179,83.4541284 C36.55179,84.3221778 37.2202275,85.0126716 38.06769,85.0997086 C38.827965,88.7622272 42.078315,91.5149185 45.9715275,91.5149185 C49.867065,91.5149185 53.1162525,88.7622272 53.8765275,85.0997086 C54.72399,85.0126716 55.3924275,84.3221778 55.3924275,83.4541284" id="Fill-57" fill="#FFFFFF"></path>
            <path d="M55.3924275,83.4541284 C55.3924275,82.6452642 54.8088525,82.0023506 54.0462525,81.8422025 L54.0462525,80.7675852 C54.0462525,76.3159309 50.4308775,72.7067951 45.9715275,72.7067951 C41.51334,72.7067951 37.897965,76.3159309 37.897965,80.7675852 L37.897965,81.8422025 C37.135365,82.0023506 36.55179,82.6452642 36.55179,83.4541284 C36.55179,84.3221778 37.2202275,85.0126716 38.06769,85.0997086 C38.827965,88.7622272 42.078315,91.5149185 45.9715275,91.5149185 C49.867065,91.5149185 53.1162525,88.7622272 53.8765275,85.0997086 C54.72399,85.0126716 55.3924275,84.3221778 55.3924275,83.4541284 Z" id="Stroke-59" stroke="#3B73FF" stroke-linecap="round" stroke-linejoin="round"></path>
            <path d="M42.6078338,84.4616691 C42.6078338,85.0175457 42.1556213,85.4689778 41.5987838,85.4689778 C41.0407838,85.4689778 40.5897338,85.0175457 40.5897338,84.4616691 C40.5897338,83.9057926 41.0407838,83.4543605 41.5987838,83.4543605 C42.1556213,83.4543605 42.6078338,83.9057926 42.6078338,84.4616691" id="Fill-61" fill="#D6DAFF"></path>
            <path d="M51.35553,84.4616691 C51.35553,85.0175457 50.9033175,85.4689778 50.3453175,85.4689778 C49.78848,85.4689778 49.3362675,85.0175457 49.3362675,84.4616691 C49.3362675,83.9057926 49.78848,83.4543605 50.3453175,83.4543605 C50.9033175,83.4543605 51.35553,83.9057926 51.35553,84.4616691" id="Fill-63" fill="#D6DAFF"></path>
            <path d="M43.95366,86.8738716 C45.17661,87.6873778 46.7680725,87.6873778 47.9910225,86.8738716" id="Stroke-65" stroke="#3B73FF" stroke-linecap="round" stroke-linejoin="round"></path>
            <path d="M54.719805,78.7520395 C54.719805,73.9290272 50.8033425,70.020484 45.9719925,70.020484 C41.1406425,70.020484 37.2253425,73.9290272 37.2253425,78.7520395 L37.2253425,81.4385827 C39.6154425,80.7956691 41.04183,79.3299654 41.93463,77.4081877 C45.7046175,79.9415457 50.6824425,79.4239654 54.719805,78.7520395" id="Fill-67" fill="#FFFFFF"></path>
            <path d="M54.719805,78.7520395 C54.719805,73.9290272 50.8033425,70.020484 45.9719925,70.020484 C41.1406425,70.020484 37.2253425,73.9290272 37.2253425,78.7520395 L37.2253425,81.4385827 C39.6154425,80.7956691 41.04183,79.3299654 41.93463,77.4081877 C45.7046175,79.9415457 50.6824425,79.4239654 54.719805,78.7520395 Z" id="Stroke-69" stroke="#3B73FF" stroke-linecap="round" stroke-linejoin="round"></path>
            <path d="M40.5892688,76.0650321 C40.5892688,76.0650321 41.1112313,76.934242 41.9354438,77.408884" id="Stroke-71" stroke="#4550E6" stroke-linecap="round" stroke-linejoin="round"></path>
            <path d="M41.8573238,81.7762864 C42.3037238,81.3294963 43.0291238,81.3294963 43.4766863,81.7762864" id="Stroke-73" stroke="#3B73FF" stroke-linecap="round" stroke-linejoin="round"></path>
            <path d="M48.3351225,81.7762864 C48.7815225,81.3294963 49.5069225,81.3294963 49.954485,81.7762864" id="Stroke-75" stroke="#3B73FF" stroke-linecap="round" stroke-linejoin="round"></path>
            <path d="M33.18798,23.671637 C33.18798,25.1559086 31.9824675,26.3581802 30.4967925,26.3581802 C29.009955,26.3581802 27.8044425,25.1559086 27.8044425,23.671637 C27.8044425,22.1885259 29.009955,20.9850938 30.4967925,20.9850938 C31.9824675,20.9850938 33.18798,22.1885259 33.18798,23.671637" id="Fill-77" fill="#BBCFFF"></path>
            <path d="M33.18798,23.671637 C33.18798,25.1559086 31.9824675,26.3581802 30.4967925,26.3581802 C29.009955,26.3581802 27.8044425,25.1559086 27.8044425,23.671637 C27.8044425,22.1885259 29.009955,20.9850938 30.4967925,20.9850938 C31.9824675,20.9850938 33.18798,22.1885259 33.18798,23.671637 Z" id="Stroke-79" stroke="#3B73FF" stroke-linecap="round" stroke-linejoin="round"></path>
            <path d="M73.5598612,31.0607333 C73.5598612,32.5450049 72.3543487,33.7472765 70.8686737,33.7472765 C69.3818363,33.7472765 68.1774863,32.5450049 68.1774863,31.0607333 C68.1774863,29.5764617 69.3818363,28.3741901 70.8686737,28.3741901 C72.3543487,28.3741901 73.5598612,29.5764617 73.5598612,31.0607333" id="Fill-81" fill="#BBCFFF"></path>
            <path d="M73.5598612,31.0607333 C73.5598612,32.5450049 72.3543487,33.7472765 70.8686737,33.7472765 C69.3818363,33.7472765 68.1774863,32.5450049 68.1774863,31.0607333 C68.1774863,29.5764617 69.3818363,28.3741901 70.8686737,28.3741901 C72.3543487,28.3741901 73.5598612,29.5764617 73.5598612,31.0607333 Z" id="Stroke-83" stroke="#3B73FF" stroke-linecap="round" stroke-linejoin="round"></path>
            <path d="M65.4853688,72.706563 C65.4853688,74.1908346 64.2798562,75.3931062 62.7941813,75.3931062 C61.3073438,75.3931062 60.1029938,74.1908346 60.1029938,72.706563 C60.1029938,71.2234519 61.3073438,70.0200198 62.7941813,70.0200198 C64.2798562,70.0200198 65.4853688,71.2234519 65.4853688,72.706563" id="Fill-85" fill="#BBCFFF"></path>
            <path d="M65.4853688,72.706563 C65.4853688,74.1908346 64.2798562,75.3931062 62.7941813,75.3931062 C61.3073438,75.3931062 60.1029938,74.1908346 60.1029938,72.706563 C60.1029938,71.2234519 61.3073438,70.0200198 62.7941813,70.0200198 C64.2798562,70.0200198 65.4853688,71.2234519 65.4853688,72.706563 Z" id="Stroke-87" stroke="#3B73FF" stroke-linecap="round" stroke-linejoin="round"></path>
            <path d="M25.78611,65.3180469 C25.78611,66.801158 24.5805975,68.0045901 23.0949225,68.0045901 C21.608085,68.0045901 20.403735,66.801158 20.403735,65.3180469 C20.403735,63.8337753 21.608085,62.6315037 23.0949225,62.6315037 C24.5805975,62.6315037 25.78611,63.8337753 25.78611,65.3180469" id="Fill-89" fill="#BBCFFF"></path>
            <path d="M25.78611,65.3180469 C25.78611,66.801158 24.5805975,68.0045901 23.0949225,68.0045901 C21.608085,68.0045901 20.403735,66.801158 20.403735,65.3180469 C20.403735,63.8337753 21.608085,62.6315037 23.0949225,62.6315037 C24.5805975,62.6315037 25.78611,63.8337753 25.78611,65.3180469 Z" id="Stroke-91" stroke="#3B73FF" stroke-linecap="round" stroke-linejoin="round"></path>
            <path d="M55.3924275,17.6267407 C55.3924275,16.8178765 54.8088525,16.174963 54.0462525,16.0148148 L54.0462525,14.9401975 C54.0462525,10.4885432 50.4308775,6.87940741 45.9715275,6.87940741 C41.51334,6.87940741 37.897965,10.4885432 37.897965,14.9401975 L37.897965,16.0148148 C37.135365,16.174963 36.55179,16.8178765 36.55179,17.6267407 C36.55179,18.4947901 37.2202275,19.185284 38.06769,19.272321 C38.827965,22.9348395 42.078315,25.6875309 45.9715275,25.6875309 C49.867065,25.6875309 53.1162525,22.9348395 53.8765275,19.272321 C54.72399,19.185284 55.3924275,18.4947901 55.3924275,17.6267407" id="Fill-93" fill="#FFFFFF"></path>
            <path d="M55.3924275,17.6267407 C55.3924275,16.8178765 54.8088525,16.174963 54.0462525,16.0148148 L54.0462525,14.9401975 C54.0462525,10.4885432 50.4308775,6.87940741 45.9715275,6.87940741 C41.51334,6.87940741 37.897965,10.4885432 37.897965,14.9401975 L37.897965,16.0148148 C37.135365,16.174963 36.55179,16.8178765 36.55179,17.6267407 C36.55179,18.4947901 37.2202275,19.185284 38.06769,19.272321 C38.827965,22.9348395 42.078315,25.6875309 45.9715275,25.6875309 C49.867065,25.6875309 53.1162525,22.9348395 53.8765275,19.272321 C54.72399,19.185284 55.3924275,18.4947901 55.3924275,17.6267407 Z" id="Stroke-95" stroke="#3B73FF" stroke-linecap="round" stroke-linejoin="round"></path>
            <path d="M42.6078338,18.6341654 C42.6078338,19.190042 42.1556213,19.6414741 41.5987838,19.6414741 C41.0407838,19.6414741 40.5897338,19.190042 40.5897338,18.6341654 C40.5897338,18.0782889 41.0407838,17.6268568 41.5987838,17.6268568 C42.1556213,17.6268568 42.6078338,18.0782889 42.6078338,18.6341654" id="Fill-97" fill="#D6DAFF"></path>
            <path d="M51.35553,18.6341654 C51.35553,19.190042 50.9033175,19.6414741 50.3453175,19.6414741 C49.78848,19.6414741 49.3362675,19.190042 49.3362675,18.6341654 C49.3362675,18.0782889 49.78848,17.6268568 50.3453175,17.6268568 C50.9033175,17.6268568 51.35553,18.0782889 51.35553,18.6341654" id="Fill-99" fill="#D6DAFF"></path>
            <path d="M43.95366,21.0463679 C45.17661,21.8598741 46.7680725,21.8598741 47.9910225,21.0463679" id="Stroke-101" stroke="#3B73FF" stroke-linecap="round" stroke-linejoin="round"></path>
            <path d="M54.719805,12.9246519 C54.719805,8.10163951 50.8033425,4.1930963 45.9719925,4.1930963 C41.1406425,4.1930963 37.2253425,8.10163951 37.2253425,12.9246519 L37.2253425,14.9392691 C37.2253425,15.3106272 37.52643,15.6111951 37.8972675,15.6111951 L39.2434425,15.6111951 C39.6154425,15.6111951 39.91653,15.3106272 39.91653,14.9392691 C39.91653,13.2553926 40.621005,11.7467506 41.7381675,10.6535654 C42.0357675,10.3622815 42.4542675,10.2241827 42.8681175,10.2833679 C43.7795175,10.4110222 44.5328175,10.8055901 45.1024425,11.383516 C46.0719675,12.3699358 47.396055,12.9246519 48.77943,12.9246519 C49.697805,12.9246519 50.5731675,12.6577383 51.3473925,12.2097877 C51.67638,12.8538617 51.9077175,13.557121 51.99258,14.3056395 C52.0332675,14.6665531 52.3378425,14.9392691 52.701705,14.9392691 L54.0467175,14.9392691 C54.4187175,14.9392691 54.719805,14.6387012 54.719805,14.2685037 L54.719805,12.9246519 Z" id="Fill-103" fill="#FFFFFF"></path>
            <path d="M54.719805,12.9246519 C54.719805,8.10163951 50.8033425,4.1930963 45.9719925,4.1930963 C41.1406425,4.1930963 37.2253425,8.10163951 37.2253425,12.9246519 L37.2253425,14.9392691 C37.2253425,15.3106272 37.52643,15.6111951 37.8972675,15.6111951 L39.2434425,15.6111951 C39.6154425,15.6111951 39.91653,15.3106272 39.91653,14.9392691 C39.91653,13.2553926 40.621005,11.7467506 41.7381675,10.6535654 C42.0357675,10.3622815 42.4542675,10.2241827 42.8681175,10.2833679 C43.7795175,10.4110222 44.5328175,10.8055901 45.1024425,11.383516 C46.0719675,12.3699358 47.396055,12.9246519 48.77943,12.9246519 C49.697805,12.9246519 50.5731675,12.6577383 51.3473925,12.2097877 C51.67638,12.8538617 51.9077175,13.557121 51.99258,14.3056395 C52.0332675,14.6665531 52.3378425,14.9392691 52.701705,14.9392691 L54.0467175,14.9392691 C54.4187175,14.9392691 54.719805,14.6387012 54.719805,14.2685037 L54.719805,12.9246519 Z" id="Stroke-105" stroke="#4550E6" stroke-linecap="round" stroke-linejoin="round"></path>
            <path d="M54.719805,12.9246519 C54.719805,8.10163951 50.8033425,4.1930963 45.9719925,4.1930963 C41.1406425,4.1930963 37.2253425,8.10163951 37.2253425,12.9246519 L37.2253425,14.9392691 C37.2253425,15.3106272 37.52643,15.6111951 37.8972675,15.6111951 L39.2434425,15.6111951 C39.6154425,15.6111951 39.91653,15.3106272 39.91653,14.9392691 C39.91653,13.2553926 40.621005,11.7467506 41.7381675,10.6535654 C42.0357675,10.3622815 42.4542675,10.2241827 42.8681175,10.2833679 C43.7795175,10.4110222 44.5328175,10.8055901 45.1024425,11.383516 C46.0719675,12.3699358 47.396055,12.9246519 48.77943,12.9246519 C49.697805,12.9246519 50.5731675,12.6577383 51.3473925,12.2097877 C51.67638,12.8538617 51.9077175,13.557121 51.99258,14.3056395 C52.0332675,14.6665531 52.3378425,14.9392691 52.701705,14.9392691 L54.0467175,14.9392691 C54.4187175,14.9392691 54.719805,14.6387012 54.719805,14.2685037 L54.719805,12.9246519 Z" id="Stroke-107" stroke="#3B73FF" stroke-linecap="round" stroke-linejoin="round"></path>
            <path d="M51.3475088,12.2095556 C51.4916588,12.1225185 51.5707088,11.9588889 51.5486213,11.7917778 C51.5253713,11.6258272 51.4056338,11.4877284 51.2440463,11.4424691 C50.5267838,11.2428642 49.4596088,10.7542963 48.6609713,9.56595062" id="Stroke-109" stroke="#3B73FF" stroke-linecap="round" stroke-linejoin="round"></path>
            <path d="M42.9443775,14.9396173 C42.38754,14.9396173 41.9353275,15.3910494 41.9353275,15.9469259 C41.9353275,16.503963 42.38754,16.9542346 42.9443775,16.9542346 C43.501215,16.9542346 43.9534275,16.503963 43.9534275,15.9469259 C43.9534275,15.3910494 43.501215,14.9396173 42.9443775,14.9396173" id="Fill-111" fill="#3B73FF"></path>
            <path d="M49.0004213,14.9396173 C48.4435838,14.9396173 47.9913713,15.3910494 47.9913713,15.9469259 C47.9913713,16.503963 48.4435838,16.9542346 49.0004213,16.9542346 C49.5572588,16.9542346 50.0094713,16.503963 50.0094713,15.9469259 C50.0094713,15.3910494 49.5572588,14.9396173 49.0004213,14.9396173" id="Fill-113" fill="#3B73FF"></path>
            <path d="M45.9721088,4.1926321 C48.3808088,4.1926321 50.5628213,5.16512593 52.1449838,6.73759506 C52.5030338,6.16315062 52.7006588,5.53068148 52.7006588,4.86455802 C52.7006588,2.26737284 49.6886213,0.162237037 45.9721088,0.162237037 C42.2567588,0.162237037 39.2435588,2.26737284 39.2435588,4.86455802 C39.2435588,5.53068148 39.4423463,6.16315062 39.7992338,6.73759506 C41.3813963,5.16512593 43.5634088,4.1926321 45.9721088,4.1926321" id="Fill-115" fill="#FFFFFF"></path>
            <path d="M45.9721088,4.1926321 C48.3808088,4.1926321 50.5628213,5.16512593 52.1449838,6.73759506 C52.5030338,6.16315062 52.7006588,5.53068148 52.7006588,4.86455802 C52.7006588,2.26737284 49.6886213,0.162237037 45.9721088,0.162237037 C42.2567588,0.162237037 39.2435588,2.26737284 39.2435588,4.86455802 C39.2435588,5.53068148 39.4423463,6.16315062 39.7992338,6.73759506 C41.3813963,5.16512593 43.5634088,4.1926321 45.9721088,4.1926321 Z" id="Stroke-117" stroke="#3B73FF" stroke-linecap="round" stroke-linejoin="round"></path>
            <path d="M55.3924275,50.8763975 C55.3924275,50.0675333 54.8088525,49.4246198 54.0462525,49.2644716 L54.0462525,48.1898543 C54.0462525,43.7382 50.4308775,40.1290642 45.9715275,40.1290642 C41.51334,40.1290642 37.897965,43.7382 37.897965,48.1898543 L37.897965,49.2644716 C37.135365,49.4246198 36.55179,50.0675333 36.55179,50.8763975 C36.55179,51.7444469 37.2202275,52.4337802 38.06769,52.5219778 C38.827965,56.1844963 42.078315,58.9360272 45.9715275,58.9360272 C49.867065,58.9360272 53.1162525,56.1844963 53.8765275,52.5219778 C54.72399,52.4337802 55.3924275,51.7444469 55.3924275,50.8763975" id="Fill-119" fill="#FFFFFF"></path>
            <path d="M55.3924275,50.8763975 C55.3924275,50.0675333 54.8088525,49.4246198 54.0462525,49.2644716 L54.0462525,48.1898543 C54.0462525,43.7382 50.4308775,40.1290642 45.9715275,40.1290642 C41.51334,40.1290642 37.897965,43.7382 37.897965,48.1898543 L37.897965,49.2644716 C37.135365,49.4246198 36.55179,50.0675333 36.55179,50.8763975 C36.55179,51.7444469 37.2202275,52.4337802 38.06769,52.5219778 C38.827965,56.1844963 42.078315,58.9360272 45.9715275,58.9360272 C49.867065,58.9360272 53.1162525,56.1844963 53.8765275,52.5219778 C54.72399,52.4337802 55.3924275,51.7444469 55.3924275,50.8763975 Z" id="Stroke-121" stroke="#3B73FF" stroke-linecap="round" stroke-linejoin="round"></path>
            <path d="M42.9443775,48.1893901 C42.38754,48.1893901 41.9353275,48.6408222 41.9353275,49.1966988 C41.9353275,49.7537358 42.38754,50.2040074 42.9443775,50.2040074 C43.501215,50.2040074 43.9534275,49.7537358 43.9534275,49.1966988 C43.9534275,48.6408222 43.501215,48.1893901 42.9443775,48.1893901" id="Fill-123" fill="#3B73FF"></path>
            <path d="M49.0004213,48.1893901 C48.4435838,48.1893901 47.9913713,48.6408222 47.9913713,49.1966988 C47.9913713,49.7537358 48.4435838,50.2040074 49.0004213,50.2040074 C49.5572588,50.2040074 50.0094713,49.7537358 50.0094713,49.1966988 C50.0094713,48.6408222 49.5572588,48.1893901 49.0004213,48.1893901" id="Fill-125" fill="#3B73FF"></path>
            <path d="M42.6078338,51.8839383 C42.6078338,52.4398148 42.1556213,52.8912469 41.5987838,52.8912469 C41.0407838,52.8912469 40.5897338,52.4398148 40.5897338,51.8839383 C40.5897338,51.3280617 41.0407838,50.8766296 41.5987838,50.8766296 C42.1556213,50.8766296 42.6078338,51.3280617 42.6078338,51.8839383" id="Fill-127" fill="#D6DAFF"></path>
            <path d="M51.35553,51.8839383 C51.35553,52.4398148 50.9033175,52.8912469 50.3453175,52.8912469 C49.78848,52.8912469 49.3362675,52.4398148 49.3362675,51.8839383 C49.3362675,51.3280617 49.78848,50.8766296 50.3453175,50.8766296 C50.9033175,50.8766296 51.35553,51.3280617 51.35553,51.8839383" id="Fill-129" fill="#D6DAFF"></path>
            <line x1="45.9738525" y1="52.891479" x2="45.9738525" y2="53.5634049" id="Stroke-131" stroke="#3B73FF" stroke-linecap="round" stroke-linejoin="round"></line>
            <line x1="44.62791" y1="52.891479" x2="44.62791" y2="53.5634049" id="Stroke-133" stroke="#3B73FF" stroke-linecap="round" stroke-linejoin="round"></line>
            <line x1="47.3196788" y1="52.891479" x2="47.3196788" y2="53.5634049" id="Stroke-135" stroke="#3B73FF" stroke-linecap="round" stroke-linejoin="round"></line>
            <line x1="48.6649238" y1="53.5629407" x2="48.6649238" y2="54.2348667" id="Stroke-137" stroke="#3B73FF" stroke-linecap="round" stroke-linejoin="round"></line>
            <line x1="43.2820838" y1="53.5629407" x2="43.2820838" y2="54.2348667" id="Stroke-139" stroke="#3B73FF" stroke-linecap="round" stroke-linejoin="round"></line>
            <path d="M44.62791,55.5779062 L44.62791,55.5779062 C45.4753725,56.0014864 46.471635,56.0014864 47.3190975,55.5779062" id="Stroke-141" stroke="#3B73FF" stroke-linecap="round" stroke-linejoin="round"></path>
            <path d="M53.1270638,41.8355704 C53.0584763,41.7392494 53.0375513,41.618558 53.0666138,41.5025086 C53.4874388,39.8000642 52.9573388,38.1243111 52.7666888,37.6055704 C52.7515763,37.5661136 52.7201888,37.5359407 52.6806638,37.5243358 C52.6411388,37.5115704 52.5981263,37.5173728 52.5644138,37.5417432 C52.2703013,37.7425086 51.5193263,38.2171506 50.3905388,38.6442123 C50.5184138,37.1274469 50.2696388,36.1363852 50.1173513,35.694237 C50.1010763,35.6454963 50.0569013,35.609521 50.0057513,35.6037185 C49.9546013,35.597916 49.9046138,35.6222864 49.8767138,35.6652247 C49.6907138,35.9565086 49.3036013,36.450879 48.6653888,36.7700148 C47.5575263,37.3224099 45.6242888,36.5889778 43.9851638,36.7897432 C42.0984263,37.021842 40.5906638,37.8898914 40.5906638,39.1211753 C40.5906638,39.275521 40.6208888,39.4252247 40.6697138,39.5691259 C40.7255138,39.7315951 40.6732013,39.9091506 40.5395138,40.015916 C38.5237388,41.6150765 37.2263888,44.076484 37.2263888,46.8454222 L37.2263888,48.0987556 C37.2263888,48.6766815 37.5972263,49.1896198 38.1470888,49.3729778 C38.4167888,49.4623358 38.7120638,49.427521 38.9527013,49.2754963 C39.1933388,49.1246321 39.3526013,48.8728049 39.3886388,48.5908049 C39.6409013,46.5669037 40.3535138,44.7925086 41.9368388,43.5589037 C42.0984263,43.4324099 42.3227888,43.4753481 42.4750763,43.6134469 C42.8424263,43.9476691 43.3667138,44.158879 43.9549388,44.158879 C44.3850638,44.158879 44.7803138,44.0451506 45.1069763,43.8536691 C45.2964638,43.7411012 45.5417513,43.8026074 45.6568388,43.9906074 C46.2008888,44.8841877 47.3378138,45.5027309 48.6653888,45.5027309 C49.4814638,45.5027309 50.2254638,45.2671506 50.8067138,44.8795457 C50.9903888,44.7576938 51.2368388,44.8041136 51.3623888,44.9839901 C52.3295888,46.3672988 52.3912013,47.2469531 52.5597638,48.5908049 C52.5946388,48.8716444 52.7539013,49.1234716 52.9945388,49.2754963 C53.2351763,49.4263605 53.5316138,49.4623358 53.8013138,49.3729778 C54.3500138,49.1896198 54.7208513,48.6766815 54.7208513,48.0975951 L54.7208513,46.8454222 C54.7208513,44.9793481 54.1268138,43.2548543 53.1270638,41.8355704" id="Fill-143" fill="#FFFFFF"></path>
            <path d="M53.1270638,41.8355704 C53.0584763,41.7392494 53.0375513,41.618558 53.0666138,41.5025086 C53.4874388,39.8000642 52.9573388,38.1243111 52.7666888,37.6055704 C52.7515763,37.5661136 52.7201888,37.5359407 52.6806638,37.5243358 C52.6411388,37.5115704 52.5981263,37.5173728 52.5644138,37.5417432 C52.2703013,37.7425086 51.5193263,38.2171506 50.3905388,38.6442123 C50.5184138,37.1274469 50.2696388,36.1363852 50.1173513,35.694237 C50.1010763,35.6454963 50.0569013,35.609521 50.0057513,35.6037185 C49.9546013,35.597916 49.9046138,35.6222864 49.8767138,35.6652247 C49.6907138,35.9565086 49.3036013,36.450879 48.6653888,36.7700148 C47.5575263,37.3224099 45.6242888,36.5889778 43.9851638,36.7897432 C42.0984263,37.021842 40.5906638,37.8898914 40.5906638,39.1211753 C40.5906638,39.275521 40.6208888,39.4252247 40.6697138,39.5691259 C40.7255138,39.7315951 40.6732013,39.9091506 40.5395138,40.015916 C38.5237388,41.6150765 37.2263888,44.076484 37.2263888,46.8454222 L37.2263888,48.0987556 C37.2263888,48.6766815 37.5972263,49.1896198 38.1470888,49.3729778 C38.4167888,49.4623358 38.7120638,49.427521 38.9527013,49.2754963 C39.1933388,49.1246321 39.3526013,48.8728049 39.3886388,48.5908049 C39.6409013,46.5669037 40.3535138,44.7925086 41.9368388,43.5589037 C42.0984263,43.4324099 42.3227888,43.4753481 42.4750763,43.6134469 C42.8424263,43.9476691 43.3667138,44.158879 43.9549388,44.158879 C44.3850638,44.158879 44.7803138,44.0451506 45.1069763,43.8536691 C45.2964638,43.7411012 45.5417513,43.8026074 45.6568388,43.9906074 C46.2008888,44.8841877 47.3378138,45.5027309 48.6653888,45.5027309 C49.4814638,45.5027309 50.2254638,45.2671506 50.8067138,44.8795457 C50.9903888,44.7576938 51.2368388,44.8041136 51.3623888,44.9839901 C52.3295888,46.3672988 52.3912013,47.2469531 52.5597638,48.5908049 C52.5946388,48.8716444 52.7539013,49.1234716 52.9945388,49.2754963 C53.2351763,49.4263605 53.5316138,49.4623358 53.8013138,49.3729778 C54.3500138,49.1896198 54.7208513,48.6766815 54.7208513,48.0975951 L54.7208513,46.8454222 C54.7208513,44.9793481 54.1268138,43.2548543 53.1270638,41.8355704 Z" id="Stroke-145" stroke="#3B73FF" stroke-linecap="round" stroke-linejoin="round"></path>
            <path d="M50.39112,38.6442123 C50.39112,38.6442123 49.0856325,39.4577185 45.3005325,39.4577185" id="Stroke-147" stroke="#3B73FF" stroke-linecap="round" stroke-linejoin="round"></path>
        </g>
    </g>
</svg>