<?xml version="1.0" encoding="UTF-8"?>
<svg width="94px" height="94px" viewBox="0 0 94 94" version="1.1" xmlns="http://www.w3.org/2000/svg" xmlns:xlink="http://www.w3.org/1999/xlink">
    <title>10- team-meeting-1</title>
    <defs>
        <linearGradient x1="50%" y1="0%" x2="50%" y2="100%" id="linearGradient-1">
            <stop stop-color="#FFFFFF" stop-opacity="0" offset="0%"></stop>
            <stop stop-color="#F9D9FB" offset="100%"></stop>
        </linearGradient>
        <linearGradient x1="50%" y1="0%" x2="50%" y2="100%" id="linearGradient-2">
            <stop stop-color="#DEF1FE" offset="0%"></stop>
            <stop stop-color="#F9D9FB" offset="100%"></stop>
        </linearGradient>
    </defs>
    <g id="Logos" stroke="none" stroke-width="1" fill="none" fill-rule="evenodd">
        <g id="10--team-meeting-1">
            <path d="M93,47.4197531 C93,73.0562222 72.1807875,93.8395062 46.5,93.8395062 C20.8192125,93.8395062 0,73.0562222 0,47.4197531 C0,21.783284 20.8192125,1 46.5,1 C72.1807875,1 93,21.783284 93,47.4197531" id="Fill-1" fill="url(#linearGradient-1)" opacity="0"></path>
            <path d="M89.6810811,43.2391902 C89.6810811,19.6875401 70.5716941,0.594402558 47,0.594402558 C23.4283059,0.594402558 4.31891892,19.6875401 4.31891892,43.2391902 C4.31891892,49.5133046 5.68578054,55.4654508 8.12180324,60.8301651 L85.8781968,60.8301651 C88.3142195,55.4654508 89.6810811,49.5133046 89.6810811,43.2391902" id="Fill-1" fill="url(#linearGradient-2)"></path>
            <line x1="5.38594595" y1="60.8301651" x2="88.6140541" y2="60.8301651" id="Stroke-3" stroke="#3B73FF" stroke-linecap="round" stroke-linejoin="round"></line>
            <line x1="0.584324324" y1="60.8301651" x2="3.25189189" y2="60.8301651" id="Stroke-5" stroke="#3B73FF" stroke-linecap="round" stroke-linejoin="round"></line>
            <line x1="90.7481081" y1="60.8301651" x2="93.4156757" y2="60.8301651" id="Stroke-7" stroke="#3B73FF" stroke-linecap="round" stroke-linejoin="round"></line>
            <path d="M50.1875298,74.4497375 C50.1875298,75.4657496 57.3291417,76.288794 66.1395839,76.288794 C74.9500261,76.288794 82.0916379,75.4657496 82.0916379,74.4497375 C82.0916379,73.4337255 74.9500261,72.6106811 66.1395839,72.6106811 C57.3291417,72.6106811 50.1875298,73.4337255 50.1875298,74.4497375" id="Fill-9" fill="#F0F2FF"></path>
            <path d="M42.8251501,74.4497375 C42.8251501,75.4657496 35.6835382,76.288794 26.873096,76.288794 C18.0626538,76.288794 10.9210419,75.4657496 10.9210419,74.4497375 C10.9210419,73.4337255 18.0626538,72.6106811 26.873096,72.6106811 C35.6835382,72.6106811 42.8251501,73.4337255 42.8251501,74.4497375" id="Fill-11" fill="#F0F2FF"></path>
            <path d="M52.3450585,21.3400256 C52.5563298,21.6683905 52.5712682,22.0852433 52.3845385,22.4274677 C52.1967417,22.7696921 51.8382206,22.9829161 51.4476888,22.9829161 L41.4848574,22.9829161 C41.0953925,22.9829161 40.7358044,22.7696921 40.5490747,22.4274677 C40.362345,22.0852433 40.3762163,21.6683905 40.5874877,21.3400256 L44.0169125,16.0094272 C44.2132455,15.7045169 44.5514931,15.5200782 44.9153493,15.5200782 L48.0182639,15.5200782 C48.3810531,15.5200782 48.7193006,15.7045169 48.9156336,16.0094272 L52.3450585,21.3400256 Z" id="Fill-13" fill="#FFFFFF"></path>
            <path d="M77.7135194,72.9213484 C77.9162545,73.5791442 78.5970177,73.9640134 79.2660437,73.7987649 C79.9340026,73.6324502 80.3565453,72.9746543 80.227435,72.2987345 L78.2491669,62.0501259 L74.6756934,62.9350052 L77.7135194,72.9213484 Z" id="Fill-15" fill="#FFFFFF"></path>
            <path d="M77.7135194,72.9213484 C77.9162545,73.5791442 78.5970177,73.9640134 79.2660437,73.7987649 C79.9340026,73.6324502 80.3565453,72.9746543 80.227435,72.2987345 L78.2491669,62.0501259 L74.6756934,62.9350052 L77.7135194,72.9213484 Z" id="Stroke-17" stroke="#3B73FF" stroke-linecap="round" stroke-linejoin="round"></path>
            <path d="M66.8363525,72.9213484 C66.6346844,73.5791442 65.9528542,73.9640134 65.2848952,73.7987649 C64.6158693,73.6324502 64.1933266,72.9746543 64.3224369,72.2987345 L66.300705,62.0501259 L69.8741785,62.9350052 L66.8363525,72.9213484 Z" id="Fill-19" fill="#FFFFFF"></path>
            <path d="M66.8363525,72.9213484 C66.6346844,73.5791442 65.9528542,73.9640134 65.2848952,73.7987649 C64.6158693,73.6324502 64.1933266,72.9746543 64.3224369,72.2987345 L66.300705,62.0501259 L69.8741785,62.9350052 L66.8363525,72.9213484 Z" id="Stroke-21" stroke="#3B73FF" stroke-linecap="round" stroke-linejoin="round"></path>
            <path d="M64.9128229,63.4152921 L79.3443635,63.4152921 C80.5223613,63.4152921 81.4784175,62.4600489 81.4784175,61.2830528 L81.4784175,41.3199615 C81.4784175,38.9649031 79.5673721,37.0554828 77.2103094,37.0554828 L69.180931,37.0554828 C66.8238683,37.0554828 64.9128229,38.9649031 64.9128229,41.3199615 L64.9128229,63.4152921 Z" id="Fill-23" fill="#FFFFFF"></path>
            <path d="M64.9128229,63.4152921 L79.3443635,63.4152921 C80.5223613,63.4152921 81.4784175,62.4600489 81.4784175,61.2830528 L81.4784175,41.3199615 C81.4784175,38.9649031 79.5673721,37.0554828 77.2103094,37.0554828 L69.180931,37.0554828 C66.8238683,37.0554828 64.9128229,38.9649031 64.9128229,41.3199615 L64.9128229,63.4152921 Z" id="Stroke-25" stroke="#3B73FF" stroke-linecap="round" stroke-linejoin="round"></path>
            <path d="M58.1636636,63.4152921 L79.3441501,63.4152921 C80.5232149,63.4152921 81.4782041,62.4600489 81.4782041,61.2830528 L81.4782041,60.350198 L58.1636636,60.350198 L58.1636636,63.4152921 Z" id="Fill-27" fill="#FFFFFF"></path>
            <path d="M58.1636636,63.4152921 L79.3441501,63.4152921 C80.5232149,63.4152921 81.4782041,62.4600489 81.4782041,61.2830528 L81.4782041,60.350198 L58.1636636,60.350198 L58.1636636,63.4152921 Z" id="Stroke-29" stroke="#3B73FF" stroke-linecap="round" stroke-linejoin="round"></path>
            <path d="M62.4594077,45.3313435 C62.4594077,48.2045361 60.1204844,50.5414704 57.2437796,50.5414704 C54.4460347,50.5414704 52.0217493,48.5723473 51.4786325,45.8590727 L49.6582844,38.3951688 C49.5451796,37.8333237 49.6582844,37.2618835 49.9773255,36.785328 C50.2952996,36.3077064 50.7807969,35.9825399 51.3431201,35.8716635 C51.4839677,35.8428782 51.6269493,35.8290187 51.7656628,35.8290187 C52.7846736,35.8290187 53.669239,36.5550462 53.8687731,37.5540003 L55.6901882,45.0189704 C55.8331698,45.7322045 56.4648498,46.2503387 57.1936293,46.2503387 C57.7378131,46.2503387 58.1646239,45.8473454 58.1646239,45.3313435 C58.1646239,44.1490167 59.1270823,43.1852445 60.3114823,43.1852445 C61.4958823,43.1852445 62.4594077,44.1490167 62.4594077,45.3313435" id="Fill-31" fill="#FFFFFF"></path>
            <path d="M62.4594077,45.3313435 C62.4594077,48.2045361 60.1204844,50.5414704 57.2437796,50.5414704 C54.4460347,50.5414704 52.0217493,48.5723473 51.4786325,45.8590727 L49.6582844,38.3951688 C49.5451796,37.8333237 49.6582844,37.2618835 49.9773255,36.785328 C50.2952996,36.3077064 50.7807969,35.9825399 51.3431201,35.8716635 C51.4839677,35.8428782 51.6269493,35.8290187 51.7656628,35.8290187 C52.7846736,35.8290187 53.669239,36.5550462 53.8687731,37.5540003 L55.6901882,45.0189704 C55.8331698,45.7322045 56.4648498,46.2503387 57.1936293,46.2503387 C57.7378131,46.2503387 58.1646239,45.8473454 58.1646239,45.3313435 C58.1646239,44.1490167 59.1270823,43.1852445 60.3114823,43.1852445 C61.4958823,43.1852445 62.4594077,44.1490167 62.4594077,45.3313435 Z" id="Stroke-33" stroke="#3B73FF" stroke-linecap="round" stroke-linejoin="round"></path>
            <path d="M56.9366892,70.1587124 L58.3739746,58.6680744 C58.6044524,56.8279518 60.1708481,55.4462607 62.0274751,55.4462607 L70.4345811,55.4473268 L70.4345811,60.3504112 L63.6856351,60.3504112 L61.231473,70.1597785 L56.9366892,70.1587124 Z" id="Fill-35" fill="#BBCFFF"></path>
            <path d="M56.9366892,70.1587124 L58.3739746,58.6680744 C58.6044524,56.8279518 60.1708481,55.4462607 62.0274751,55.4462607 L70.4345811,55.4473268 L70.4345811,60.3504112 L63.6856351,60.3504112 L61.231473,70.1597785 L56.9366892,70.1587124 Z" id="Stroke-37" stroke="#3B73FF" stroke-linecap="round" stroke-linejoin="round"></path>
            <path d="M74.7291515,48.1288416 C76.8589374,47.5350129 78.6024596,45.7290061 78.6024596,41.6532306 C78.6024596,37.2544207 73.2843969,33.9899622 68.5937461,33.9899622 C62.8339342,33.9899622 58.1635569,38.6563681 58.1635569,44.4112822 L58.1635569,45.638386 L61.2312596,48.7034801 L61.2312596,55.445621 L74.7291515,55.445621 L74.7291515,48.1288416 Z" id="Fill-39" fill="#FFFFFF"></path>
            <path d="M74.7291515,48.1288416 C76.8589374,47.5350129 78.6024596,45.7290061 78.6024596,41.6532306 C78.6024596,37.2544207 73.2843969,33.9899622 68.5937461,33.9899622 C62.8339342,33.9899622 58.1635569,38.6563681 58.1635569,44.4112822 L58.1635569,45.638386 L61.2312596,48.7034801 L61.2312596,55.445621 L74.7291515,55.445621 L74.7291515,48.1288416 L74.7291515,48.1288416 Z" id="Stroke-41" stroke="#3B73FF" stroke-linecap="round" stroke-linejoin="round"></path>
            <path d="M74.7291515,42.5728654 C74.7291515,43.3095541 73.5831644,43.8969861 72.8885298,44.0430444 L72.8885298,48.3650937 C73.5234109,48.3650937 74.158292,48.2915314 74.7600952,48.1198861" id="Stroke-43" stroke="#3B73FF" stroke-linecap="round" stroke-linejoin="round"></path>
            <path d="M52.6420121,73.8365055 C52.6420121,71.8055475 54.2895018,70.1583926 56.3232554,70.1583926 L61.2315797,70.1583926 L61.2315797,73.8365055 L52.6420121,73.8365055 Z" id="Fill-45" fill="#FFFFFF"></path>
            <path d="M52.6420121,73.8365055 C52.6420121,71.8055475 54.2895018,70.1583926 56.3232554,70.1583926 L61.2315797,70.1583926 L61.2315797,73.8365055 L52.6420121,73.8365055 Z" id="Stroke-47" stroke="#3B73FF" stroke-linecap="round" stroke-linejoin="round"></path>
            <path d="M56.9366892,73.8365055 C56.9366892,71.8055475 58.5841789,70.1583926 60.6179324,70.1583926 L65.5262568,70.1583926 L65.5262568,72.6104679 C65.5262568,73.2874539 64.9767378,73.8365055 64.2991757,73.8365055 L56.9366892,73.8365055 Z" id="Fill-49" fill="#FFFFFF"></path>
            <path d="M56.9366892,73.8365055 C56.9366892,71.8055475 58.5841789,70.1583926 60.6179324,70.1583926 L65.5262568,70.1583926 L65.5262568,72.6104679 C65.5262568,73.2874539 64.9767378,73.8365055 64.2991757,73.8365055 L56.9366892,73.8365055 Z" id="Stroke-51" stroke="#3B73FF" stroke-linecap="round" stroke-linejoin="round"></path>
            <path d="M63.438405,35.3509706 C64.9589185,34.4852814 66.7184461,33.9906019 68.5942796,33.9906019 C69.6719769,33.9906019 70.7112612,34.1537182 71.689725,34.4575623 L66.7536579,38.2817336 L63.438405,35.3509706 Z" id="Fill-53" fill="#FFFFFF"></path>
            <path d="M63.438405,35.3509706 C64.9589185,34.4852814 66.7184461,33.9906019 68.5942796,33.9906019 C69.6719769,33.9906019 70.7112612,34.1537182 71.689725,34.4575623 L66.7536579,38.2817336 L63.438405,35.3509706 Z" id="Stroke-55" stroke="#3B73FF" stroke-linecap="round" stroke-linejoin="round"></path>
            <path d="M74.9959082,36.184463 L68.5937461,40.1205769 L66.7531244,38.2815204 L71.6881244,34.4573491 C72.9002671,34.8336893 74.0174444,35.4232535 74.9959082,36.184463" id="Fill-57" fill="#FFFFFF"></path>
            <path d="M74.9959082,36.184463 L68.5937461,40.1205769 L66.7531244,38.2815204 L71.6881244,34.4573491 C72.9002671,34.8336893 74.0174444,35.4232535 74.9959082,36.184463 Z" id="Stroke-59" stroke="#3B73FF" stroke-linecap="round" stroke-linejoin="round"></path>
            <path d="M63.4467278,35.3463863 C63.4445937,35.3474524 63.4413926,35.3495847 63.4413926,35.3495847 L66.7534445,38.2814138 L65.665077,39.3688559 C65.232931,39.8006344 64.5500337,39.8486097 64.0613354,39.4829307 L61.0437829,37.2216908 C61.7458867,36.4850021 62.5557602,35.8527931 63.4467278,35.3463863" id="Fill-61" fill="#FFFFFF"></path>
            <path d="M63.4467278,35.3463863 C63.4445937,35.3474524 63.4413926,35.3495847 63.4413926,35.3495847 L66.7534445,38.2814138 L65.665077,39.3688559 C65.232931,39.8006344 64.5500337,39.8486097 64.0613354,39.4829307 L61.0437829,37.2216908 C61.7458867,36.4850021 62.5557602,35.8527931 63.4467278,35.3463863 Z" id="Stroke-63" stroke="#3B73FF" stroke-linecap="round" stroke-linejoin="round"></path>
            <line x1="61.2313663" y1="48.7030536" x2="61.2313663" y2="42.5728654" id="Stroke-65" stroke="#3B73FF" stroke-linecap="round" stroke-linejoin="round"></line>
            <line x1="66.7535512" y1="38.2813072" x2="66.7535512" y2="55.4458342" id="Stroke-67" stroke="#3B73FF" stroke-linecap="round" stroke-linejoin="round"></line>
            <path d="M77.9958547,32.764351 C78.6606125,32.764351 79.0468763,31.9850175 78.6157974,31.4796768 C77.1038201,29.7152487 76.2523325,27.4529427 76.2523325,25.0904215 L76.2523325,24.5829485 C76.1712385,25.4891502 75.5544969,26.3804263 74.4074428,26.3804263 L74.4010406,26.3793602 C73.7864331,28.3228964 72.401432,29.9242082 70.5992234,30.8058891 C72.282992,32.0628443 74.3402201,32.764351 76.4838774,32.764351 L77.9958547,32.764351 Z" id="Fill-69" fill="#FFFFFF"></path>
            <path d="M77.9958547,32.764351 C78.6606125,32.764351 79.0468763,31.9850175 78.6157974,31.4796768 C77.1038201,29.7152487 76.2523325,27.4529427 76.2523325,25.0904215 L76.2523325,24.5829485 C76.1712385,25.4891502 75.5544969,26.3804263 74.4074428,26.3804263 L74.4010406,26.3793602 C73.7864331,28.3228964 72.401432,29.9242082 70.5992234,30.8058891 C72.282992,32.0628443 74.3402201,32.764351 76.4838774,32.764351 L77.9958547,32.764351 Z" id="Stroke-71" stroke="#3B73FF" stroke-linecap="round" stroke-linejoin="round"></path>
            <path d="M67.3933406,13.8401934 C71.4704509,13.8401934 74.7761006,17.1430322 74.7761006,21.2166756 L74.7761006,22.6921852 C76.8845461,22.6921852 76.7404974,26.3809594 74.4069093,26.3809594 L74.4005071,26.3798932 C73.4561882,29.3660945 70.6947223,31.544177 67.3933406,31.544177 C63.3151634,31.544177 60.0105806,28.2413382 60.0105806,24.1676949 L60.0105806,21.2166756 C60.0105806,17.1430322 63.3151634,13.8401934 67.3933406,13.8401934" id="Fill-73" fill="#FFFFFF"></path>
            <path d="M67.3933406,13.8401934 C71.4704509,13.8401934 74.7761006,17.1430322 74.7761006,21.2166756 L74.7761006,22.6921852 C76.8845461,22.6921852 76.7404974,26.3809594 74.4069093,26.3809594 L74.4005071,26.3798932 C73.4561882,29.3660945 70.6947223,31.544177 67.3933406,31.544177 C63.3151634,31.544177 60.0105806,28.2413382 60.0105806,24.1676949 L60.0105806,21.2166756 C60.0105806,17.1430322 63.3151634,13.8401934 67.3933406,13.8401934 Z" id="Stroke-75" stroke="#3B73FF" stroke-linecap="round" stroke-linejoin="round"></path>
            <path d="M69.6087022,25.8272168 C69.6087022,26.2344745 69.9394805,26.5649716 70.3460178,26.5649716 C70.7536222,26.5649716 71.0854676,26.2344745 71.0854676,25.8272168 C71.0854676,25.4199591 70.7536222,25.089462 70.3460178,25.089462 C69.9394805,25.089462 69.6087022,25.4199591 69.6087022,25.8272168" id="Fill-77" fill="#D6DAFF"></path>
            <path d="M67.7622119,27.0485635 C66.7837481,27.863079 65.5470638,27.9643603 64.5045784,27.3545399 C64.3562616,27.2671181 64.2100789,27.1647706 64.0713654,27.0485635" id="Stroke-79" stroke="#3B73FF" stroke-linecap="round" stroke-linejoin="round"></path>
            <path d="M69.618092,22.9979484 C69.2104877,22.5906906 68.5489309,22.5906906 68.1413266,22.9979484" id="Stroke-81" stroke="#3B73FF" stroke-linecap="round" stroke-linejoin="round"></path>
            <path d="M63.7113505,22.9979484 C63.3037462,22.5906906 62.6432564,22.5906906 62.2345851,22.9979484" id="Stroke-83" stroke="#3B73FF" stroke-linecap="round" stroke-linejoin="round"></path>
            <path d="M59.2718778,19.0041574 C59.2718778,19.0041574 59.1481027,20.8634701 60.0102605,21.2174219 C60.0102605,21.2174219 60.7486432,19.0041574 62.2254086,19.0041574 C62.2254086,20.479667 63.9273168,21.0916197 64.4405568,21.2174219 C64.4405568,21.2174219 65.1789395,19.7408461 66.6546378,19.0041574 C67.3930205,20.479667 68.9956951,21.2174219 69.6092357,21.2174219 C69.6092357,19.7408461 71.0849341,19.0041574 71.0849341,19.0041574 C71.0849341,19.0041574 73.2990151,22.6918654 76.2525459,22.6918654 L76.2525459,21.2174219 C76.2525459,15.9838403 72.5616995,11.6276752 67.3930205,11.6276752 C63.3159103,11.6276752 59.2718778,14.9294479 59.2718778,19.0041574" id="Fill-85" fill="#FFFFFF"></path>
            <path d="M59.2718778,19.0041574 C59.2718778,19.0041574 59.1481027,20.8634701 60.0102605,21.2174219 C60.0102605,21.2174219 60.7486432,19.0041574 62.2254086,19.0041574 C62.2254086,20.479667 63.9273168,21.0916197 64.4405568,21.2174219 C64.4405568,21.2174219 65.1789395,19.7408461 66.6546378,19.0041574 C67.3930205,20.479667 68.9956951,21.2174219 69.6092357,21.2174219 C69.6092357,19.7408461 71.0849341,19.0041574 71.0849341,19.0041574 C71.0849341,19.0041574 73.2990151,22.6918654 76.2525459,22.6918654 L76.2525459,21.2174219 C76.2525459,15.9838403 72.5616995,11.6276752 67.3930205,11.6276752 C63.3159103,11.6276752 59.2718778,14.9294479 59.2718778,19.0041574 Z" id="Stroke-87" stroke="#3B73FF" stroke-linecap="round" stroke-linejoin="round"></path>
            <path d="M64.9128229,30.3124889 C64.9128229,32.005487 64.2992824,33.9906019 61.8451202,33.9906019 C59.7132002,33.9906019 58.9705494,32.4927037 58.8115624,30.989475 C58.7934229,30.8167636 58.8499754,30.6440522 58.9662813,30.5150517 C59.0825872,30.3860512 59.2490435,30.3124889 59.4229689,30.3124889 L64.9128229,30.3124889 Z" id="Fill-89" fill="#FFFFFF"></path>
            <path d="M64.9128229,30.3124889 C64.9128229,32.005487 64.2992824,33.9906019 61.8451202,33.9906019 C59.7132002,33.9906019 58.9705494,32.4927037 58.8115624,30.989475 C58.7934229,30.8167636 58.8499754,30.6440522 58.9662813,30.5150517 C59.0825872,30.3860512 59.2490435,30.3124889 59.4229689,30.3124889 L64.9128229,30.3124889 Z" id="Stroke-91" stroke="#3B73FF" stroke-linecap="round" stroke-linejoin="round"></path>
            <path d="M66.7535512,32.151119 C66.7535512,31.136173 65.9298064,30.3120625 64.9129296,30.3120625" id="Stroke-93" stroke="#3B73FF" stroke-linecap="round" stroke-linejoin="round"></path>
            <path d="M72.5815462,44.1054125 C71.7353937,44.1054125 71.0482283,43.4177653 71.0482283,42.5733985 L71.0482283,37.4613545 C71.0482283,36.4069622 70.760131,35.3696277 70.2170143,34.4644921 L68.9013699,32.2736161 C68.5108381,31.6211509 67.8215386,31.2320172 67.0596813,31.2320172 C66.6723505,31.2320172 66.2903548,31.3364969 65.9531743,31.5369274 C64.9394986,32.1456818 64.6097872,33.4666041 65.2179926,34.4826161 L66.534704,36.6734921 C66.6766186,36.9101707 66.7523775,37.1820312 66.7523775,37.4613545 L66.7523775,42.5733985 C66.7523775,45.7834848 69.3665937,48.3965442 72.5815462,48.3965442 C72.6861148,48.3965442 72.7832143,48.3709573 72.8877829,48.3656267 L72.8877829,44.0435775 C72.7853483,44.0648999 72.6903829,44.1054125 72.5815462,44.1054125" id="Fill-95" fill="#FFFFFF"></path>
            <path d="M72.5815462,44.1054125 C71.7353937,44.1054125 71.0482283,43.4177653 71.0482283,42.5733985 L71.0482283,37.4613545 C71.0482283,36.4069622 70.760131,35.3696277 70.2170143,34.4644921 L68.9013699,32.2736161 C68.5108381,31.6211509 67.8215386,31.2320172 67.0596813,31.2320172 C66.6723505,31.2320172 66.2903548,31.3364969 65.9531743,31.5369274 C64.9394986,32.1456818 64.6097872,33.4666041 65.2179926,34.4826161 L66.534704,36.6734921 C66.6766186,36.9101707 66.7523775,37.1820312 66.7523775,37.4613545 L66.7523775,42.5733985 C66.7523775,45.7834848 69.3665937,48.3965442 72.5815462,48.3965442 C72.6861148,48.3965442 72.7832143,48.3709573 72.8877829,48.3656267 L72.8877829,44.0435775 C72.7853483,44.0648999 72.6903829,44.1054125 72.5815462,44.1054125 Z" id="Stroke-97" stroke="#3B73FF" stroke-linecap="round" stroke-linejoin="round"></path>
            <path d="M61.2313663,70.1587124 L62.6686517,58.6680744 C62.8991295,56.8279518 64.4655252,55.4462607 66.3221522,55.4462607 L74.7292582,55.4473268 L74.7292582,57.898336 C74.7292582,59.252308 73.6312874,60.3504112 72.275096,60.3504112 L69.8966928,60.3504112 C68.7709792,60.3504112 67.7893144,61.1158852 67.5150884,62.2075917 L65.5261501,70.1597785 L61.2313663,70.1587124 Z" id="Fill-99" fill="#BBCFFF"></path>
            <path d="M61.2313663,70.1587124 L62.6686517,58.6680744 C62.8991295,56.8279518 64.4655252,55.4462607 66.3221522,55.4462607 L74.7292582,55.4473268 L74.7292582,57.898336 C74.7292582,59.252308 73.6312874,60.3504112 72.275096,60.3504112 L69.8966928,60.3504112 C68.7709792,60.3504112 67.7893144,61.1158852 67.5150884,62.2075917 L65.5261501,70.1597785 L61.2313663,70.1587124 Z" id="Stroke-101" stroke="#3B73FF" stroke-linecap="round" stroke-linejoin="round"></path>
            <path d="M14.0716526,72.9213484 C13.8699845,73.5791442 13.1881543,73.9640134 12.5201954,73.7987649 C11.8511694,73.6324502 11.4296937,72.9746543 11.557737,72.2987345 L13.5370721,62.0501259 L17.1094786,62.9350052 L14.0716526,72.9213484 Z" id="Fill-103" fill="#FFFFFF"></path>
            <path d="M14.0716526,72.9213484 C13.8699845,73.5791442 13.1881543,73.9640134 12.5201954,73.7987649 C11.8511694,73.6324502 11.4296937,72.9746543 11.557737,72.2987345 L13.5370721,62.0501259 L17.1094786,62.9350052 L14.0716526,72.9213484 Z" id="Stroke-105" stroke="#3B73FF" stroke-linecap="round" stroke-linejoin="round"></path>
            <path d="M24.949353,72.9213484 C25.1520881,73.5791442 25.8328514,73.9640134 26.5018773,73.7987649 C27.1698362,73.6324502 27.5923789,72.9746543 27.4632686,72.2987345 L25.4850005,62.0501259 L21.911527,62.9350052 L24.949353,72.9213484 Z" id="Fill-107" fill="#FFFFFF"></path>
            <path d="M24.949353,72.9213484 C25.1520881,73.5791442 25.8328514,73.9640134 26.5018773,73.7987649 C27.1698362,73.6324502 27.5923789,72.9746543 27.4632686,72.2987345 L25.4850005,62.0501259 L21.911527,62.9350052 L24.949353,72.9213484 Z" id="Stroke-109" stroke="#3B73FF" stroke-linecap="round" stroke-linejoin="round"></path>
            <path d="M26.8734161,63.4152921 L12.4418756,63.4152921 C11.2628107,63.4152921 10.3078215,62.4600489 10.3078215,61.2830528 L10.3078215,41.3199615 C10.3078215,38.9649031 12.2188669,37.0554828 14.5759296,37.0554828 L22.605308,37.0554828 C24.9623707,37.0554828 26.8734161,38.9649031 26.8734161,41.3199615 L26.8734161,63.4152921 Z" id="Fill-111" fill="#FFFFFF"></path>
            <path d="M26.8734161,63.4152921 L12.4418756,63.4152921 C11.2628107,63.4152921 10.3078215,62.4600489 10.3078215,61.2830528 L10.3078215,41.3199615 C10.3078215,38.9649031 12.2188669,37.0554828 14.5759296,37.0554828 L22.605308,37.0554828 C24.9623707,37.0554828 26.8734161,38.9649031 26.8734161,41.3199615 L26.8734161,63.4152921 Z" id="Stroke-113" stroke="#3B73FF" stroke-linecap="round" stroke-linejoin="round"></path>
            <path d="M33.6220419,63.4152921 L12.4415555,63.4152921 C11.2624906,63.4152921 10.3075014,62.4600489 10.3075014,61.2830528 L10.3075014,60.350198 L33.6220419,60.350198 L33.6220419,63.4152921 Z" id="Fill-115" fill="#FFFFFF"></path>
            <path d="M33.6220419,63.4152921 L12.4415555,63.4152921 C11.2624906,63.4152921 10.3075014,62.4600489 10.3075014,61.2830528 L10.3075014,60.350198 L33.6220419,60.350198 L33.6220419,63.4152921 Z" id="Stroke-117" stroke="#3B73FF" stroke-linecap="round" stroke-linejoin="round"></path>
            <path d="M42.2119296,48.7030536 L36.9963015,48.7030536 C36.4894637,48.7030536 36.0765242,48.2893992 36.0765242,47.7829923 C36.0765242,47.6785126 36.0594518,47.5772312 36.0455804,47.477016 L31.8126842,47.477016 C31.7977458,47.5772312 31.7817404,47.6785126 31.7817404,47.7829923 C31.7817404,50.657251 34.1206637,52.9941854 36.9963015,52.9941854 L42.2119296,52.9941854 C43.3952626,52.9941854 44.358788,52.0314793 44.358788,50.8480864 C44.358788,49.6657597 43.3952626,48.7030536 42.2119296,48.7030536" id="Fill-119" fill="#FFFFFF"></path>
            <path d="M42.2119296,48.7030536 L36.9963015,48.7030536 C36.4894637,48.7030536 36.0765242,48.2893992 36.0765242,47.7829923 C36.0765242,47.6785126 36.0594518,47.5772312 36.0455804,47.477016 L31.8126842,47.477016 C31.7977458,47.5772312 31.7817404,47.6785126 31.7817404,47.7829923 C31.7817404,50.657251 34.1206637,52.9941854 36.9963015,52.9941854 L42.2119296,52.9941854 C43.3952626,52.9941854 44.358788,52.0314793 44.358788,50.8480864 C44.358788,49.6657597 43.3952626,48.7030536 42.2119296,48.7030536 Z" id="Stroke-121" stroke="#3B73FF" stroke-linecap="round" stroke-linejoin="round"></path>
            <path d="M53.8689865,50.5416836 L37.3033919,50.5416836 L39.1440135,39.5073448 C39.1440135,38.8303588 39.6935324,38.2813072 40.3710946,38.2813072 L55.7096081,38.2813072 C56.3871703,38.2813072 56.9366892,38.8303588 56.9366892,39.5073448 L55.0960676,49.315646 C55.0960676,49.992632 54.5465486,50.5416836 53.8689865,50.5416836" id="Fill-123" fill="#FFFFFF"></path>
            <path d="M39.1442269,70.1587124 L33.6223621,70.1587124 L32.1573339,62.3504518 C31.9396604,61.1905136 30.9259848,60.3504112 29.7447858,60.3504112 L24.4192539,60.3504112 L24.4192539,55.4462607 L33.5711448,55.4462607 C35.3712194,55.4462607 36.9066712,56.7458606 37.2022377,58.5198837 L39.1442269,70.1587124 Z" id="Fill-125" fill="#BBCFFF"></path>
            <path d="M39.1442269,70.1587124 L33.6223621,70.1587124 L32.1573339,62.3504518 C31.9396604,61.1905136 30.9259848,60.3504112 29.7447858,60.3504112 L24.4192539,60.3504112 L24.4192539,55.4462607 L33.5711448,55.4462607 C35.3712194,55.4462607 36.9066712,56.7458606 37.2022377,58.5198837 L39.1442269,70.1587124 Z" id="Stroke-127" stroke="#3B73FF" stroke-linecap="round" stroke-linejoin="round"></path>
            <path d="M25.0326878,14.3737863 C20.9662478,14.3737863 17.6702013,17.6670301 17.6702013,21.7300122 L17.6702013,22.7119084 C16.9755667,22.8579668 16.4431202,23.4443327 16.4431202,24.1820875 C16.4431202,24.9742144 17.0523926,25.6042912 17.8249202,25.6842501 C18.5184878,29.0265354 21.4816218,31.5383134 25.0326878,31.5383134 C29.0991278,31.5383134 32.3951743,28.2450696 32.3951743,24.1820875 L32.3951743,21.7300122 C32.3951743,17.6670301 29.0991278,14.3737863 25.0326878,14.3737863" id="Fill-129" fill="#FFFFFF"></path>
            <path d="M25.0326878,14.3737863 C20.9662478,14.3737863 17.6702013,17.6670301 17.6702013,21.7300122 L17.6702013,22.7119084 C16.9755667,22.8579668 16.4431202,23.4443327 16.4431202,24.1820875 C16.4431202,24.9742144 17.0523926,25.6042912 17.8249202,25.6842501 C18.5184878,29.0265354 21.4816218,31.5383134 25.0326878,31.5383134 C29.0991278,31.5383134 32.3951743,28.2450696 32.3951743,24.1820875 L32.3951743,21.7300122 C32.3951743,17.6670301 29.0991278,14.3737863 25.0326878,14.3737863 Z" id="Stroke-131" stroke="#3B73FF" stroke-linecap="round" stroke-linejoin="round"></path>
            <path d="M12.761877,45.6379595 C12.761877,39.2049933 17.9807062,33.9906019 24.4191472,33.9906019 C30.8565213,33.9906019 36.0764175,39.2049933 36.0764175,45.6379595 L36.0764175,47.477016 L33.0087148,47.477016 L33.0055137,55.4462607 L17.0566608,55.4462607 L17.0523926,47.477016 L12.761877,47.477016 L12.761877,45.6379595 Z" id="Fill-133" fill="#FFFFFF"></path>
            <path d="M12.761877,45.6379595 C12.761877,39.2049933 17.9807062,33.9906019 24.4191472,33.9906019 C30.8565213,33.9906019 36.0764175,39.2049933 36.0764175,45.6379595 L36.0764175,47.477016 L33.0087148,47.477016 L33.0055137,55.4462607 L17.0566608,55.4462607 L17.0523926,47.477016 L12.761877,47.477016 L12.761877,45.6379595 Z" id="Stroke-135" stroke="#3B73FF" stroke-linecap="round" stroke-linejoin="round"></path>
            <path d="M24.1120569,21.7299056 C23.604152,21.7299056 23.1922796,22.1414278 23.1922796,22.6499669 C23.1922796,23.1574399 23.604152,23.5689621 24.1120569,23.5689621 C24.6210288,23.5689621 25.0329012,23.1574399 25.0329012,22.6499669 C25.0329012,22.1414278 24.6210288,21.7299056 24.1120569,21.7299056" id="Fill-137" fill="#3B73FF"></path>
            <path d="M29.0204879,21.7299056 C28.512583,21.7299056 28.1007106,22.1414278 28.1007106,22.6499669 C28.1007106,23.1574399 28.512583,23.5689621 29.0204879,23.5689621 C29.5294598,23.5689621 29.9413322,23.1574399 29.9413322,22.6499669 C29.9413322,22.1414278 29.5294598,21.7299056 29.0204879,21.7299056" id="Fill-139" fill="#3B73FF"></path>
            <path d="M22.5782055,25.1016157 C22.5782055,25.6101548 22.1663331,26.0206109 21.6584282,26.0206109 C21.1494563,26.0206109 20.7375839,25.6101548 20.7375839,25.1016157 C20.7375839,24.5941428 21.1494563,24.1826206 21.6584282,24.1826206 C22.1663331,24.1826206 22.5782055,24.5941428 22.5782055,25.1016157" id="Fill-141" fill="#D6DAFF"></path>
            <path d="M24.4189338,27.3035793 C25.5329101,28.0455986 26.9862009,28.0455986 28.1001771,27.3035793" id="Stroke-143" stroke="#3B73FF" stroke-linecap="round" stroke-linejoin="round"></path>
            <path d="M33.0088215,19.8907425 C33.0088215,15.4898004 29.4374821,11.9214978 25.0327945,11.9214978 C20.6270399,11.9214978 17.0567675,15.4898004 17.0567675,19.8907425 L17.0567675,22.3428178 C19.2367037,21.756452 20.5374096,20.4184718 21.3515512,18.6647049 C24.7884453,20.9771185 29.3275783,20.5037613 33.0088215,19.8907425" id="Fill-145" fill="#FFFFFF"></path>
            <path d="M33.0088215,19.8907425 C33.0088215,15.4898004 29.4374821,11.9214978 25.0327945,11.9214978 C20.6270399,11.9214978 17.0567675,15.4898004 17.0567675,19.8907425 L17.0567675,22.3428178 C19.2367037,21.756452 20.5374096,20.4184718 21.3515512,18.6647049 C24.7884453,20.9771185 29.3275783,20.5037613 33.0088215,19.8907425 Z" id="Stroke-147" stroke="#3B73FF" stroke-linecap="round" stroke-linejoin="round"></path>
            <path d="M20.1242568,17.4388805 C20.1242568,17.4388805 20.5990838,18.2320735 21.3513378,18.6649181" id="Stroke-149" stroke="#3B73FF" stroke-linecap="round" stroke-linejoin="round"></path>
            <line x1="17.0565541" y1="47.4765895" x2="17.0565541" y2="43.7984766" id="Stroke-151" stroke="#3B73FF" stroke-linecap="round" stroke-linejoin="round"></line>
            <line x1="33.0088215" y1="47.4765895" x2="33.0088215" y2="43.7984766" id="Stroke-153" stroke="#3B73FF" stroke-linecap="round" stroke-linejoin="round"></line>
            <path d="M42.2119296,73.8365055 C42.2119296,71.8055475 40.5633729,70.1583926 38.5306864,70.1583926 L33.6223621,70.1583926 L33.6223621,73.8365055 L42.2119296,73.8365055 Z" id="Fill-155" fill="#FFFFFF"></path>
            <path d="M42.2119296,73.8365055 C42.2119296,71.8055475 40.5633729,70.1583926 38.5306864,70.1583926 L33.6223621,70.1583926 L33.6223621,73.8365055 L42.2119296,73.8365055 Z" id="Stroke-157" stroke="#3B73FF" stroke-linecap="round" stroke-linejoin="round"></path>
            <path d="M34.8490163,73.8365055 C34.8490163,71.8055475 33.2015266,70.1583926 31.1677731,70.1583926 L26.2594488,70.1583926 L26.2594488,72.6104679 C26.2594488,73.2874539 26.8089677,73.8365055 27.4865298,73.8365055 L34.8490163,73.8365055 Z" id="Fill-159" fill="#FFFFFF"></path>
            <path d="M34.8490163,73.8365055 C34.8490163,71.8055475 33.2015266,70.1583926 31.1677731,70.1583926 L26.2594488,70.1583926 L26.2594488,72.6104679 C26.2594488,73.2874539 26.8089677,73.8365055 27.4865298,73.8365055 L34.8490163,73.8365055 Z" id="Stroke-161" stroke="#3B73FF" stroke-linecap="round" stroke-linejoin="round"></path>
            <path d="M24.4189338,33.990282 C23.1534398,33.990282 21.937029,34.1981754 20.7963771,34.5713173 C21.0823403,36.6641102 22.8600074,38.2814138 25.0324744,38.2814138 C27.0480884,38.2814138 28.7265219,36.8890615 29.1896117,35.0180214 C27.7320528,34.3634239 26.1208419,33.990282 24.4189338,33.990282" id="Fill-163" fill="#FFFFFF"></path>
            <path d="M24.4189338,33.990282 C23.1534398,33.990282 21.937029,34.1981754 20.7963771,34.5713173 C21.0823403,36.6641102 22.8600074,38.2814138 25.0324744,38.2814138 C27.0480884,38.2814138 28.7265219,36.8890615 29.1896117,35.0180214 C27.7320528,34.3634239 26.1208419,33.990282 24.4189338,33.990282 Z" id="Stroke-165" stroke="#3B73FF" stroke-linecap="round" stroke-linejoin="round"></path>
            <path d="M53.8689865,52.9940788 L38.530473,52.9940788 C37.8529108,52.9940788 37.3033919,52.4450271 37.3033919,51.7680411 L37.3033919,50.5420035 L55.0960676,50.5420035 L55.0960676,51.7680411 C55.0960676,52.4450271 54.5465486,52.9940788 53.8689865,52.9940788" id="Fill-167" fill="#FFFFFF"></path>
            <path d="M53.8689865,52.9940788 L38.530473,52.9940788 C37.8529108,52.9940788 37.3033919,52.4450271 37.3033919,51.7680411 L37.3033919,50.5420035 L55.0960676,50.5420035 L55.0960676,51.7680411 C55.0960676,52.4450271 54.5465486,52.9940788 53.8689865,52.9940788 Z" id="Stroke-169" stroke="#3B73FF" stroke-linecap="round" stroke-linejoin="round"></path>
            <path d="M53.8689865,50.5416836 L37.3033919,50.5416836 L39.1440135,39.5073448 C39.1440135,38.8303588 39.6935324,38.2813072 40.3710946,38.2813072 L55.7096081,38.2813072 C56.3871703,38.2813072 56.9366892,38.8303588 56.9366892,39.5073448 L55.0960676,49.315646 C55.0960676,49.992632 54.5465486,50.5416836 53.8689865,50.5416836 Z" id="Stroke-171" stroke="#3B73FF" stroke-linecap="round" stroke-linejoin="round"></path>
            <path d="M48.9605555,45.0247275 C48.9605555,46.0407395 48.1368106,46.8637839 47.1199338,46.8637839 C46.1030571,46.8637839 45.2793122,46.0407395 45.2793122,45.0247275 C45.2793122,44.0087154 46.1030571,43.185671 47.1199338,43.185671 C48.1368106,43.185671 48.9605555,44.0087154 48.9605555,45.0247275" id="Fill-173" fill="#BBCFFF"></path>
            <path d="M48.9605555,45.0247275 C48.9605555,46.0407395 48.1368106,46.8637839 47.1199338,46.8637839 C46.1030571,46.8637839 45.2793122,46.0407395 45.2793122,45.0247275 C45.2793122,44.0087154 46.1030571,43.185671 47.1199338,43.185671 C48.1368106,43.185671 48.9605555,44.0087154 48.9605555,45.0247275 Z" id="Stroke-175" stroke="#3B73FF" stroke-linecap="round" stroke-linejoin="round"></path>
            <line x1="47.1198271" y1="41.9596333" x2="48.3469082" y2="40.7335957" id="Stroke-177" stroke="#3B73FF" stroke-linecap="round" stroke-linejoin="round"></line>
            <path d="M31.7813136,70.1587124 L26.2594488,70.1587124 L24.7944206,62.3504518 C24.5767471,61.1905136 23.5630715,60.3504112 22.3818725,60.3504112 L19.5105028,60.3504112 C18.1553785,60.3504112 17.0563406,59.252308 17.0563406,57.898336 L17.0563406,55.4462607 L26.2082315,55.4462607 C28.0083061,55.4462607 29.5437579,56.7458606 29.8403915,58.5198837 L31.7813136,70.1587124 Z" id="Fill-179" fill="#BBCFFF"></path>
            <path d="M31.7813136,70.1587124 L26.2594488,70.1587124 L24.7944206,62.3504518 C24.5767471,61.1905136 23.5630715,60.3504112 22.3818725,60.3504112 L19.5105028,60.3504112 C18.1553785,60.3504112 17.0563406,59.252308 17.0563406,57.898336 L17.0563406,55.4462607 L26.2082315,55.4462607 C28.0083061,55.4462607 29.5437579,56.7458606 29.8403915,58.5198837 L31.7813136,70.1587124 Z" id="Stroke-181" stroke="#3B73FF" stroke-linecap="round" stroke-linejoin="round"></path>
            <path d="M66.1397973,54.5266258 C66.1397973,55.3731249 65.4526319,56.0586398 64.6064795,56.0586398 L22.2721822,56.0586398 C21.4249627,56.0586398 20.7377973,55.3731249 20.7377973,54.5266258 C20.7377973,53.6801268 21.4249627,52.9946118 22.2721822,52.9946118 L64.6064795,52.9946118 C65.4526319,52.9946118 66.1397973,53.6801268 66.1397973,54.5266258" id="Fill-183" fill="#FFFFFF"></path>
            <path d="M66.1397973,54.5266258 C66.1397973,55.3731249 65.4526319,56.0586398 64.6064795,56.0586398 L22.2721822,56.0586398 C21.4249627,56.0586398 20.7377973,55.3731249 20.7377973,54.5266258 C20.7377973,53.6801268 21.4249627,52.9946118 22.2721822,52.9946118 L64.6064795,52.9946118 C65.4526319,52.9946118 66.1397973,53.6801268 66.1397973,54.5266258 Z" id="Stroke-185" stroke="#3B73FF" stroke-linecap="round" stroke-linejoin="round"></path>
            <path d="M28.7136109,50.5416836 C28.7136109,51.8967218 29.8126488,52.9937589 31.1677731,52.9937589 L37.3031785,52.9937589 L37.3031785,50.5416836 L28.7136109,50.5416836 Z" id="Fill-187" fill="#FFFFFF"></path>
            <path d="M28.7136109,50.5416836 C28.7136109,51.8967218 29.8126488,52.9937589 31.1677731,52.9937589 L37.3031785,52.9937589 L37.3031785,50.5416836 L28.7136109,50.5416836 Z" id="Stroke-189" stroke="#3B73FF" stroke-linecap="round" stroke-linejoin="round"></path>
            <path d="M27.7935135,48.7030536 L17.9768649,48.7030536 C17.470027,48.7030536 17.0560205,48.2893992 17.0560205,47.7829923 L17.0560205,47.477016 L12.7623038,47.477016 L12.7623038,47.7829923 C12.7623038,50.657251 15.10016,52.9941854 17.9768649,52.9941854 L27.7935135,52.9941854 C28.9768465,52.9941854 29.9414389,52.0314793 29.9414389,50.8480864 C29.9414389,49.6657597 28.9768465,48.7030536 27.7935135,48.7030536" id="Fill-191" fill="#FFFFFF"></path>
            <path d="M27.7935135,48.7030536 L17.9768649,48.7030536 C17.470027,48.7030536 17.0560205,48.2893992 17.0560205,47.7829923 L17.0560205,47.477016 L12.7623038,47.477016 L12.7623038,47.7829923 C12.7623038,50.657251 15.10016,52.9941854 17.9768649,52.9941854 L27.7935135,52.9941854 C28.9768465,52.9941854 29.9414389,52.0314793 29.9414389,50.8480864 C29.9414389,49.6657597 28.9768465,48.7030536 27.7935135,48.7030536 Z" id="Stroke-193" stroke="#3B73FF" stroke-linecap="round" stroke-linejoin="round"></path>
            <line x1="46.4664865" y1="1.1274624" x2="46.4664865" y2="12.854779" id="Stroke-195" stroke="#3B73FF" stroke-linecap="round" stroke-linejoin="round"></line>
            <path d="M52.3450585,21.3400256 C52.5563298,21.6683905 52.5712682,22.0852433 52.3845385,22.4274677 C52.1967417,22.7696921 51.8382206,22.9829161 51.4476888,22.9829161 L41.4848574,22.9829161 C41.0953925,22.9829161 40.7358044,22.7696921 40.5490747,22.4274677 C40.362345,22.0852433 40.3762163,21.6683905 40.5874877,21.3400256 L44.0169125,16.0094272 C44.2132455,15.7045169 44.5514931,15.5200782 44.9153493,15.5200782 L48.0182639,15.5200782 C48.3810531,15.5200782 48.7193006,15.7045169 48.9156336,16.0094272 L52.3450585,21.3400256 Z" id="Stroke-197" stroke="#3B73FF" stroke-linecap="round" stroke-linejoin="round"></path>
            <path d="M48.067027,15.5200782 L44.8659459,15.5200782 L44.8659459,14.4539585 C44.8659459,13.5701453 45.5819211,12.854779 46.4664865,12.854779 C47.3510519,12.854779 48.067027,13.5701453 48.067027,14.4539585 L48.067027,15.5200782 Z" id="Fill-199" fill="#D6DAFF"></path>
            <path d="M48.067027,15.5200782 L44.8659459,15.5200782 L44.8659459,14.4539585 C44.8659459,13.5701453 45.5819211,12.854779 46.4664865,12.854779 C47.3510519,12.854779 48.067027,13.5701453 48.067027,14.4539585 L48.067027,15.5200782 Z" id="Stroke-201" stroke="#3B73FF" stroke-linecap="round" stroke-linejoin="round"></path>
            <polygon id="Fill-203" fill="#BBCFFF" points="41.5987092 73.8369319 45.2799524 73.8369319 45.2799524 56.0593861 41.5987092 56.0593861"></polygon>
            <polygon id="Stroke-205" stroke="#3B73FF" stroke-linecap="round" stroke-linejoin="round" points="41.5987092 73.8369319 45.2799524 73.8369319 45.2799524 56.0593861 41.5987092 56.0593861"></polygon>
        </g>
    </g>
</svg>