<?xml version="1.0" encoding="UTF-8"?>
<svg width="94px" height="95px" viewBox="0 0 94 95" version="1.1" xmlns="http://www.w3.org/2000/svg" xmlns:xlink="http://www.w3.org/1999/xlink">
    <title>19- team-idea-brainstorm-3</title>
    <defs>
        <linearGradient x1="50%" y1="0%" x2="50%" y2="100%" id="linearGradient-1">
            <stop stop-color="#DEF1FE" offset="0%"></stop>
            <stop stop-color="#F9D9FB" offset="100%"></stop>
        </linearGradient>
    </defs>
    <g id="Logos" stroke="none" stroke-width="1" fill="none" fill-rule="evenodd">
        <g id="19--team-idea-brainstorm-3">
            <g id="Group-33">
                <path d="M89.7272727,51.2716591 C89.7272727,27.6744545 70.5972045,8.54438636 47,8.54438636 C23.4027955,8.54438636 4.27272727,27.6744545 4.27272727,51.2716591 C4.27272727,57.5579091 5.64213636,63.5215682 8.07972727,68.8966591 L85.9202727,68.8966591 C88.3578636,63.5215682 89.7272727,57.5579091 89.7272727,51.2716591" id="Fill-1" fill="url(#linearGradient-1)"></path>
                <line x1="5.34090909" y1="68.8966591" x2="88.6590909" y2="68.8966591" id="Stroke-3" stroke="#3B73FF" stroke-linecap="round" stroke-linejoin="round"></line>
                <line x1="0.534090909" y1="68.8966591" x2="3.20454545" y2="68.8966591" id="Stroke-5" stroke="#3B73FF" stroke-linecap="round" stroke-linejoin="round"></line>
                <line x1="90.7954545" y1="68.8966591" x2="93.4659091" y2="68.8966591" id="Stroke-7" stroke="#3B73FF" stroke-linecap="round" stroke-linejoin="round"></line>
                <path d="M56.6136364,12.8171136 C56.6136364,8.68752273 53.2659545,5.33984091 49.1363636,5.33984091 C45.0067727,5.33984091 41.6590909,8.68752273 41.6590909,12.8171136 C41.6590909,14.6319545 42.3074773,16.2940455 43.3842045,17.5886818 C44.3423636,18.7401818 44.8636364,20.1865 44.8636364,21.6851591 L44.8636364,24.5671136 C44.8636364,25.7463864 45.8207273,26.7034773 47,26.7034773 L51.2727273,26.7034773 C52.452,26.7034773 53.4090909,25.7463864 53.4090909,24.5671136 L53.4090909,21.6851591 C53.4090909,20.1886364 53.9314318,18.7380455 54.8885227,17.5886818 C55.96525,16.2940455 56.6136364,14.6319545 56.6136364,12.8171136" id="Fill-9" fill="#FFFFFF"></path>
                <path d="M56.6136364,12.8171136 C56.6136364,8.68752273 53.2659545,5.33984091 49.1363636,5.33984091 C45.0067727,5.33984091 41.6590909,8.68752273 41.6590909,12.8171136 C41.6590909,14.6319545 42.3074773,16.2940455 43.3842045,17.5886818 C44.3423636,18.7401818 44.8636364,20.1865 44.8636364,21.6851591 L44.8636364,24.5671136 C44.8636364,25.7463864 45.8207273,26.7034773 47,26.7034773 L51.2727273,26.7034773 C52.452,26.7034773 53.4090909,25.7463864 53.4090909,24.5671136 L53.4090909,21.6851591 C53.4090909,20.1886364 53.9314318,18.7380455 54.8885227,17.5886818 C55.96525,16.2940455 56.6136364,14.6319545 56.6136364,12.8171136 Z" id="Stroke-11" stroke="#3B73FF" stroke-linejoin="round"></path>
                <path d="M61.4204545,78.24325 C61.4204545,79.2761818 53.4101591,80.1125682 43.5284091,80.1125682 C33.6466591,80.1125682 25.6363636,79.2761818 25.6363636,78.24325 C25.6363636,77.2103182 33.6466591,76.3739318 43.5284091,76.3739318 C53.4101591,76.3739318 61.4204545,77.2103182 61.4204545,78.24325" id="Fill-13" fill="#F0F2FF"></path>
                <path d="M44.8636364,23.4989318 L44.8636364,24.5671136 C44.8636364,25.7463864 45.8207273,26.7034773 47,26.7034773 L51.2727273,26.7034773 C52.452,26.7034773 53.4090909,25.7463864 53.4090909,24.5671136 L53.4090909,23.4989318 L44.8636364,23.4989318 Z" id="Fill-15" fill="#D6DAFF"></path>
                <path d="M44.8636364,23.4989318 L44.8636364,24.5671136 C44.8636364,25.7463864 45.8207273,26.7034773 47,26.7034773 L51.2727273,26.7034773 C52.452,26.7034773 53.4090909,25.7463864 53.4090909,24.5671136 L53.4090909,23.4989318 L44.8636364,23.4989318 Z" id="Stroke-17" stroke="#3B73FF" stroke-linejoin="round"></path>
                <path d="M51.2727273,27.2375682 C51.2727273,28.4168409 50.3156364,29.3739318 49.1363636,29.3739318 C47.9570909,29.3739318 47,28.4168409 47,27.2375682 L47,26.7034773 L51.2727273,26.7034773 L51.2727273,27.2375682 Z" id="Fill-19" fill="#D6DAFF"></path>
                <path d="M51.2727273,27.2375682 C51.2727273,28.4168409 50.3156364,29.3739318 49.1363636,29.3739318 C47.9570909,29.3739318 47,28.4168409 47,27.2375682 L47,26.7034773 L51.2727273,26.7034773 L51.2727273,27.2375682 Z" id="Stroke-21" stroke="#3B73FF" stroke-linejoin="round"></path>
                <line x1="49.1363636" y1="2.66938636" x2="49.1363636" y2="0.533022727" id="Stroke-23" stroke="#3B73FF" stroke-linecap="round" stroke-linejoin="round"></line>
                <line x1="56.3116614" y1="5.64181591" x2="57.8231386" y2="4.13033864" id="Stroke-25" stroke="#3B73FF" stroke-linecap="round" stroke-linejoin="round"></line>
                <line x1="59.2840909" y1="12.8171136" x2="61.4204545" y2="12.8171136" id="Stroke-27" stroke="#3B73FF" stroke-linecap="round" stroke-linejoin="round"></line>
                <line x1="41.9610659" y1="5.64181591" x2="40.4495886" y2="4.13033864" id="Stroke-29" stroke="#3B73FF" stroke-linecap="round" stroke-linejoin="round"></line>
                <line x1="38.9886364" y1="12.8171136" x2="36.8522727" y2="12.8171136" id="Stroke-31" stroke="#3B73FF" stroke-linecap="round" stroke-linejoin="round"></line>
            </g>
            <g id="Group-160" transform="translate(4.272727, 8.477273)">
                <g id="Group-36" fill="#FFFFFF">
                    <path d="M34.1818182,52.4080227 C34.1818182,43.2633182 26.7697045,35.8512045 17.625,35.8512045 C8.48029545,35.8512045 1.06818182,43.2633182 1.06818182,52.4080227 L1.06818182,60.4193864 L34.1818182,60.4193864 L34.1818182,52.4080227 Z" id="Fill-34"></path>
                </g>
                <g id="Group-39" stroke="#3B73FF" stroke-linecap="round" stroke-linejoin="round">
                    <path d="M34.1818182,52.4080227 C34.1818182,43.2633182 26.7697045,35.8512045 17.625,35.8512045 C8.48029545,35.8512045 1.06818182,43.2633182 1.06818182,52.4080227 L1.06818182,60.4193864 L34.1818182,60.4193864 L34.1818182,52.4080227 Z" id="Stroke-37"></path>
                </g>
                <g id="Group-42" stroke="#3B73FF" stroke-linecap="round" stroke-linejoin="round">
                    <line x1="27.7727273" y1="48.1352955" x2="27.7727273" y2="60.4193864" id="Stroke-40"></line>
                </g>
                <g id="Group-45" fill="#FFFFFF">
                    <path d="M21.3636364,65.7602955 C21.3636364,67.2343864 20.1683409,68.43075 18.6931818,68.43075 L12.8181818,68.43075 L12.8181818,63.0898409 L18.6931818,63.0898409 C20.1683409,63.0898409 21.3636364,64.2851364 21.3636364,65.7602955" id="Fill-43"></path>
                </g>
                <g id="Group-48" stroke="#3B73FF" stroke-linecap="round" stroke-linejoin="round">
                    <path d="M21.3636364,65.7602955 C21.3636364,67.2343864 20.1683409,68.43075 18.6931818,68.43075 L12.8181818,68.43075 L12.8181818,63.0898409 L18.6931818,63.0898409 C20.1683409,63.0898409 21.3636364,64.2851364 21.3636364,65.7602955 Z" id="Stroke-46"></path>
                </g>
                <g id="Group-51" fill="#FFFFFF">
                    <path d="M7.47727273,59.4398636 C7.47727273,61.1607045 8.87231818,62.55575 10.5931591,62.55575 L14.9545455,62.55575 C15.5441818,62.55575 16.0227273,63.0342955 16.0227273,63.6239318 L16.0227273,67.8966591 C16.0227273,68.4862955 15.5441818,68.9648409 14.9545455,68.9648409 L10.5931591,68.9648409 C5.33236364,68.9648409 1.06818182,64.7006591 1.06818182,59.4398636 L7.47727273,59.4398636 Z" id="Fill-49"></path>
                </g>
                <g id="Group-54" stroke="#3B73FF" stroke-linecap="round" stroke-linejoin="round">
                    <path d="M7.47727273,48.1352955 L7.47727273,59.4398636 C7.47727273,61.1607045 8.87231818,62.55575 10.5931591,62.55575 L14.9545455,62.55575 C15.5441818,62.55575 16.0227273,63.0342955 16.0227273,63.6239318 L16.0227273,67.8966591 C16.0227273,68.4862955 15.5441818,68.9648409 14.9545455,68.9648409 L10.5931591,68.9648409 C5.33236364,68.9648409 1.06818182,64.7006591 1.06818182,59.4398636" id="Stroke-52"></path>
                </g>
                <g id="Group-57" stroke="#3B73FF" stroke-linecap="round" stroke-linejoin="round">
                    <line x1="25.6363636" y1="51.8739318" x2="22.1647727" y2="51.8739318" id="Stroke-55"></line>
                </g>
                <g id="Group-60" fill="#BBCFFF">
                    <path d="M14.9545455,42.2602955 L20.2954545,42.2602955 L19.4291591,45.7244091 C19.3105909,46.19975 18.8833182,46.5330227 18.3930227,46.5330227 L16.8569773,46.5330227 C16.3666818,46.5330227 15.9394091,46.19975 15.8208409,45.7244091 L14.9545455,42.2602955 Z" id="Fill-58"></path>
                </g>
                <g id="Group-63" stroke="#3B73FF" stroke-linecap="round" stroke-linejoin="round">
                    <path d="M14.9545455,42.2602955 L20.2954545,42.2602955 L19.4291591,45.7244091 C19.3105909,46.19975 18.8833182,46.5330227 18.3930227,46.5330227 L16.8569773,46.5330227 C16.3666818,46.5330227 15.9394091,46.19975 15.8208409,45.7244091 L14.9545455,42.2602955 Z" id="Stroke-61"></path>
                </g>
                <g id="Group-66" fill="#BBCFFF">
                    <polygon id="Fill-64" points="16.5568182 46.5330227 14.9545455 60.4193864 20.2954545 60.4193864 18.6931818 46.5330227"></polygon>
                </g>
                <g id="Group-69" stroke="#3B73FF" stroke-linecap="round" stroke-linejoin="round">
                    <polygon id="Stroke-67" points="16.5568182 46.5330227 14.9545455 60.4193864 20.2954545 60.4193864 18.6931818 46.5330227"></polygon>
                </g>
                <g id="Group-72" fill="#FFFFFF">
                    <path d="M17.6255341,37.1499 L17.6255341,43.57715 L13.3709659,45.6974909 L12.5121477,46.1301045 C11.8637614,46.4559 11.086125,46.0542636 10.9761023,45.3375136 L10.3191705,41.0455591 C10.0200795,39.0982636 10.862875,37.0890136 12.5719659,36.1084227 C12.7717159,35.9941273 12.9586477,35.9097409 13.1263523,35.8648773 C13.7437614,35.7099909 14.3868068,36.9052864 15.0416023,36.8294455 L17.6255341,37.1499 Z" id="Fill-70"></path>
                </g>
                <g id="Group-75" stroke="#3B73FF" stroke-linecap="round" stroke-linejoin="round">
                    <path d="M17.6255341,37.1499 L17.6255341,43.57715 L13.3709659,45.6974909 L12.5121477,46.1301045 C11.8637614,46.4559 11.086125,46.0542636 10.9761023,45.3375136 L10.3191705,41.0455591 C10.0200795,39.0982636 10.862875,37.0890136 12.5719659,36.1084227 C12.7717159,35.9941273 12.9586477,35.9097409 13.1263523,35.8648773 C13.7437614,35.7099909 14.3868068,36.9052864 15.0416023,36.8294455 L17.6255341,37.1499 Z" id="Stroke-73"></path>
                </g>
                <g id="Group-78" fill="#FFFFFF">
                    <path d="M24.93115,41.0560273 L24.2752864,45.3373 C24.1652636,46.0551182 23.3876273,46.4556864 22.7392409,46.1298909 L21.8804227,45.6972773 L17.6258545,43.5769364 L17.6258545,37.1496864 L20.2097864,36.8292318 C20.8645818,36.9061409 21.5065591,35.7108455 22.1250364,35.8646636 C22.3066273,35.9138 22.5095818,36.0078 22.7264227,36.1359818 C24.4066727,37.1315273 25.2270364,39.1258227 24.93115,41.0560273" id="Fill-76"></path>
                </g>
                <g id="Group-81" stroke="#3B73FF" stroke-linecap="round" stroke-linejoin="round">
                    <path d="M24.93115,41.0560273 L24.2752864,45.3373 C24.1652636,46.0551182 23.3876273,46.4556864 22.7392409,46.1298909 L21.8804227,45.6972773 L17.6258545,43.5769364 L17.6258545,37.1496864 L20.2097864,36.8292318 C20.8645818,36.9061409 21.5065591,35.7108455 22.1250364,35.8646636 C22.3066273,35.9138 22.5095818,36.0078 22.7264227,36.1359818 C24.4066727,37.1315273 25.2270364,39.1258227 24.93115,41.0560273 Z" id="Stroke-79"></path>
                </g>
                <g id="Group-84" fill="#FFFFFF">
                    <polygon id="Fill-82" points="21.3636364 38.5216591 17.625 42.2602955 13.8863636 38.5216591 13.8863636 32.6466591 21.3636364 32.6466591"></polygon>
                </g>
                <g id="Group-87" stroke="#4550E6" stroke-linecap="round" stroke-linejoin="round">
                    <polygon id="Stroke-85" points="21.3636364 38.5216591 17.625 42.2602955 13.8863636 38.5216591 13.8863636 32.6466591 21.3636364 32.6466591"></polygon>
                </g>
                <g id="Group-90" stroke="#4550E6" stroke-linecap="round" stroke-linejoin="round">
                    <polygon id="Stroke-88" points="21.3636364 38.5216591 17.625 42.2602955 13.8863636 38.5216591 13.8863636 32.6466591 21.3636364 32.6466591"></polygon>
                </g>
                <g id="Group-93" stroke="#3B73FF" stroke-linecap="round" stroke-linejoin="round">
                    <polygon id="Stroke-91" points="21.3636364 38.5216591 17.625 42.2602955 13.8863636 38.5216591 13.8863636 32.6466591 21.3636364 32.6466591"></polygon>
                </g>
                <g id="Group-96" fill="#BBCFFF">
                    <path d="M72.1022727,35.3176477 C63.7159773,35.2535568 57.9114773,41.4105568 56.4929318,47.5974659 C56.3978636,48.0087159 56.5698409,48.4327841 56.9137955,48.6773977 C58.0994773,49.5233977 60.5338636,51.1203295 61.8327727,51.6768523 C62.2301364,51.8477614 62.4886364,52.2280341 62.4886364,52.6606477 L62.4886364,60.4199205 L81.7159091,60.4199205 L81.7159091,52.6606477 C81.7159091,52.2280341 81.9744091,51.8477614 82.3717727,51.6768523 C83.6706818,51.1203295 86.1050682,49.5233977 87.29075,48.6773977 C87.6347045,48.4327841 87.8066818,48.0087159 87.7116136,47.5974659 C86.2930682,41.4105568 80.4885682,35.2535568 72.1022727,35.3176477" id="Fill-94"></path>
                </g>
                <g id="Group-99" stroke="#3B73FF" stroke-linecap="round" stroke-linejoin="round">
                    <path d="M72.1022727,35.3176477 C63.7159773,35.2535568 57.9114773,41.4105568 56.4929318,47.5974659 C56.3978636,48.0087159 56.5698409,48.4327841 56.9137955,48.6773977 C58.0994773,49.5233977 60.5338636,51.1203295 61.8327727,51.6768523 C62.2301364,51.8477614 62.4886364,52.2280341 62.4886364,52.6606477 L62.4886364,60.4199205 L81.7159091,60.4199205 L81.7159091,52.6606477 C81.7159091,52.2280341 81.9744091,51.8477614 82.3717727,51.6768523 C83.6706818,51.1203295 86.1050682,49.5233977 87.29075,48.6773977 C87.6347045,48.4327841 87.8066818,48.0087159 87.7116136,47.5974659 C86.2930682,41.4105568 80.4885682,35.2535568 72.1022727,35.3176477 Z" id="Stroke-97"></path>
                </g>
                <g id="Group-102" fill="#FFFFFF">
                    <polygon id="Fill-100" points="68.3636364 38.5216591 72.1022727 38.5216591 75.8409091 38.5216591 75.8409091 32.6466591 68.3636364 32.6466591"></polygon>
                </g>
                <g id="Group-105" stroke="#4550E6" stroke-linecap="round" stroke-linejoin="round">
                    <polygon id="Stroke-103" points="68.3636364 38.5216591 72.1022727 38.5216591 75.8409091 38.5216591 75.8409091 32.6466591 68.3636364 32.6466591"></polygon>
                </g>
                <g id="Group-108" stroke="#3B73FF" stroke-linecap="round" stroke-linejoin="round">
                    <polygon id="Stroke-106" points="68.3636364 38.5216591 72.1022727 38.5216591 75.8409091 38.5216591 75.8409091 32.6466591 68.3636364 32.6466591"></polygon>
                </g>
                <g id="Group-111" stroke="#3B73FF" stroke-linecap="round" stroke-linejoin="round">
                    <line x1="77.9772727" y1="36.9193864" x2="77.9772727" y2="40.1239318" id="Stroke-109"></line>
                </g>
                <g id="Group-114" stroke="#3B73FF" stroke-linecap="round" stroke-linejoin="round">
                    <line x1="66.2272727" y1="40.1239318" x2="66.2272727" y2="36.9193864" id="Stroke-112"></line>
                </g>
                <g id="Group-117" stroke="#3B73FF" stroke-linecap="round" stroke-linejoin="round">
                    <path d="M72.1022727,40.1239318 C72.1022727,40.1239318 67.2954545,40.6580227 68.3636364,42.2602955 C68.7535227,42.8445909 69.3570455,42.7185455 69.9659091,42.32225 C71.0255455,41.6311364 72.1022727,40.1239318 72.1022727,40.1239318 Z" id="Stroke-115"></path>
                </g>
                <g id="Group-120" stroke="#3B73FF" stroke-linecap="round" stroke-linejoin="round">
                    <path d="M72.1022727,40.1239318 C72.1022727,40.1239318 70.5,44.93075 70.5,49.2034773" id="Stroke-118"></path>
                </g>
                <g id="Group-123" stroke="#3B73FF" stroke-linecap="round" stroke-linejoin="round">
                    <path d="M72.1022727,40.1239318 C72.1022727,40.1239318 76.9090909,40.6580227 75.8409091,42.2602955 C75.4510227,42.8445909 74.8475,42.7185455 74.2386364,42.32225 C73.179,41.6311364 72.1022727,40.1239318 72.1022727,40.1239318 Z" id="Stroke-121"></path>
                </g>
                <g id="Group-126" stroke="#3B73FF" stroke-linecap="round" stroke-linejoin="round">
                    <path d="M72.1022727,40.1239318 C72.1022727,40.1239318 73.7045455,44.93075 73.7045455,49.2034773" id="Stroke-124"></path>
                </g>
                <g id="Group-129" stroke="#3B73FF" stroke-linecap="round" stroke-linejoin="round">
                    <line x1="61.9545455" y1="44.93075" x2="62.4886364" y2="52.9421136" id="Stroke-127"></line>
                </g>
                <g id="Group-132" stroke="#3B73FF" stroke-linecap="round" stroke-linejoin="round">
                    <line x1="57.8826364" y1="49.3464" x2="58.7553409" y2="47.6009909" id="Stroke-130"></line>
                </g>
                <g id="Group-135" stroke="#3B73FF" stroke-linecap="round" stroke-linejoin="round">
                    <line x1="82.25" y1="44.93075" x2="81.7159091" y2="52.9421136" id="Stroke-133"></line>
                </g>
                <g id="Group-138" fill="#FFFFFF">
                    <path d="M82.3720932,51.6772795 C81.9747295,51.8471205 81.7162295,52.2284614 81.7162295,52.6600068 L81.7162295,60.4192795 L87.0571386,60.4192795 L87.0571386,48.8433932 C85.8073659,49.7171659 83.5908886,51.1549386 82.3720932,51.6772795" id="Fill-136"></path>
                </g>
                <g id="Group-141" stroke="#3B73FF" stroke-linecap="round" stroke-linejoin="round">
                    <path d="M82.3720932,51.6772795 C81.9747295,51.8471205 81.7162295,52.2284614 81.7162295,52.6600068 L81.7162295,60.4192795 L87.0571386,60.4192795 L87.0571386,48.8433932 C85.8073659,49.7171659 83.5908886,51.1549386 82.3720932,51.6772795 Z" id="Stroke-139"></path>
                </g>
                <g id="Group-144" fill="#FFFFFF">
                    <path d="M62.4886364,52.6605409 C62.4886364,52.2279273 62.2301364,51.8476545 61.8327727,51.6778136 C60.6150455,51.1554727 58.4007045,49.7198364 57.1509318,48.8449955 L57.1509318,55.6129955 C57.1509318,56.1994273 56.67025,56.6811773 56.08275,56.6811773 C55.49525,56.6811773 55.0145682,56.1994273 55.0145682,55.6129955 L55.0145682,48.6698136 L55.0113636,48.6698136 L55.0113636,47.0675409 L55.9673864,46.5889955 C56.6905455,46.22795 57.1477273,45.4877 57.1477273,44.6780182 L57.1477273,44.3970864 C57.1477273,43.2167455 56.1906364,42.2607227 55.0113636,42.2607227 L55.0113636,36.3857227 C55.0113636,35.5002 54.2946136,34.78345 53.4090909,34.78345 C52.5235682,34.78345 51.8068182,35.5002 51.8068182,36.3857227 L51.8068182,41.0953364 L49.9652727,41.5546545 C48.9505,41.8067455 48.3576591,42.9390182 48.6428636,44.0841091 L48.9002955,45.1202455 C49.0370227,45.6703591 49.3510682,46.1222 49.7527045,46.41595 C49.7131818,47.0899727 49.6704545,47.6529045 49.6704545,47.8227455 L49.6704545,48.6698136 L49.6736591,48.6698136 L49.6736591,55.6129955 C49.6736591,59.1486773 52.5470682,62.0220864 56.08275,62.0220864 C58.6997955,62.0220864 60.9536591,60.4507909 61.9470682,58.1979955 C62.2920909,57.4235636 62.4811591,56.56795 62.4886364,55.6696091 L62.4886364,52.6605409 Z" id="Fill-142"></path>
                </g>
                <g id="Group-147" transform="translate(48.000000, 34.000000)" stroke="#3B73FF" stroke-linecap="round" stroke-linejoin="round">
                    <path d="M14.4886364,18.6605409 C14.4886364,18.2279273 14.2301364,17.8476545 13.8327727,17.6778136 C12.6150455,17.1554727 10.4007045,15.7198364 9.15093182,14.8449955 L9.15093182,21.6129955 C9.15093182,22.1994273 8.67025,22.6811773 8.08275,22.6811773 C7.49525,22.6811773 7.01456818,22.1994273 7.01456818,21.6129955 L7.01456818,14.6698136 L7.01136364,14.6698136 L7.01136364,13.0675409 L7.96738636,12.5889955 C8.69054545,12.22795 9.14772727,11.4877 9.14772727,10.6780182 L9.14772727,10.3970864 C9.14772727,9.21674545 8.19063636,8.26072273 7.01136364,8.26072273 L7.01136364,2.38572273 C7.01136364,1.5002 6.29461364,0.78345 5.40909091,0.78345 C4.52356818,0.78345 3.80681818,1.5002 3.80681818,2.38572273 L3.80681818,7.09533636 L1.96527273,7.55465455 C0.9505,7.80674545 0.357659091,8.93901818 0.642863636,10.0841091 L0.900295455,11.1202455 C1.03702273,11.6703591 1.35106818,12.1222 1.75270455,12.41595 C1.71318182,13.0899727 1.67045455,13.6529045 1.67045455,13.8227455 L1.67045455,14.6698136 L1.67365909,14.6698136 L1.67365909,21.6129955 C1.67365909,25.1486773 4.54706818,28.0220864 8.08275,28.0220864 C10.6997955,28.0220864 12.9536591,26.4507909 13.9470682,24.1979955 C14.2920909,23.4235636 14.4811591,22.56795 14.4886364,21.6696091 L14.4886364,18.6605409 Z" id="Stroke-145"></path>
                </g>
                <g id="Group-150" transform="translate(47.000000, 40.000000)" fill="#FFFFFF">
                    <path d="M3.18627955,6.73693864 L5.94325682,6.05116591 C6.95802955,5.799075 7.54980227,4.66573409 7.26459773,3.52064318 L7.00716591,2.48450682 C6.72196136,1.33941591 5.66873409,0.616256818 4.65396136,0.868347727 L1.89698409,1.55412045 C0.882211364,1.80621136 0.290438636,2.93955227 0.574575,4.08464318 L0.832006818,5.12077955 C1.11721136,6.26587045 2.17150682,6.98902955 3.18627955,6.73693864" id="Fill-148"></path>
                </g>
                <g id="Group-153" transform="translate(47.000000, 40.000000)" stroke="#3B73FF" stroke-linecap="round" stroke-linejoin="round">
                    <path d="M3.18627955,6.73693864 L5.94325682,6.05116591 C6.95802955,5.799075 7.54980227,4.66573409 7.26459773,3.52064318 L7.00716591,2.48450682 C6.72196136,1.33941591 5.66873409,0.616256818 4.65396136,0.868347727 L1.89698409,1.55412045 C0.882211364,1.80621136 0.290438636,2.93955227 0.574575,4.08464318 L0.832006818,5.12077955 C1.11721136,6.26587045 2.17150682,6.98902955 3.18627955,6.73693864 Z" id="Stroke-151"></path>
                </g>
                <g id="Group-156" transform="translate(66.000000, 35.000000)" fill="#D6DAFF">
                    <path d="M6.10227273,5.12393182 C1.75370455,5.12393182 0.394977273,2.50795455 0.339431818,2.39686364 C0.0755909091,1.86918182 0.290295455,1.22827273 0.817977273,0.963363636 C1.34672727,0.699522727 1.9855,0.914227273 2.25147727,1.44190909 C2.27604545,1.48677273 3.14234091,2.98756818 6.10227273,2.98756818 C9.06220455,2.98756818 9.9285,1.48677273 9.96375,1.42268182 C10.24575,0.915295455 10.8866591,0.716613636 11.4015227,0.984727273 C11.9153182,1.25604545 12.1246818,1.87665909 11.8651136,2.39686364 C11.8095682,2.50795455 10.4508409,5.12393182 6.10227273,5.12393182" id="Fill-154"></path>
                </g>
                <g id="Group-159" stroke="#3B73FF">
                    <path d="M72.1022727,40.1239318 C67.7537045,40.1239318 66.3949773,37.5079545 66.3394318,37.3968636 C66.0755909,36.8691818 66.2902955,36.2282727 66.8179773,35.9633636 C67.3467273,35.6995227 67.9855,35.9142273 68.2514773,36.4419091 C68.2760455,36.4867727 69.1423409,37.9875682 72.1022727,37.9875682 C75.0622045,37.9875682 75.9285,36.4867727 75.96375,36.4226818 C76.24575,35.9152955 76.8866591,35.7166136 77.4015227,35.9847273 C77.9153182,36.2560455 78.1246818,36.8766591 77.8651136,37.3968636 C77.8095682,37.5079545 76.4508409,40.1239318 72.1022727,40.1239318 Z" id="Stroke-157"></path>
                </g>
            </g>
            <g id="Group-263" transform="translate(8.545455, 8.477273)">
                <path d="M24.0340909,21.43075 L24.0340909,18.7602955 C24.0340909,12.8607273 19.2518409,8.07847727 13.3522727,8.07847727 C7.45270455,8.07847727 2.67045455,12.8607273 2.67045455,18.7602955 L2.67045455,21.43075 C1.49118182,21.43075 0.534090909,22.3867727 0.534090909,23.5671136 C0.534090909,24.7463864 1.49118182,25.7034773 2.67045455,25.7034773 C2.71531818,25.7034773 2.75697727,25.6927955 2.80184091,25.6895909 C3.57093182,30.8339545 7.99427273,34.7830227 13.3522727,34.7830227 C18.7102727,34.7830227 23.1336136,30.8339545 23.9027045,25.6895909 C23.9475682,25.6927955 23.9892273,25.7034773 24.0340909,25.7034773 C25.2133636,25.7034773 26.1704545,24.7463864 26.1704545,23.5671136 C26.1704545,22.3867727 25.2133636,21.43075 24.0340909,21.43075" id="Fill-161" fill="#FFFFFF"></path>
                <path d="M24.0340909,21.43075 L24.0340909,18.7602955 C24.0340909,12.8607273 19.2518409,8.07847727 13.3522727,8.07847727 C7.45270455,8.07847727 2.67045455,12.8607273 2.67045455,18.7602955 L2.67045455,21.43075 C1.49118182,21.43075 0.534090909,22.3867727 0.534090909,23.5671136 C0.534090909,24.7463864 1.49118182,25.7034773 2.67045455,25.7034773 C2.71531818,25.7034773 2.75697727,25.6927955 2.80184091,25.6895909 C3.57093182,30.8339545 7.99427273,34.7830227 13.3522727,34.7830227 C18.7102727,34.7830227 23.1336136,30.8339545 23.9027045,25.6895909 C23.9475682,25.6927955 23.9892273,25.7034773 24.0340909,25.7034773 C25.2133636,25.7034773 26.1704545,24.7463864 26.1704545,23.5671136 C26.1704545,22.3867727 25.2133636,21.43075 24.0340909,21.43075 Z" id="Stroke-163" stroke="#3B73FF" stroke-linecap="round" stroke-linejoin="round"></path>
                <path d="M10.1299955,28.6905409 C12.0762227,30.4039045 14.6110182,30.4039045 16.5572455,28.6905409" id="Stroke-165" stroke="#3B73FF" stroke-linecap="round" stroke-linejoin="round"></path>
                <path d="M8.54545455,25.9705227 C8.54545455,26.7075682 7.94727273,27.30575 7.21022727,27.30575 C6.47318182,27.30575 5.875,26.7075682 5.875,25.9705227 C5.875,25.2334773 6.47318182,24.6352955 7.21022727,24.6352955 C7.94727273,24.6352955 8.54545455,25.2334773 8.54545455,25.9705227" id="Fill-167" fill="#BBCFFF"></path>
                <path d="M18.1590909,25.9705227 C18.1590909,26.7075682 18.7572727,27.30575 19.4943182,27.30575 C20.2313636,27.30575 20.8295455,26.7075682 20.8295455,25.9705227 C20.8295455,25.2334773 20.2313636,24.6352955 19.4943182,24.6352955 C18.7572727,24.6352955 18.1590909,25.2334773 18.1590909,25.9705227" id="Fill-169" fill="#BBCFFF"></path>
                <path d="M19.2272727,22.4989318 C18.8961364,21.8697727 18.3150455,21.4275455 17.6207273,21.4275455 C16.9253409,21.4275455 16.34425,21.8697727 16.0141818,22.4989318" id="Stroke-171" stroke="#3B73FF" stroke-linecap="round" stroke-linejoin="round"></path>
                <path d="M10.6906841,22.4989318 C10.3595477,21.8697727 9.77845682,21.4275455 9.08413864,21.4275455 C8.38982045,21.4275455 7.80766136,21.8697727 7.47759318,22.4989318" id="Stroke-173" stroke="#3B73FF" stroke-linecap="round" stroke-linejoin="round"></path>
                <path d="M13.8879659,7.01029545 L13.8879659,7.01029545 C7.39876136,7.01029545 2.13796591,12.2710909 2.13796591,18.7602955 L2.13796591,21.43075 L2.17214773,21.43075 C3.77976136,21.43075 5.20364773,20.3946136 5.69928409,18.8660455 L6.61151136,16.0513864 C6.79310227,15.4895227 7.396625,15.1850909 7.95848864,15.36775 C9.405875,15.8388182 12.0880795,16.6239318 13.8879659,16.6239318 C16.4580114,16.6239318 20.8311477,15.0216591 20.8311477,15.0216591 L22.1215114,18.8948864 C22.6256932,20.4085 24.0421023,21.43075 25.6379659,21.43075 L25.6379659,18.7602955 C25.6379659,12.2710909 20.3771705,7.01029545 13.8879659,7.01029545" id="Fill-175" fill="#FFFFFF"></path>
                <path d="M13.8879659,7.01029545 L13.8879659,7.01029545 C7.39876136,7.01029545 2.13796591,12.2710909 2.13796591,18.7602955 L2.13796591,21.43075 L2.17214773,21.43075 C3.77976136,21.43075 5.20364773,20.3946136 5.69928409,18.8660455 L6.61151136,16.0513864 C6.79310227,15.4895227 7.396625,15.1850909 7.95848864,15.36775 C9.405875,15.8388182 12.0880795,16.6239318 13.8879659,16.6239318 C16.4580114,16.6239318 20.8311477,15.0216591 20.8311477,15.0216591 L22.1215114,18.8948864 C22.6256932,20.4085 24.0421023,21.43075 25.6379659,21.43075 L25.6379659,18.7602955 C25.6379659,12.2710909 20.3771705,7.01029545 13.8879659,7.01029545 Z" id="Stroke-177" stroke="#3B73FF" stroke-linecap="round" stroke-linejoin="round"></path>
                <path d="M26.7061477,21.43075 C26.7061477,21.43075 22.4334205,22.4989318 19.228875,17.1580227 C19.228875,17.1580227 18.6947841,19.8284773 16.5584205,19.8284773 C16.5584205,19.8284773 18.1606932,16.6239318 13.8879659,16.6239318 C10.6406932,16.6239318 8.01296591,13.9962045 8.01296591,10.7489318 C8.01296591,7.50165909 10.6406932,4.87393182 13.8879659,4.87393182 C13.8879659,4.87393182 22.4334205,4.87393182 26.1720568,12.3512045 C26.1720568,12.3512045 27.7743295,15.55575 26.7061477,21.43075" id="Fill-179" fill="#FFFFFF"></path>
                <path d="M26.7061477,21.43075 C26.7061477,21.43075 22.4334205,22.4989318 19.228875,17.1580227 C19.228875,17.1580227 18.6947841,19.8284773 16.5584205,19.8284773 C16.5584205,19.8284773 18.1606932,16.6239318 13.8879659,16.6239318 C10.6406932,16.6239318 8.01296591,13.9962045 8.01296591,10.7489318 C8.01296591,7.50165909 10.6406932,4.87393182 13.8879659,4.87393182 C13.8879659,4.87393182 22.4334205,4.87393182 26.1720568,12.3512045 C26.1720568,12.3512045 27.7743295,15.55575 26.7061477,21.43075 Z" id="Stroke-181" stroke="#3B73FF" stroke-linecap="round" stroke-linejoin="round"></path>
                <path d="M61.0220227,7.81143182 C61.0220227,10.9080909 63.5333182,13.4193864 66.6299773,13.4193864 C69.7266364,13.4193864 72.2379318,10.9080909 72.2379318,7.81143182 C72.2379318,4.71477273 69.7266364,2.20347727 66.6299773,2.20347727 C63.5333182,2.20347727 61.0220227,4.71477273 61.0220227,7.81143182" id="Fill-183" fill="#FFFFFF"></path>
                <path d="M61.0220227,7.81143182 C61.0220227,10.9080909 63.5333182,13.4193864 66.6299773,13.4193864 C69.7266364,13.4193864 72.2379318,10.9080909 72.2379318,7.81143182 C72.2379318,4.71477273 69.7266364,2.20347727 66.6299773,2.20347727 C63.5333182,2.20347727 61.0220227,4.71477273 61.0220227,7.81143182 Z" id="Stroke-185" stroke="#3B73FF" stroke-linecap="round" stroke-linejoin="round"></path>
                <path d="M55.0113636,18.7602955 C55.0113636,25.8391364 60.7507045,31.5784773 67.8295455,31.5784773 C74.9083864,31.5784773 80.6477273,25.8391364 80.6477273,18.7602955 C80.6477273,11.6814545 74.9083864,5.94211364 67.8295455,5.94211364 C60.7507045,5.94211364 55.0113636,11.6814545 55.0113636,18.7602955" id="Fill-187" fill="#FFFFFF"></path>
                <path d="M55.0113636,18.7602955 C55.0113636,25.8391364 60.7507045,31.5784773 67.8295455,31.5784773 C74.9083864,31.5784773 80.6477273,25.8391364 80.6477273,18.7602955 C80.6477273,11.6814545 74.9083864,5.94211364 67.8295455,5.94211364 C60.7507045,5.94211364 55.0113636,11.6814545 55.0113636,18.7602955 Z" id="Stroke-189" stroke="#3B73FF" stroke-linecap="round" stroke-linejoin="round"></path>
                <path d="M55.0113636,23.5671136 C55.0113636,24.7421136 55.9727273,25.7034773 57.1477273,25.7034773 C57.1904545,25.7034773 57.2331818,25.6927955 57.2759091,25.6927955 C58.045,30.83075 62.4672727,34.7830227 67.8295455,34.7830227 C73.1918182,34.7830227 77.6140909,30.83075 78.3831818,25.6927955 C78.4259091,25.6927955 78.4686364,25.7034773 78.5113636,25.7034773 C79.6863636,25.7034773 80.6477273,24.7421136 80.6477273,23.5671136 C80.6477273,22.3921136 79.6863636,21.43075 78.5113636,21.43075 L78.5113636,19.7067045 C76.3322727,19.4823864 73.6190909,18.7773864 71.3438636,16.3098864 C70.3397727,15.2203409 69.5172727,13.2655682 68.9190909,12.1332955 C68.2354545,13.9064773 66.9215909,16.4914773 65.0843182,17.9335227 C62.5206818,19.9523864 59.5404545,20.0164773 57.1477273,19.6639773 L57.1477273,21.43075 C55.9727273,21.43075 55.0113636,22.3921136 55.0113636,23.5671136" id="Fill-191" fill="#FFFFFF"></path>
                <path d="M55.0113636,23.5671136 C55.0113636,24.7421136 55.9727273,25.7034773 57.1477273,25.7034773 C57.1904545,25.7034773 57.2331818,25.6927955 57.2759091,25.6927955 C58.045,30.83075 62.4672727,34.7830227 67.8295455,34.7830227 C73.1918182,34.7830227 77.6140909,30.83075 78.3831818,25.6927955 C78.4259091,25.6927955 78.4686364,25.7034773 78.5113636,25.7034773 C79.6863636,25.7034773 80.6477273,24.7421136 80.6477273,23.5671136 C80.6477273,22.3921136 79.6863636,21.43075 78.5113636,21.43075 L78.5113636,19.7067045 C76.3322727,19.4823864 73.6190909,18.7773864 71.3438636,16.3098864 C70.3397727,15.2203409 69.5172727,13.2655682 68.9190909,12.1332955 C68.2354545,13.9064773 66.9215909,16.4914773 65.0843182,17.9335227 C62.5206818,19.9523864 59.5404545,20.0164773 57.1477273,19.6639773 L57.1477273,21.43075 C55.9727273,21.43075 55.0113636,22.3921136 55.0113636,23.5671136 Z" id="Stroke-193" stroke="#3B73FF" stroke-linecap="round" stroke-linejoin="round"></path>
                <path d="M61.9545455,22.4989318 C62.2856818,21.8708409 62.8667727,21.4286136 63.5610909,21.4286136 C64.2554091,21.4286136 64.8375682,21.8708409 65.1687045,22.4989318" id="Stroke-195" stroke="#3B73FF" stroke-linecap="round" stroke-linejoin="round"></path>
                <path d="M70.4916682,22.4989318 C70.8217364,21.8708409 71.4038955,21.4286136 72.0982136,21.4286136 C72.7925318,21.4286136 73.3736227,21.8708409 73.7047591,22.4989318" id="Stroke-197" stroke="#3B73FF" stroke-linecap="round" stroke-linejoin="round"></path>
                <path d="M72.6363636,25.9705227 C72.6363636,26.7075682 73.2345455,27.30575 73.9715909,27.30575 C74.7086364,27.30575 75.3068182,26.7075682 75.3068182,25.9705227 C75.3068182,25.2334773 74.7086364,24.6352955 73.9715909,24.6352955 C73.2345455,24.6352955 72.6363636,25.2334773 72.6363636,25.9705227" id="Fill-199" fill="#BBCFFF"></path>
                <path d="M63.0227273,25.9705227 C63.0227273,26.7075682 62.4245455,27.30575 61.6875,27.30575 C60.9504545,27.30575 60.3522727,26.7075682 60.3522727,25.9705227 C60.3522727,25.2334773 60.9504545,24.6352955 61.6875,24.6352955 C62.4245455,24.6352955 63.0227273,25.2334773 63.0227273,25.9705227" id="Fill-201" fill="#BBCFFF"></path>
                <path d="M70.3717114,28.9080227 C68.7544841,30.3319091 66.6480295,30.3319091 65.0308023,28.9080227" id="Stroke-203" stroke="#3B73FF" stroke-linecap="round" stroke-linejoin="round"></path>
                <path d="M55.5454545,25.7034773 C55.5454545,26.2931136 56.024,26.7716591 56.6136364,26.7716591 C57.2032727,26.7716591 57.6818182,26.2931136 57.6818182,25.7034773 C57.6818182,25.1138409 57.2032727,24.6352955 56.6136364,24.6352955 C56.024,24.6352955 55.5454545,25.1138409 55.5454545,25.7034773" id="Fill-205" fill="#D6DAFF"></path>
                <path d="M55.5454545,25.7034773 C55.5454545,26.2931136 56.024,26.7716591 56.6136364,26.7716591 C57.2032727,26.7716591 57.6818182,26.2931136 57.6818182,25.7034773 C57.6818182,25.1138409 57.2032727,24.6352955 56.6136364,24.6352955 C56.024,24.6352955 55.5454545,25.1138409 55.5454545,25.7034773 Z" id="Stroke-207" stroke="#3B73FF" stroke-linecap="round" stroke-linejoin="round"></path>
                <polygon id="Fill-209" fill="#D6DAFF" points="56.6136364 26.7716591 57.6818182 27.8398409 56.6136364 31.5784773 55.5454545 27.8398409"></polygon>
                <polygon id="Stroke-211" stroke="#3B73FF" stroke-linecap="round" stroke-linejoin="round" points="56.6136364 26.7716591 57.6818182 27.8398409 56.6136364 31.5784773 55.5454545 27.8398409"></polygon>
                <path d="M80.1136364,25.7034773 C80.1136364,26.2931136 79.6350909,26.7716591 79.0454545,26.7716591 C78.4558182,26.7716591 77.9772727,26.2931136 77.9772727,25.7034773 C77.9772727,25.1138409 78.4558182,24.6352955 79.0454545,24.6352955 C79.6350909,24.6352955 80.1136364,25.1138409 80.1136364,25.7034773" id="Fill-213" fill="#D6DAFF"></path>
                <path d="M80.1136364,25.7034773 C80.1136364,26.2931136 79.6350909,26.7716591 79.0454545,26.7716591 C78.4558182,26.7716591 77.9772727,26.2931136 77.9772727,25.7034773 C77.9772727,25.1138409 78.4558182,24.6352955 79.0454545,24.6352955 C79.6350909,24.6352955 80.1136364,25.1138409 80.1136364,25.7034773 Z" id="Stroke-215" stroke="#3B73FF" stroke-linecap="round" stroke-linejoin="round"></path>
                <polygon id="Fill-217" fill="#D6DAFF" points="79.0454545 26.7716591 77.9772727 27.8398409 79.0454545 31.5784773 80.1136364 27.8398409"></polygon>
                <polygon id="Stroke-219" stroke="#3B73FF" stroke-linecap="round" stroke-linejoin="round" points="79.0454545 26.7716591 77.9772727 27.8398409 79.0454545 31.5784773 80.1136364 27.8398409"></polygon>
                <line x1="63.6924773" y1="5.40802273" x2="60.4879318" y2="2.73756818" id="Stroke-221" stroke="#3B73FF" stroke-linecap="round" stroke-linejoin="round"></line>
                <path d="M57.8174773,1.66938636 C57.8174773,2.55490909 58.5352955,3.27165909 59.41975,3.27165909 C60.3052727,3.27165909 61.0220227,2.55490909 61.0220227,1.66938636 C61.0220227,0.783863636 60.3052727,0.0671136364 59.41975,0.0671136364 C58.5352955,0.0671136364 57.8174773,0.783863636 57.8174773,1.66938636" id="Fill-223" fill="#D6DAFF"></path>
                <path d="M57.8174773,1.66938636 C57.8174773,2.55490909 58.5352955,3.27165909 59.41975,3.27165909 C60.3052727,3.27165909 61.0220227,2.55490909 61.0220227,1.66938636 C61.0220227,0.783863636 60.3052727,0.0671136364 59.41975,0.0671136364 C58.5352955,0.0671136364 57.8174773,0.783863636 57.8174773,1.66938636 Z" id="Stroke-225" stroke="#3B73FF"></path>
                <path d="M67.8295455,8.61256818 C73.9213864,8.61256818 78.9300909,13.2484773 79.5207955,19.1843636 C79.5838182,19.8135227 79.0849773,20.3625682 78.4515455,20.3625682 L57.2075455,20.3625682 C56.5741136,20.3625682 56.0752727,19.8135227 56.1382955,19.1843636 C56.729,13.2484773 61.7377045,8.61256818 67.8295455,8.61256818" id="Fill-227" fill="#FFFFFF"></path>
                <path d="M67.8295455,8.61256818 C73.9213864,8.61256818 78.9300909,13.2484773 79.5207955,19.1843636 C79.5838182,19.8135227 79.0849773,20.3625682 78.4515455,20.3625682 L57.2075455,20.3625682 C56.5741136,20.3625682 56.0752727,19.8135227 56.1382955,19.1843636 C56.729,13.2484773 61.7377045,8.61256818 67.8295455,8.61256818 Z" id="Stroke-229" stroke="#3B73FF" stroke-linecap="round" stroke-linejoin="round"></path>
                <line x1="75.8409091" y1="20.3625682" x2="75.8409091" y2="16.6239318" id="Stroke-231" stroke="#3B73FF" stroke-linecap="round" stroke-linejoin="round"></line>
                <line x1="72.1022727" y1="20.3625682" x2="72.1022727" y2="16.6239318" id="Stroke-233" stroke="#3B73FF" stroke-linecap="round" stroke-linejoin="round"></line>
                <line x1="68.3636364" y1="20.3625682" x2="68.3636364" y2="16.6239318" id="Stroke-235" stroke="#3B73FF" stroke-linecap="round" stroke-linejoin="round"></line>
                <line x1="64.625" y1="20.3625682" x2="64.625" y2="16.6239318" id="Stroke-237" stroke="#3B73FF" stroke-linecap="round" stroke-linejoin="round"></line>
                <line x1="60.8863636" y1="20.3625682" x2="60.8863636" y2="16.6239318" id="Stroke-239" stroke="#3B73FF" stroke-linecap="round" stroke-linejoin="round"></line>
                <path d="M29.2404091,66.2943864 L26.8519545,66.2943864 L31.9535909,50.4778182 C32.0956591,50.0366591 32.5069091,49.7375682 32.9694318,49.7375682 L34.5813182,49.7375682 L29.2404091,66.2943864 Z" id="Fill-241" fill="#FFFFFF"></path>
                <path d="M29.2404091,66.2943864 L26.8519545,66.2943864 L31.9535909,50.4778182 C32.0956591,50.0366591 32.5069091,49.7375682 32.9694318,49.7375682 L34.5813182,49.7375682 L29.2404091,66.2943864 Z" id="Stroke-243" stroke="#3B73FF" stroke-linejoin="round"></path>
                <path d="M50.0699545,66.2943864 L29.2404091,66.2943864 L34.5813182,49.7375682 L53.9431818,49.7375682 C54.285,49.7375682 54.6054545,49.901 54.8073409,50.1765909 C55.0081591,50.45325 55.0647727,50.8078864 54.9600909,51.1336818 L50.0699545,66.2943864 Z" id="Fill-245" fill="#FFFFFF"></path>
                <path d="M50.0699545,66.2943864 L28.1722273,66.2943864 L28.1722273,68.9648409 L47.9335909,68.9648409 C49.1128636,68.9648409 50.0699545,68.00775 50.0699545,66.8284773 L50.0699545,66.2943864 Z" id="Fill-247" fill="#FFFFFF"></path>
                <path d="M50.0699545,66.2943864 L28.1722273,66.2943864 L28.1722273,68.9648409 L47.9335909,68.9648409 C49.1128636,68.9648409 50.0699545,68.00775 50.0699545,66.8284773 L50.0699545,66.2943864 Z" id="Stroke-249" stroke="#3B73FF" stroke-linejoin="round"></path>
                <path d="M28.1722273,66.2943864 L18.50625,66.2943864 C18.2114318,66.2943864 17.9721591,66.5336591 17.9721591,66.8284773 C17.9721591,68.00775 18.9281818,68.9648409 20.1085227,68.9648409 L28.1722273,68.9648409 L28.1722273,66.2943864 Z" id="Fill-251" fill="#FFFFFF"></path>
                <path d="M28.1722273,66.2943864 L18.50625,66.2943864 C18.2114318,66.2943864 17.9721591,66.5336591 17.9721591,66.8284773 C17.9721591,68.00775 18.9281818,68.9648409 20.1085227,68.9648409 L28.1722273,68.9648409 L28.1722273,66.2943864 Z" id="Stroke-253" stroke="#3B73FF" stroke-linejoin="round"></path>
                <path d="M44.0254341,57.4266614 C44.0179568,56.7622523 44.5670023,56.4439341 44.5915705,56.4268432 C44.2828659,55.9771386 43.8032523,55.9151841 43.6323432,55.9077068 C43.2232295,55.8660477 42.8354795,56.1480477 42.6271841,56.1480477 C42.421025,56.1480477 42.1005705,55.9130477 41.7619568,55.9194568 C41.316525,55.9269341 40.905275,56.179025 40.6756159,56.5774568 C40.2130932,57.3807295 40.5581159,58.5696159 41.0088886,59.2212068 C41.2289341,59.5405932 41.4917068,59.8984341 41.8367295,59.8856159 C42.1700023,59.8717295 42.2949795,59.6709114 42.6966159,59.6709114 C43.0982523,59.6709114 43.2104114,59.8856159 43.5618432,59.8781386 C43.9196841,59.8727977 44.1461386,59.5544795 44.3651159,59.234025 C44.6193432,58.8644341 44.7218886,58.5065932 44.7282977,58.4873659 C44.7208205,58.4841614 44.0318432,58.2203205 44.0254341,57.4266614" id="Fill-255" fill="#BBCFFF"></path>
                <path d="M44.0254341,57.4266614 C44.0179568,56.7622523 44.5670023,56.4439341 44.5915705,56.4268432 C44.2828659,55.9771386 43.8032523,55.9151841 43.6323432,55.9077068 C43.2232295,55.8660477 42.8354795,56.1480477 42.6271841,56.1480477 C42.421025,56.1480477 42.1005705,55.9130477 41.7619568,55.9194568 C41.316525,55.9269341 40.905275,56.179025 40.6756159,56.5774568 C40.2130932,57.3807295 40.5581159,58.5696159 41.0088886,59.2212068 C41.2289341,59.5405932 41.4917068,59.8984341 41.8367295,59.8856159 C42.1700023,59.8717295 42.2949795,59.6709114 42.6966159,59.6709114 C43.0982523,59.6709114 43.2104114,59.8856159 43.5618432,59.8781386 C43.9196841,59.8727977 44.1461386,59.5544795 44.3651159,59.234025 C44.6193432,58.8644341 44.7218886,58.5065932 44.7282977,58.4873659 C44.7208205,58.4841614 44.0318432,58.2203205 44.0254341,57.4266614 Z" id="Stroke-257" stroke="#3B73FF" stroke-linejoin="round"></path>
                <line x1="43.1262386" y1="54.5443864" x2="43.6079886" y2="54.0626364" id="Stroke-259" stroke="#3B73FF" stroke-linecap="round" stroke-linejoin="round"></line>
                <path d="M50.0699545,66.2943864 L29.2404091,66.2943864 L34.5813182,49.7375682 L53.9431818,49.7375682 C54.285,49.7375682 54.6054545,49.901 54.8073409,50.1765909 C55.0081591,50.45325 55.0647727,50.8078864 54.9600909,51.1336818 L50.0699545,66.2943864 Z" id="Stroke-261" stroke="#3B73FF" stroke-linejoin="round"></path>
            </g>
        </g>
    </g>
</svg>