<?xml version="1.0" encoding="UTF-8"?>
<svg width="75px" height="76px" viewBox="0 0 75 76" version="1.1" xmlns="http://www.w3.org/2000/svg" xmlns:xlink="http://www.w3.org/1999/xlink">
    <title>13 navigator-business-compass-map</title>
    <defs>
        <linearGradient x1="50%" y1="0%" x2="50%" y2="100%" id="linearGradient-1">
            <stop stop-color="#DEF1FE" offset="0%"></stop>
            <stop stop-color="#F9D9FB" offset="100%"></stop>
        </linearGradient>
    </defs>
    <g id="Logos" stroke="none" stroke-width="1" fill="none" fill-rule="evenodd">
        <g id="13-navigator-business-compass-map">
            <path d="M74.7,38.0361789 C74.7,58.563339 58.04556,75.2045462 37.5,75.2045462 C16.95444,75.2045462 0.3,58.563339 0.3,38.0361789 C0.3,17.5080896 16.95444,0.867811543 37.5,0.867811543 C58.04556,0.867811543 74.7,17.5080896 74.7,38.0361789" id="Fill-1" fill="url(#linearGradient-1)"></path>
            <path d="M7.284951,29.202373 L53.940261,16.9684049 C54.568941,16.8039349 55.211571,17.1802646 55.376181,17.8074808 L63.679221,49.4145312 L18.617001,61.2303552 C17.108541,61.6261983 15.564741,60.7248654 15.169491,59.2176881 L7.284951,29.202373 Z" id="Fill-3" fill="#D6DAFF"></path>
            <path d="M11.22657,44.2103093 L15.32322,43.1361435 C16.83168,42.7403004 18.37548,43.6416333 18.77073,45.1488106 C18.96882,45.9023992 19.74072,46.3530657 20.49495,46.1551441 C21.24918,45.9572226 22.02015,46.407889 22.21824,47.1614777 L22.57722,48.5255568 C22.77531,49.2791454 23.54721,49.7298119 24.30144,49.5318903 L25.66668,49.1732156 C26.42091,48.9762232 26.87196,48.2049796 26.67387,47.4513909 C26.47578,46.6978023 26.92683,45.9265587 27.68013,45.7286371 L28.36368,45.550229 C29.49549,45.2538112 30.65241,45.9293463 30.94908,47.0592647 C31.24575,48.1901122 32.4036,48.8656473 33.53541,48.5683004 L34.21803,48.3898922 C36.47979,47.7961276 38.79642,49.1481269 39.38976,51.4088929 L40.46391,55.5020593 L18.61635,61.2306339 C17.10789,61.626477 15.56502,60.7251441 15.16884,59.2179668 L11.22657,44.2103093 Z" id="Fill-5" fill="#FFFFFF"></path>
            <path d="M7.284951,29.202373 L53.940261,16.9684049 C54.568941,16.8039349 55.211571,17.1802646 55.376181,17.8074808 L63.679221,49.4145312 L18.617001,61.2303552 C17.108541,61.6261983 15.564741,60.7248654 15.169491,59.2176881 L7.284951,29.202373 Z" id="Stroke-7" stroke="#3B73FF" stroke-linecap="round" stroke-linejoin="round"></path>
            <path d="M47.805423,38.9939148 C48.240663,40.651624 50.064393,41.5752579 51.701193,40.8486163 C52.987383,40.2780819 53.586303,38.7746214 53.229183,37.4151884 L51.834183,32.1038287 C51.636093,31.3502401 52.087143,30.5789964 52.841373,30.3820041 C53.595603,30.1840825 54.046653,29.4128389 53.848563,28.6592503 L53.131533,25.9301629 C52.934373,25.1775034 53.384493,24.4062598 54.138723,24.2083383 C55.647183,23.8134244 56.548353,22.2700079 56.153103,20.7637598 L55.376553,17.8079454 C55.211943,17.1798 54.568383,16.8043995 53.940633,16.9688695 L37.326183,21.3250022 C35.064423,21.9187668 33.711273,24.2315685 34.304613,26.4923344 L35.021643,29.2204926 C35.615913,31.4821878 37.930683,32.8332579 40.192443,32.2394932 L41.558613,31.8817477 C42.312843,31.6838261 43.084743,32.1344926 43.282833,32.8880812 L43.998933,35.6171686 C44.197023,36.3707573 44.968923,36.8214237 45.723153,36.6235022 C46.477383,36.4255806 47.248353,36.8762471 47.446443,37.6298357 L47.805423,38.9939148 Z" id="Fill-9" fill="#FFFFFF"></path>
            <path d="M47.805423,38.9939148 C48.240663,40.651624 50.064393,41.5752579 51.701193,40.8486163 C52.987383,40.2780819 53.586303,38.7746214 53.229183,37.4151884 L51.834183,32.1038287 C51.636093,31.3502401 52.087143,30.5789964 52.841373,30.3820041 C53.595603,30.1840825 54.046653,29.4128389 53.848563,28.6592503 L53.131533,25.9301629 C52.934373,25.1775034 53.384493,24.4062598 54.138723,24.2083383 C55.647183,23.8134244 56.548353,22.2700079 56.153103,20.7637598 L55.376553,17.8079454 C55.211943,17.1798 54.568383,16.8043995 53.940633,16.9688695 L37.326183,21.3250022 C35.064423,21.9187668 33.711273,24.2315685 34.304613,26.4923344 L35.021643,29.2204926 C35.615913,31.4821878 37.930683,32.8332579 40.192443,32.2394932 L41.558613,31.8817477 C42.312843,31.6838261 43.084743,32.1344926 43.282833,32.8880812 L43.998933,35.6171686 C44.197023,36.3707573 44.968923,36.8214237 45.723153,36.6235022 C46.477383,36.4255806 47.248353,36.8762471 47.446443,37.6298357 L47.805423,38.9939148 Z" id="Stroke-11" stroke="#3B73FF" stroke-linecap="round" stroke-linejoin="round"></path>
            <path d="M28.261752,36.826999 L28.978782,39.5560864 C29.374032,41.0623344 30.917832,41.9636673 32.427222,41.5687534 C33.934752,41.1729103 34.835922,39.6304231 34.440672,38.1232458 L33.723642,35.3941584 C33.327462,33.8869811 31.784592,32.9865774 30.276132,33.3814913 C28.767672,33.7773344 27.865572,35.3198217 28.261752,36.826999" id="Fill-13" fill="#FFFFFF"></path>
            <path d="M28.261752,36.826999 L28.978782,39.5560864 C29.374032,41.0623344 30.917832,41.9636673 32.427222,41.5687534 C33.934752,41.1729103 34.835922,39.6304231 34.440672,38.1232458 L33.723642,35.3941584 C33.327462,33.8869811 31.784592,32.9865774 30.276132,33.3814913 C28.767672,33.7773344 27.865572,35.3198217 28.261752,36.826999 Z" id="Stroke-15" stroke="#3B73FF" stroke-linecap="round" stroke-linejoin="round"></path>
            <path d="M24.097677,32.0852445 C24.493857,33.5924218 23.590827,35.1349091 22.083297,35.5307522 C20.574837,35.9256661 19.031037,35.0252624 18.635787,33.5180851 C18.239607,32.0109078 19.141707,30.4684205 20.650167,30.0725774 C22.157697,29.6776635 23.701497,30.5780672 24.097677,32.0852445 Z" id="Stroke-17" stroke="#3B73FF" stroke-linecap="round" stroke-linejoin="round"></path>
            <line x1="20.291373" y1="28.7086842" x2="22.441533" y2="36.8950171" id="Stroke-19" stroke="#3B73FF" stroke-linecap="round" stroke-linejoin="round"></line>
            <line x1="17.269803" y1="33.8755518" x2="25.463103" y2="31.7272202" id="Stroke-21" stroke="#3B73FF" stroke-linecap="round" stroke-linejoin="round"></line>
            <path d="M11.22657,44.2103093 L15.32322,43.1361435 C16.83168,42.7403004 18.37548,43.6416333 18.77073,45.1488106 C18.96882,45.9023992 19.74072,46.3530657 20.49495,46.1551441 C21.24918,45.9572226 22.02015,46.407889 22.21824,47.1614777 L22.57722,48.5255568 C22.77531,49.2791454 23.54721,49.7298119 24.30144,49.5318903 L25.66668,49.1732156 C26.42091,48.9762232 26.87196,48.2049796 26.67387,47.4513909 C26.47578,46.6978023 26.92683,45.9265587 27.68013,45.7286371 L28.36368,45.550229 C29.49549,45.2538112 30.65241,45.9293463 30.94908,47.0592647 C31.24575,48.1901122 32.4036,48.8656473 33.53541,48.5683004 L34.21803,48.3898922 C36.47979,47.7961276 38.79642,49.1481269 39.38976,51.4088929 L40.46391,55.5020593 L18.61635,61.2306339 C17.10789,61.626477 15.56502,60.7251441 15.16884,59.2179668 L11.22657,44.2103093 Z" id="Stroke-23" stroke="#3B73FF" stroke-linecap="round" stroke-linejoin="round"></path>
            <path d="M18.616629,61.230541 C17.108169,61.6263841 15.565299,60.7250512 15.169119,59.2178739" id="Stroke-25" stroke="#4550E6" stroke-linecap="round" stroke-linejoin="round"></path>
            <path d="M15.169119,59.2178739 C14.772939,57.7106966 15.675039,56.1691386 17.183499,55.7732955 C18.041889,55.5484268 18.910509,55.7426316 19.574529,56.2304664 C19.842369,56.4283879 20.206929,56.1719262 20.122299,55.8494906 L12.430269,26.5617464 C12.054549,25.1344811 10.685589,24.1030589 9.225489,24.3335027 C7.548699,24.5983274 6.507099,26.2383816 6.926529,27.8375506 L15.169119,59.2178739 Z" id="Fill-27" fill="#FFFFFF"></path>
            <path d="M15.169119,59.2178739 C14.772939,57.7106966 15.675039,56.1691386 17.183499,55.7732955 C18.041889,55.5484268 18.910509,55.7426316 19.574529,56.2304664 C19.842369,56.4283879 20.206929,56.1719262 20.122299,55.8494906 L12.430269,26.5617464 C12.054549,25.1344811 10.685589,24.1030589 9.225489,24.3335027 C7.548699,24.5983274 6.507099,26.2383816 6.926529,27.8375506 L15.169119,59.2178739 Z" id="Stroke-29" stroke="#3B73FF" stroke-linecap="round" stroke-linejoin="round"></path>
            <line x1="48.676368" y1="25.6406213" x2="48.806568" y2="26.1349606" id="Stroke-31" stroke="#4550E6" stroke-linecap="round" stroke-linejoin="round"></line>
            <path d="M49.040556,27.6324741 C49.098216,30.1840825 47.405616,32.535911 44.827656,33.2123753 L39.365766,34.6442866 C37.857306,35.0401297 36.955206,36.582617 37.351386,38.0897943 L38.067486,40.8179524 C38.463666,42.3251297 40.006536,43.2264626 41.514996,42.8306195 C43.023456,42.4347764 44.567256,43.3361093 44.962506,44.8432866 C45.556776,47.1040526 47.872476,48.4560519 50.135166,47.8622872 L52.865646,47.145867 C54.942336,46.6022796 57.062736,47.6950296 57.856026,49.6249971" id="Stroke-33" stroke="#3B73FF" stroke-linecap="round" stroke-linejoin="round" stroke-dasharray="0.99,1.486"></path>
            <line x1="58.086201" y1="50.3527537" x2="58.216401" y2="50.847093" id="Stroke-35" stroke="#4550E6" stroke-linecap="round" stroke-linejoin="round"></line>
            <line x1="46.090689" y1="24.131121" x2="51.262419" y2="27.1501216" id="Stroke-37" stroke="#3B73FF" stroke-linecap="round" stroke-linejoin="round"></line>
            <line x1="50.187618" y1="23.0567693" x2="47.166048" y2="28.2241016" id="Stroke-39" stroke="#3B73FF" stroke-linecap="round" stroke-linejoin="round"></line>
            <path d="M67.448883,38.5533767 C66.731853,40.3644054 64.682133,41.2527294 62.869563,40.5372383 C61.056993,39.820818 60.167913,37.772841 60.884013,35.9608831 C61.601043,34.1498544 63.651693,33.2615304 65.464263,33.9779507 C67.275903,34.6934418 68.165913,36.742348 67.448883,38.5533767 Z" id="Stroke-41" stroke="#3B73FF" stroke-linecap="round" stroke-linejoin="round"></path>
            <path d="M63.403755,43.0229658 L60.778365,41.9859684 L61.642335,39.7995392 C61.881345,39.1955532 62.565825,38.9000647 63.169395,39.1388714 L63.607425,39.3117043 C64.210995,39.5505111 64.507665,40.2334798 64.269585,40.8365366 L63.403755,43.0229658 Z" id="Fill-43" fill="#FFFFFF"></path>
            <path d="M63.403755,43.0229658 L60.778365,41.9859684 L61.642335,39.7995392 C61.881345,39.1955532 62.565825,38.9000647 63.169395,39.1388714 L63.607425,39.3117043 C64.210995,39.5505111 64.507665,40.2334798 64.269585,40.8365366 L63.403755,43.0229658 Z" id="Stroke-45" stroke="#3B73FF" stroke-linecap="round" stroke-linejoin="round"></path>
            <path d="M66.71781,51.9153119 C65.14146,55.8997608 60.63096,57.8538878 56.64219,56.2788782 C52.65435,54.7038686 50.69856,50.1962749 52.27584,46.2118259 C53.85219,42.2273769 58.36269,40.2741792 62.35053,41.8491888 C66.33837,43.4232691 68.29323,47.9299337 66.71781,51.9153119" id="Fill-47" fill="#D6DAFF"></path>
            <path d="M64.092234,50.8785932 C63.088764,53.414405 60.218784,54.6567577 57.679884,53.6550702 C55.142844,52.6524535 53.898504,49.784914 54.901044,47.2491021 C55.904514,44.7132902 58.774494,43.4700084 61.313394,44.4716959 C63.850434,45.4752418 65.094774,48.3427813 64.092234,50.8785932" id="Fill-49" fill="#D6DAFF"></path>
            <path d="M54.962889,51.0269879 C53.877579,48.5255568 55.027059,45.6180612 57.531549,44.5346033 C60.035109,43.4502162 62.945079,44.5987187 64.030389,47.1001499 L54.962889,51.0269879 Z" id="Fill-51" fill="#FFFFFF"></path>
            <path d="M66.71781,51.9153119 C65.14146,55.8997608 60.63096,57.8538878 56.64219,56.2788782 C52.65435,54.7038686 50.69856,50.1962749 52.27584,46.2118259 C53.85219,42.2273769 58.36269,40.2741792 62.35053,41.8491888 C66.33837,43.4232691 68.29323,47.9299337 66.71781,51.9153119 Z" id="Stroke-53" stroke="#3B73FF" stroke-linecap="round" stroke-linejoin="round"></path>
            <path d="M64.092234,50.8785932 C63.088764,53.414405 60.218784,54.6567577 57.679884,53.6550702 C55.142844,52.6524535 53.898504,49.784914 54.901044,47.2491021 C55.904514,44.7132902 58.774494,43.4700084 61.313394,44.4716959 C63.850434,45.4752418 65.094774,48.3427813 64.092234,50.8785932 Z" id="Stroke-55" stroke="#3B73FF" stroke-linecap="round" stroke-linejoin="round"></path>
            <line x1="60.275049" y1="47.0959684" x2="58.718229" y2="51.0311693" id="Stroke-57" stroke="#3B73FF" stroke-linecap="round" stroke-linejoin="round"></line>
            <polygon id="Fill-59" fill="#FFFFFF" points="23.460999 21.7818014 21.601929 17.9794774 39.362139 9.31274337 41.220279 13.1150673"></polygon>
            <polygon id="Fill-61" fill="#D6DAFF" points="44.731122 9.04689662 39.362232 9.31265045 41.220372 13.1149744"></polygon>
            <polygon id="Stroke-63" stroke="#3B73FF" stroke-linecap="round" stroke-linejoin="round" points="44.731122 9.04689662 39.362232 9.31265045 41.220372 13.1149744"></polygon>
            <line x1="44.731122" y1="9.04689662" x2="45.998712" y2="8.4280433" id="Stroke-65" stroke="#3B73FF" stroke-linecap="round" stroke-linejoin="round"></line>
            <path d="M20.712756,23.1230219 C20.128716,23.4082892 19.423776,23.1657656 19.139196,22.5831514 L18.312426,20.8929199 C18.027846,20.3093765 18.269646,19.6059652 18.853686,19.320698 L21.601836,17.9798491 L23.460906,21.7821731 L20.712756,23.1230219 Z" id="Fill-67" fill="#FFFFFF"></path>
            <path d="M20.712756,23.1230219 C20.128716,23.4082892 19.423776,23.1657656 19.139196,22.5831514 L18.312426,20.8929199 C18.027846,20.3093765 18.269646,19.6059652 18.853686,19.320698 L21.601836,17.9798491 L23.460906,21.7821731 L20.712756,23.1230219 Z" id="Stroke-69" stroke="#3B73FF" stroke-linecap="round" stroke-linejoin="round"></path>
            <polygon id="Stroke-71" stroke="#3B73FF" stroke-linecap="round" stroke-linejoin="round" points="23.460999 21.7818014 21.601929 17.9794774 39.362139 9.31274337 41.220279 13.1150673"></polygon>
            <polygon id="Fill-73" fill="#FFFFFF" points="26.9724 66.965713 50.97198 66.965713 50.97198 62.7340944 26.9724 62.7340944"></polygon>
            <line x1="22.73811" y1="64.8502754" x2="19.91463" y2="64.8502754" id="Stroke-75" stroke="#3B73FF" stroke-linecap="round" stroke-linejoin="round"></line>
            <polygon id="Stroke-76" stroke="#3B73FF" stroke-linecap="round" stroke-linejoin="round" points="26.9724 66.965713 50.97198 66.965713 50.97198 62.7340944 26.9724 62.7340944"></polygon>
            <polygon id="Fill-77" fill="#D6DAFF" points="22.73811 64.8502754 26.97333 66.9660847 26.97333 62.7344661"></polygon>
            <polygon id="Stroke-78" stroke="#3B73FF" stroke-linecap="round" stroke-linejoin="round" points="22.73811 64.8502754 26.97333 66.9660847 26.97333 62.7344661"></polygon>
            <path d="M27.747741,56.6920046 L46.874121,61.6679198 C46.285431,63.9296149 47.642301,66.2405582 49.904991,66.8296768 C52.169541,67.4178662 54.481521,66.06215 55.071141,63.8004548 C55.660761,61.5387597 54.303891,59.2278165 52.039341,58.6386978 L28.814451,52.5969797 L27.747741,56.6920046 Z" id="Fill-79" fill="#FFFFFF"></path>
            <line x1="24.182121" y1="53.5782246" x2="21.449781" y2="52.8673796" id="Stroke-80" stroke="#3B73FF" stroke-linecap="round" stroke-linejoin="round"></line>
            <path d="M27.747741,56.6920046 L46.874121,61.6679198 C46.285431,63.9296149 47.642301,66.2405582 49.904991,66.8296768 C52.169541,67.4178662 54.481521,66.06215 55.071141,63.8004548 C55.660761,61.5387597 54.303891,59.2278165 52.039341,58.6386978 L28.814451,52.5969797 L27.747741,56.6920046 Z" id="Stroke-81" stroke="#3B73FF" stroke-linecap="round" stroke-linejoin="round"></path>
            <polygon id="Fill-82" fill="#D6DAFF" points="24.182121 53.5782246 27.747741 56.6920046 28.814451 52.5969797"></polygon>
            <polygon id="Stroke-83" stroke="#3B73FF" stroke-linecap="round" stroke-linejoin="round" points="24.182121 53.5782246 27.747741 56.6920046 28.814451 52.5969797"></polygon>
            <path d="M50.972259,61.5590165 C50.449599,61.5590165 49.972509,61.9093283 49.833939,62.4380483 C49.671189,63.0661938 50.047839,63.7082773 50.676519,63.8718181 C50.776029,63.897836 50.875539,63.9099157 50.973189,63.9099157 C51.495849,63.9099157 51.972939,63.5586746 52.111509,63.0299546 C52.274259,62.4018092 51.897609,61.7606548 51.268929,61.597114 C51.169419,61.5710962 51.069909,61.5590165 50.972259,61.5590165 M50.972259,62.4882256 C50.992719,62.4882256 51.013179,62.4900841 51.034569,62.4965885 C51.116409,62.5170311 51.161049,62.5690668 51.185229,62.609952 C51.208479,62.649908 51.231729,62.7149527 51.211269,62.7967231 C51.177789,62.9230955 51.065259,62.9807065 50.973189,62.9807065 C50.952729,62.9807065 50.932269,62.9779189 50.911809,62.9723436 C50.779749,62.9379629 50.700699,62.8032276 50.734179,62.6722091 C50.767659,62.5458366 50.880189,62.4882256 50.972259,62.4882256" id="Fill-84" fill="#3B73FF"></path>
        </g>
    </g>
</svg>