<?xml version="1.0" encoding="UTF-8"?>
<svg width="85px" height="67px" viewBox="0 0 85 67" version="1.1" xmlns="http://www.w3.org/2000/svg" xmlns:xlink="http://www.w3.org/1999/xlink">
    <!-- Generator: Sketch 63.1 (92452) - https://sketch.com -->
    <title>Shape</title>
    <desc>Created with Sketch.</desc>
    <g id="Page-1" stroke="none" stroke-width="1" fill="none" fill-rule="evenodd" fill-opacity="0.15">
        <g id="quote" fill="#203D55" fill-rule="nonzero">
            <path d="M38.1264,51.7293 C38.1264,55.8015 36.4784,59.3647 33.1823,62.4188 C29.9497,65.4729 26.1148,67 21.6779,67 C14.7054,67 9.34937,64.6776 5.60962,60.0328 C1.86987,55.3879 0,48.9615 0,40.7536 C0,33.1182 3.20097,25.4193 9.60291,17.6567 C16.0682,9.89411 23.833,4.00855 32.8971,0 L37.0805,6.77635 C29.918,10.2759 24.3084,14.3481 20.2517,18.9929 C16.195,23.6377 13.8497,29.2688 13.2159,35.886 L18.5403,35.886 C22.4702,35.886 25.6711,36.3314 28.1432,37.2222 C30.6152,38.113 32.6119,39.3538 34.1331,40.9444 C35.591,42.4715 36.6051,44.1576 37.1756,46.0028 C37.8095,47.8481 38.1264,49.7569 38.1264,51.7293 Z M85,51.7293 C85,55.8015 83.352,59.3647 80.0559,62.4188 C76.8233,65.4729 72.9884,67 68.5515,67 C61.579,67 56.223,64.6776 52.4832,60.0328 C48.7435,55.3879 46.8736,48.9615 46.8736,40.7536 C46.8736,33.1182 50.0746,25.4193 56.4765,17.6567 C62.9418,9.89411 70.7066,4.00855 79.7707,0 L83.9541,6.77635 C76.7916,10.2759 71.182,14.3481 67.1253,18.9929 C63.0686,23.6377 60.7233,29.2688 60.0895,35.886 L65.4139,35.886 C69.3438,35.886 72.5447,36.3314 75.0168,37.2222 C77.4888,38.113 79.4855,39.3538 81.0067,40.9444 C82.4646,42.4715 83.4787,44.1576 84.0492,46.0028 C84.6831,47.8481 85,49.7569 85,51.7293 Z" id="Shape"></path>
        </g>
    </g>
</svg>