<?xml version="1.0" encoding="UTF-8"?>
<svg width="1440px" height="60px" viewBox="0 0 1440 60" version="1.1" xmlns="http://www.w3.org/2000/svg" xmlns:xlink="http://www.w3.org/1999/xlink">
    <!-- Generator: Sketch 64 (93537) - https://sketch.com -->
    <title>vector_contact</title>
    <desc>Created with Sketch.</desc>
    <g id="Logos" stroke="none" stroke-width="1" fill="none" fill-rule="evenodd">
        <g id="vector_contact" fill="#FBE8E8" fill-rule="nonzero">
            <path d="M0,26.6666667 L48,24.4375 C96,22.2916667 192,17.7083333 288,23.3333333 C384,28.9583333 480,44.375 576,44.4375 C672,44.375 768,28.9583333 864,26.6666667 C960,24.375 1056,35.625 1152,33.3333333 C1248,31.0416667 1344,15.625 1392,7.77083333 L1440,0 L1440,60 L1392,60 C1344,60 1248,60 1152,60 C1056,60 960,60 864,60 C768,60 672,60 576,60 C480,60 384,60 288,60 C192,60 96,60 48,60 L0,60 L0,26.6666667 Z" id="Path"></path>
        </g>
    </g>
</svg>