<?xml version="1.0" encoding="UTF-8"?>
<svg width="1440px" height="60px" viewBox="0 0 1440 60" version="1.1" xmlns="http://www.w3.org/2000/svg" xmlns:xlink="http://www.w3.org/1999/xlink">
    <!-- Generator: Sketch 64 (93537) - https://sketch.com -->
    <title>vector_recent</title>
    <desc>Created with Sketch.</desc>
    <g id="Page-1" stroke="none" stroke-width="1" fill="none" fill-rule="evenodd">
        <g id="Test" fill="#FFF" fill-rule="nonzero">
            <g id="vector_recent" transform="translate(0.000000, -1.000000)">
                <path d="M0,35.2857143 L48,36.7053571 C96,38.2321429 192,40.9107143 288,36.7053571 C384,32.3392857 480,5.3660714 576,1 C672,-3.2053572 768,32.3392857 864,31 C960,29.6607142 1056,6.625 1152,3.86607143 C1248,1 1330.57386,23.0411372 1354.25437,27.0174684 C1370.04138,29.6683558 1398.62325,32.3291997 1440,35 L1440,61 L1392,61 C1344,61 1248,61 1152,61 C1056,61 960,61 864,61 C768,61 672,61 576,61 C480,61 384,61 288,61 C192,61 96,61 48,61 L0,61 L0,35.2857143 Z" id="Path"></path>
            </g>
        </g>
    </g>
</svg>
