<?xml version="1.0" encoding="UTF-8"?>
<svg width="1440px" height="60px" viewBox="0 0 1440 60" version="1.1" xmlns="http://www.w3.org/2000/svg" xmlns:xlink="http://www.w3.org/1999/xlink">
    <!-- Generator: Sketch 64 (93537) - https://sketch.com -->
    <title>vector_worked</title>
    <desc>Created with Sketch.</desc>
    <g id="Page-1" stroke="none" stroke-width="1" fill="none" fill-rule="evenodd">
        <g id="Artboard-Copy-4" fill="#E3FDED" fill-rule="nonzero">
            <g id="vector_worked">
                <path d="M-0.00478323227,-0.000403328784 C3.05056579,-0.00480155514 72.7713125,2.61047655 103.852299,6.49559982 C134.933285,10.3807231 240,30 360,27.515625 C480,24.84375 600,5.15625 720,5.015625 C840,5.15625 960,24.84375 1080,32.484375 C1200,39.84375 1362.57854,17.193824 1380,13.9925917 C1391.61431,11.8584368 1411.61431,7.19410514 1440,-0.000403328784 L1440,60 L1380,60 C1320,60 1200,60 1080,60 C960,60 840,60 720,60 C600,60 480,60 360,60 C240,60 120,60 60,60 L-0.00478323227,60 C-0.00478323227,21.1776351 -0.00478323227,1.1775007 -0.00478323227,-0.000403328784 Z" id="Path"></path>
            </g>
        </g>
    </g>
</svg>